<svg version="1.1" xmlns="http://www.w3.org/2000/svg" viewBox="0 0 429.5844523111982 329.52067057290697" width="429.5844523111982" height="329.52067057290697">
  <!-- svg-source:excalidraw -->

  <defs>
    <style>
      svg {
        color: #1d2021;
      }
      <!-- @media (prefers-color-scheme: light) { -->
      <!--   svg { -->
      <!--     color: #1d2021; -->
      <!--   } -->
      <!-- } -->
    </style>
  </defs>
  <rect x="0" y="0" width="429.5844523111982" height="329.52067057290697" fill="none"></rect><g stroke-linecap="round" transform="translate(166.10783894856831 130.78759511311364) rotate(0 43.14188639322947 31.09149932861237)"><path d="M56.23 2.07 C64.04 3.53, 74.3 7.33, 79.17 12.3 C84.04 17.27, 85.65 25.56, 85.45 31.9 C85.25 38.24, 82.74 45.68, 77.96 50.33 C73.19 54.99, 65.01 58, 56.81 59.82 C48.62 61.63, 37.1 63.04, 28.8 61.24 C20.51 59.44, 11.87 54.17, 7.03 49.03 C2.19 43.88, -0.4 36.41, -0.24 30.37 C-0.08 24.33, 2.77 17.74, 8.01 12.8 C13.25 7.86, 22.2 2.28, 31.18 0.74 C40.16 -0.81, 56.23 2.61, 61.9 3.55 C67.58 4.48, 65.61 5.87, 65.24 6.33 M43.12 1.18 C50.75 0.95, 61.32 2.68, 68.18 6.13 C75.04 9.57, 81.83 16.22, 84.28 21.86 C86.72 27.49, 85.62 34.09, 82.85 39.91 C80.09 45.74, 74.54 52.97, 67.68 56.79 C60.82 60.61, 49.9 63.2, 41.69 62.83 C33.49 62.47, 25.01 58.44, 18.45 54.62 C11.88 50.79, 5.11 45.69, 2.33 39.87 C-0.46 34.04, -1.17 25.43, 1.72 19.67 C4.62 13.91, 12.66 8.82, 19.69 5.3 C26.72 1.77, 39.91 -0.57, 43.91 -1.48 C47.92 -2.4, 43.84 -0.97, 43.72 -0.21" stroke="currentColor" stroke-width="2" fill="none"></path></g><g transform="translate(190.92870076497366 147.28879547118595) rotate(0 16.5 12.5)"><text x="0" y="18" font-family="Bradley Hand" font-size="20px" fill="#c92a2a" text-anchor="start" style="white-space: pre;" direction="ltr">the</text></g><g stroke-linecap="round" transform="translate(333.3006795247393 71.86620076496911) rotate(0 43.14188639322947 31.09149932861237)"><path d="M39.04 -0.55 C46.76 -1.16, 58.04 2.33, 65.3 5.48 C72.55 8.63, 79.13 12.74, 82.57 18.36 C86.01 23.98, 87.83 33.25, 85.94 39.21 C84.05 45.17, 77.88 50.29, 71.23 54.13 C64.58 57.97, 54.5 61.72, 46.05 62.27 C37.59 62.81, 27.78 60.73, 20.48 57.42 C13.17 54.11, 5.38 48.03, 2.24 42.39 C-0.89 36.74, -0.6 29.28, 1.69 23.53 C3.97 17.78, 7.77 11.79, 15.98 7.89 C24.18 3.99, 43.42 0.76, 50.91 0.13 C58.39 -0.51, 60.9 3.65, 60.89 4.08 M35.37 -0.18 C43.35 -1.43, 55.36 1.33, 62.91 4 C70.47 6.67, 77 10.44, 80.7 15.83 C84.4 21.22, 86.48 30.19, 85.1 36.35 C83.71 42.5, 78.19 48.77, 72.38 52.76 C66.58 56.76, 58.49 59.13, 50.25 60.34 C42.01 61.54, 30.54 62.43, 22.93 60 C15.33 57.58, 8.54 51.38, 4.65 45.8 C0.76 40.23, -1.81 32.52, -0.4 26.57 C1 20.62, 7.22 14.28, 13.09 10.1 C18.95 5.92, 30.78 3.26, 34.77 1.51 C38.76 -0.24, 36.7 -0.77, 37.04 -0.42" stroke="currentColor" stroke-width="2" fill="none"></path></g><g transform="translate(362.10316975911337 87.8980662027916) rotate(0 11 12.5)"><text x="0" y="18" font-family="Bradley Hand" font-size="20px" fill="currentColor" text-anchor="start" style="white-space: pre;" direction="ltr">he</text></g><g stroke-linecap="round" transform="translate(201.61005655924328 256.52572631835574) rotate(0 43.14188639322947 31.09149932861237)"><path d="M26.1 2.31 C33.11 -0.24, 42.55 0.18, 50.82 1.5 C59.09 2.83, 69.96 5.98, 75.71 10.26 C81.46 14.55, 84.48 21.21, 85.34 27.23 C86.2 33.25, 84.93 41.2, 80.86 46.4 C76.79 51.59, 68.71 55.79, 60.9 58.4 C53.1 61, 42.32 62.95, 34.03 62.02 C25.73 61.09, 16.67 57.46, 11.13 52.84 C5.59 48.22, 1.78 40.6, 0.79 34.3 C-0.21 28, 0.47 20.4, 5.17 15.06 C9.87 9.72, 24.64 4.53, 29 2.24 C33.37 -0.05, 31.24 0.89, 31.36 1.31 M33.49 0.16 C41.09 -1.83, 50.61 -0.59, 58.42 1.58 C66.24 3.75, 75.78 7.89, 80.38 13.19 C84.97 18.49, 86.96 27.2, 86.01 33.38 C85.07 39.55, 79.94 45.61, 74.71 50.23 C69.48 54.85, 62.52 59.62, 54.62 61.08 C46.72 62.54, 35.31 61.16, 27.31 59.01 C19.32 56.86, 11.04 53.42, 6.64 48.18 C2.25 42.94, 0.19 33.59, 0.95 27.54 C1.72 21.49, 6.17 16.3, 11.23 11.87 C16.3 7.43, 27.68 2.58, 31.33 0.93 C34.98 -0.71, 32.86 1.27, 33.13 2" stroke="currentColor" stroke-width="2" fill="none"></path></g><g transform="translate(226.72236124674237 272.44404093424237) rotate(0 21.5 12.5)"><text x="0" y="18" font-family="Bradley Hand" font-size="20px" fill="currentColor" text-anchor="start" style="white-space: pre;" direction="ltr">they</text></g><g stroke-linecap="round" transform="translate(314.3342081705714 190.76649983723655) rotate(0 43.14188639322947 31.09149932861237)"><path d="M61.67 3.48 C69.34 5.51, 76.73 9.76, 80.73 14.94 C84.74 20.13, 86.63 28.44, 85.7 34.59 C84.76 40.74, 80.9 47.42, 75.12 51.82 C69.35 56.23, 59.21 59.77, 51.02 61.01 C42.82 62.25, 33.38 61.58, 25.96 59.26 C18.53 56.93, 10.81 52.4, 6.47 47.08 C2.13 41.76, -0.72 33.42, -0.06 27.34 C0.6 21.26, 4.64 15.22, 10.43 10.62 C16.23 6.02, 25.95 0.96, 34.7 -0.26 C43.44 -1.49, 57.83 2.46, 62.91 3.27 C67.99 4.08, 65.52 4.03, 65.18 4.59 M52.57 1.47 C60.39 2.56, 68.9 6.47, 74.51 10.77 C80.12 15.07, 85.47 20.98, 86.22 27.26 C86.97 33.55, 83.48 42.99, 79.01 48.48 C74.54 53.98, 67.22 58.08, 59.41 60.24 C51.59 62.4, 40.2 62.8, 32.12 61.44 C24.05 60.08, 16.51 56.57, 10.96 52.09 C5.41 47.62, -0.57 41.04, -1.2 34.58 C-1.82 28.13, 2.54 18.71, 7.19 13.36 C11.84 8.02, 18.95 4.72, 26.71 2.49 C34.47 0.27, 49.13 0.13, 53.76 0.02 C58.39 -0.09, 54.92 1.16, 54.5 1.84" stroke="currentColor" stroke-width="2" fill="none"></path></g><g stroke-linecap="round" transform="translate(52.895456949870095 257.3376719156822) rotate(0 43.14188639322947 31.09149932861237)"><path d="M58.8 2.39 C66.45 4.24, 75.23 9.34, 79.63 14.38 C84.03 19.42, 85.68 26.56, 85.2 32.63 C84.73 38.69, 81.88 45.92, 76.76 50.77 C71.64 55.63, 62.81 60.28, 54.49 61.74 C46.17 63.2, 34.92 61.82, 26.83 59.54 C18.73 57.26, 10.31 53.3, 5.93 48.07 C1.54 42.83, -0.11 34.32, 0.51 28.12 C1.13 21.92, 4.31 15.5, 9.66 10.89 C15 6.28, 23.56 1.58, 32.56 0.47 C41.56 -0.65, 57.65 3.28, 63.66 4.2 C69.67 5.13, 69 5.7, 68.61 6.02 M51.85 -0.8 C59.94 0.16, 68.43 6.42, 74.09 11.22 C79.75 16.03, 84.87 22.12, 85.82 28.01 C86.77 33.9, 83.8 41.19, 79.78 46.56 C75.75 51.93, 69.42 57.56, 61.65 60.24 C53.88 62.92, 41.42 64.25, 33.17 62.64 C24.91 61.04, 17.59 55.28, 12.11 50.62 C6.63 45.97, 1.29 40.67, 0.29 34.72 C-0.7 28.77, 1.7 20.16, 6.11 14.9 C10.51 9.64, 19.28 5.5, 26.73 3.15 C34.18 0.8, 46.63 1.17, 50.82 0.82 C55.01 0.46, 51.72 0.51, 51.87 1.01" stroke="currentColor" stroke-width="2" fill="none"></path></g><g transform="translate(73.05343627929597 275.538243611647) rotate(0 23 12.5)"><text x="0" y="18" font-family="Bradley Hand" font-size="20px" fill="currentColor" text-anchor="start" style="white-space: pre;" direction="ltr">them</text></g><g stroke-linecap="round" transform="translate(10 139.7138977050745) rotate(0 43.14188639322947 31.09149932861237)"><path d="M35.7 -0.54 C43.4 -1.85, 54.14 0.68, 61.71 3.67 C69.28 6.65, 77.01 12.09, 81.11 17.36 C85.22 22.62, 87.59 29.45, 86.35 35.24 C85.1 41.02, 79.54 47.58, 73.62 52.06 C67.71 56.55, 59.26 61.05, 50.85 62.15 C42.43 63.25, 30.84 61.41, 23.14 58.65 C15.44 55.89, 8.51 50.99, 4.65 45.59 C0.79 40.19, -1.35 32.19, -0.04 26.23 C1.28 20.28, 6.18 14.32, 12.54 9.87 C18.9 5.42, 33.38 1.01, 38.13 -0.47 C42.87 -1.94, 41.01 0.45, 41.01 1.05 M45.15 -0.18 C53.5 -0.48, 63.05 1.61, 69.62 5.43 C76.19 9.26, 82.05 17, 84.57 22.76 C87.09 28.52, 87.34 34.21, 84.73 39.99 C82.11 45.76, 76.18 53.72, 68.86 57.42 C61.54 61.13, 49.41 62.38, 40.8 62.2 C32.19 62.02, 23.84 59.8, 17.21 56.35 C10.57 52.9, 3.4 47.59, 1 41.52 C-1.41 35.44, -0.19 25.85, 2.76 19.9 C5.71 13.95, 11.86 9, 18.7 5.82 C25.54 2.64, 39.57 1.85, 43.81 0.8 C48.05 -0.25, 44.09 -0.91, 44.16 -0.48" stroke="currentColor" stroke-width="2" fill="none"></path></g><g transform="translate(34.82088724772075 155.98044331868005) rotate(0 21 12.5)"><text x="0" y="18" font-family="Bradley Hand" font-size="20px" fill="currentColor" text-anchor="start" style="white-space: pre;" direction="ltr">then</text></g><g stroke-linecap="round" transform="translate(63.6640421549464 13.862152099607556) rotate(0 43.14188639322947 31.09149932861237)"><path d="M40.82 -0.14 C49.08 -0.76, 59.92 2.1, 66.94 5.32 C73.96 8.54, 80.03 13.53, 82.92 19.17 C85.8 24.81, 86.19 33.35, 84.23 39.17 C82.26 44.99, 77.56 50.31, 71.12 54.09 C64.68 57.86, 54.1 61.34, 45.6 61.8 C37.09 62.27, 27.26 60.04, 20.11 56.89 C12.95 53.73, 5.7 48.55, 2.66 42.89 C-0.39 37.23, -0.24 28.94, 1.81 22.91 C3.86 16.88, 7.5 10.67, 14.95 6.7 C22.4 2.73, 40.41 -0.01, 46.5 -0.91 C52.6 -1.81, 51.78 0.7, 51.51 1.28 M57.88 2.24 C65.72 4.02, 75.58 9.83, 80.08 15.11 C84.59 20.39, 85.34 28.24, 84.89 33.94 C84.43 39.64, 82.48 44.75, 77.36 49.31 C72.24 53.87, 62.38 59.65, 54.15 61.3 C45.93 62.95, 35.64 61.39, 28 59.22 C20.36 57.05, 13.11 53.23, 8.3 48.28 C3.48 43.33, -1.18 35.7, -0.9 29.52 C-0.62 23.34, 4.34 15.92, 9.99 11.19 C15.63 6.47, 25 2.63, 32.95 1.17 C40.89 -0.29, 53.37 1.94, 57.66 2.43 C61.95 2.92, 58.96 3.88, 58.68 4.13" stroke="currentColor" stroke-width="2" fill="none"></path></g><g transform="translate(88.48495483398256 30.832636515297054) rotate(0 14 12.5)"><text x="0" y="18" font-family="Bradley Hand" font-size="20px" fill="currentColor" text-anchor="start" style="white-space: pre;" direction="ltr">tie</text></g><g stroke-linecap="round"><g transform="translate(260.32025331273303 149.5571481278348) rotate(0 33.62090292253532 -16.866399110464044)"><path d="M0.95 -0.99 C15.86 -9.71, 34.94 -19.32, 67.37 -34 M-0.13 0.27 C13.44 -7.39, 28.31 -13.9, 66.7 -33.36" stroke="currentColor" stroke-width="2" fill="none"></path></g><g transform="translate(260.32025331273303 149.5571481278348) rotate(0 33.62090292253532 -16.866399110464044)"><path d="M1.18 -0.42 L10.8 -12.7 L15.57 -1.48 L2.38 -2.82" stroke="none" stroke-width="0" fill="currentColor" fill-rule="evenodd"></path><path d="M1.66 -1.74 C2.34 -4.71, 6.2 -8.48, 9.94 -12.82 M0.85 -0.79 C2.45 -3.43, 5.09 -5.51, 9.44 -12.33 M10.22 -12.47 C11.34 -7.69, 14.43 -5.74, 16.09 -1.41 M9.63 -12.75 C11.91 -9.07, 12.97 -6.94, 15.86 -1.02 M17.37 -0.98 C11.3 -2.51, 6.57 -0.26, -0.27 0.49 M15.42 -0.88 C12.27 -1.32, 8.81 -1.08, 1.56 -0.47 M0.95 -0.99 C0.95 -0.99, 0.95 -0.99, 0.95 -0.99 M0.95 -0.99 C0.95 -0.99, 0.95 -0.99, 0.95 -0.99" stroke="currentColor" stroke-width="2" fill="none"></path></g><g transform="translate(260.32025331273303 149.5571481278348) rotate(0 33.62090292253532 -16.866399110464044)"><path d="M66.93 -32.78 L58.08 -21.43 L51.34 -32.81 L68.13 -35.18" stroke="none" stroke-width="0" fill="currentColor" fill-rule="evenodd"></path><path d="M67.41 -34.1 C63.35 -31.08, 62.57 -28.9, 57.21 -21.55 M66.6 -33.16 C64.27 -30.82, 63.14 -28.06, 56.71 -21.06 M57.5 -21.19 C54.76 -24.4, 53.78 -30.45, 51.86 -32.73 M56.9 -21.47 C55.79 -24.22, 53.58 -28.53, 51.63 -32.34 M53.14 -32.3 C57.12 -34.41, 62.42 -32.5, 65.48 -31.87 M51.19 -32.2 C55.68 -33.14, 59.87 -33.16, 67.31 -32.83 M66.7 -33.36 C66.7 -33.36, 66.7 -33.36, 66.7 -33.36 M66.7 -33.36 C66.7 -33.36, 66.7 -33.36, 66.7 -33.36" stroke="currentColor" stroke-width="2" fill="none"></path></g></g><g transform="translate(319.4761081705715 209.357999165848) rotate(0 38 12.5)"><text x="38" y="18" font-family="Bradley Hand" font-size="20px" fill="currentColor" text-anchor="middle" style="white-space: pre;" direction="ltr">she</text></g><g stroke-linecap="round" transform="translate(211.98801676432322 10.000000000001819) rotate(0 43.14188639322947 31.09149932861237)"><path d="M41.78 0.46 C49.82 -0.06, 59.69 2.29, 66.64 5.42 C73.6 8.55, 80.57 13.66, 83.5 19.22 C86.44 24.79, 86.4 32.8, 84.23 38.8 C82.06 44.8, 77.08 51.4, 70.49 55.22 C63.9 59.03, 53.34 61.36, 44.69 61.7 C36.04 62.04, 25.63 60.39, 18.57 57.25 C11.5 54.1, 5.15 48.72, 2.3 42.84 C-0.54 36.96, -0.7 27.82, 1.51 21.95 C3.72 16.09, 8.28 11.14, 15.57 7.63 C22.86 4.11, 40.05 1.92, 45.23 0.86 C50.42 -0.2, 46.98 0.74, 46.69 1.26 M32.54 -0.18 C39.94 -1.95, 49.93 1.4, 57.56 3.61 C65.19 5.82, 73.33 8.34, 78.33 13.08 C83.33 17.82, 87.93 25.63, 87.55 32.07 C87.17 38.51, 81.7 47.01, 76.04 51.72 C70.37 56.43, 61.52 59.11, 53.57 60.32 C45.63 61.54, 36.36 61.33, 28.38 59.02 C20.41 56.71, 10.3 51.5, 5.72 46.47 C1.14 41.43, -0.01 34.89, 0.88 28.8 C1.76 22.72, 5.98 14.41, 11.03 9.98 C16.08 5.54, 27.34 3.36, 31.15 2.17 C34.95 0.98, 33.48 2.43, 33.87 2.81" stroke="currentColor" stroke-width="2" fill="none"></path></g><g transform="translate(236.80887858072856 26.50120035807231) rotate(0 17 12.5)"><text x="0" y="18" font-family="Bradley Hand" font-size="20px" fill="currentColor" text-anchor="start" style="white-space: pre;" direction="ltr">toe</text></g><g stroke-linecap="round"><g transform="translate(184.6011635543843 129.75233200729235) rotate(0 -26.128198296490496 -28.521412671349026)"><path d="M-1.13 -0.18 C-15.52 -18.14, -32.75 -37.07, -51.3 -56.86 M-0.96 -0.97 C-16.05 -17.37, -32.85 -35.71, -49.34 -56.61" stroke="currentColor" stroke-width="2" fill="none"></path></g><g transform="translate(184.6011635543843 129.75233200729235) rotate(0 -26.128198296490496 -28.521412671349026)"><path d="M0.05 -1.73 L-13.21 -6.38 L-4.61 -12.69 L0.4 0.75" stroke="none" stroke-width="0" fill="currentColor" fill-rule="evenodd"></path><path d="M-1.98 -0.32 C-5.27 -2.08, -10.35 -4.42, -15.69 -6.67 M-1.85 -0.91 C-5.23 -1.77, -10.19 -3.96, -14.22 -6.49 M-14.38 -7.19 C-10.71 -9.8, -9.72 -12.7, -6.24 -13.6 M-14.99 -5.83 C-12.43 -8.6, -10.29 -10.39, -5.62 -14.04 M-6.4 -13.51 C-5.67 -11.4, -3.86 -7.2, -1.4 0.88 M-5.66 -14.14 C-3.37 -9.8, -2.23 -5.5, -1.43 -0.42 M-1.13 -0.18 C-1.13 -0.18, -1.13 -0.18, -1.13 -0.18 M-1.13 -0.18 C-1.13 -0.18, -1.13 -0.18, -1.13 -0.18" stroke="currentColor" stroke-width="2" fill="none"></path></g><g transform="translate(184.6011635543843 129.75233200729235) rotate(0 -26.128198296490496 -28.521412671349026)"><path d="M-48.16 -58.16 L-34.21 -50.19 L-44.99 -40.15 L-47.81 -55.68" stroke="none" stroke-width="0" fill="currentColor" fill-rule="evenodd"></path><path d="M-50.2 -56.75 C-44.68 -54.55, -40.83 -52.74, -36.68 -50.48 M-50.06 -57.34 C-44.64 -54.29, -40.89 -52.45, -35.22 -50.3 M-35.37 -51 C-37.57 -48.47, -42.54 -46.34, -46.62 -41.06 M-35.99 -49.64 C-38.47 -48.11, -41.29 -45.7, -46 -41.51 M-46.78 -40.98 C-47.77 -46.15, -47.95 -49.27, -49.61 -55.55 M-46.04 -41.61 C-46.09 -46.64, -47.49 -51.72, -49.64 -56.84 M-49.34 -56.61 C-49.34 -56.61, -49.34 -56.61, -49.34 -56.61 M-49.34 -56.61 C-49.34 -56.61, -49.34 -56.61, -49.34 -56.61" stroke="currentColor" stroke-width="2" fill="none"></path></g></g><g stroke-linecap="round"><g transform="translate(153.24574788411428 38.93650054931095) rotate(0 27.04370224600052 -0.9167570322751999)"><path d="M0.21 -1.9 C14.57 -0.08, 31.37 -1.05, 52.77 0.07 M0.93 -0.02 C16.32 0.39, 31.75 -1.36, 53.87 -0.74" stroke="currentColor" stroke-width="2" fill="none"></path></g><g transform="translate(153.24574788411428 38.93650054931095) rotate(0 27.04370224600052 -0.9167570322751999)"><path d="M-1.06 -1.53 L12.46 -9.28 L13.4 4.47 L1.54 -3.5" stroke="none" stroke-width="0" fill="currentColor" fill-rule="evenodd"></path><path d="M0.37 -3.33 C3.77 -3.34, 9.06 -5.55, 13.41 -7.19 M0.91 -1.91 C4.81 -3.15, 8.72 -6.01, 14.24 -7.8 M13.87 -6.99 C14.9 -4.39, 13.8 0.18, 13.94 4.27 M14.08 -8.02 C13.64 -4.81, 14.42 -1.84, 13.14 4.67 M13.81 3.87 C7.29 0.84, 1.62 -0.78, -0.72 -0.66 M13.66 5.54 C8.94 2.01, 4 -0.05, -0.1 -2.02 M0.21 -1.9 C0.21 -1.9, 0.21 -1.9, 0.21 -1.9 M0.21 -1.9 C0.21 -1.9, 0.21 -1.9, 0.21 -1.9" stroke="currentColor" stroke-width="2" fill="none"></path></g><g transform="translate(153.24574788411428 38.93650054931095) rotate(0 27.04370224600052 -0.9167570322751999)"><path d="M52.6 -0.37 L38.67 3.98 L40.15 -7.62 L55.2 -2.34" stroke="none" stroke-width="0" fill="currentColor" fill-rule="evenodd"></path><path d="M54.03 -2.17 C49.94 1.28, 47.61 2.43, 39.63 6.06 M54.57 -0.76 C50.44 1.54, 46.36 2.2, 40.46 5.45 M40.09 6.26 C41.21 0.02, 40.29 -4.25, 40.69 -7.83 M40.3 5.24 C40.06 2.88, 40.95 0.28, 39.89 -7.42 M40.57 -8.22 C44.85 -6, 49.85 -2.36, 52.94 0.5 M40.42 -6.55 C45.7 -5.09, 50.86 -2.16, 53.56 -0.86 M53.87 -0.74 C53.87 -0.74, 53.87 -0.74, 53.87 -0.74 M53.87 -0.74 C53.87 -0.74, 53.87 -0.74, 53.87 -0.74" stroke="currentColor" stroke-width="2" fill="none"></path></g></g><g stroke-linecap="round"><g transform="translate(366.8488566080723 139.06607309976607) rotate(0 -1.6875459559389014 21.725957235942587)"><path d="M-0.82 0.29 C0.75 15.67, -3.78 28.63, -1.69 44.39 M-0.59 -0.94 C-1.85 12.43, -2.71 26.12, -2.87 41.58" stroke="currentColor" stroke-width="2" fill="none"></path></g><g transform="translate(366.8488566080723 139.06607309976607) rotate(0 -1.6875459559389014 21.725957235942587)"><path d="M-2.51 1.27 L4.53 15.28 L-7.1 12.19 L0.05 1.28" stroke="none" stroke-width="0" fill="currentColor" fill-rule="evenodd"></path><path d="M-1.43 0.51 C2.69 5.81, 2.25 9.26, 6.38 15.62 M-1.26 -0.42 C0.28 4.32, 2.17 9.22, 5.5 13.5 M5.53 13.5 C1.92 14.33, -3.03 13.73, -7.59 13.11 M5.46 13.81 C0.62 14.08, -5.51 14.3, -7.6 13.81 M-7.42 14.38 C-3.88 9.02, -3.35 1.53, -1.77 0.57 M-7.93 14.1 C-6.7 10.07, -4.64 8.29, -0.46 0.74 M-0.82 0.29 C-0.82 0.29, -0.82 0.29, -0.82 0.29 M-0.82 0.29 C-0.82 0.29, -0.82 0.29, -0.82 0.29" stroke="currentColor" stroke-width="2" fill="none"></path></g><g transform="translate(366.8488566080723 139.06607309976607) rotate(0 -1.6875459559389014 21.725957235942587)"><path d="M-4.56 42.56 L-9.28 28.97 L4.43 26.73 L-2 42.57" stroke="none" stroke-width="0" fill="currentColor" fill-rule="evenodd"></path><path d="M-3.48 41.8 C-3.48 37.4, -8.02 31.21, -7.43 29.31 M-3.31 40.87 C-5.32 37.29, -6.95 33.96, -8.31 27.2 M-8.28 27.19 C-4.46 28.09, -1.98 27.73, 3.94 27.65 M-8.35 27.5 C-3.32 28.21, 0.42 28.76, 3.93 28.34 M4.11 28.92 C2.15 34.14, -2.75 37.35, -3.82 41.86 M3.6 28.64 C1.62 30.49, 0.7 34.59, -2.51 42.03 M-2.87 41.58 C-2.87 41.58, -2.87 41.58, -2.87 41.58 M-2.87 41.58 C-2.87 41.58, -2.87 41.58, -2.87 41.58" stroke="currentColor" stroke-width="2" fill="none"></path></g></g><g stroke-linecap="round"><g transform="translate(235.16525268554688 76.23264312743595) rotate(0 -7.309495112548575 24.305514690776363)"><path d="M0.33 1.48 C-4.75 17.03, -9.86 36.51, -14.89 47.73 M0.16 -0.42 C-3.72 14.55, -7.95 30.34, -14.95 49.03" stroke="currentColor" stroke-width="2" fill="none"></path></g><g transform="translate(235.16525268554688 76.23264312743595) rotate(0 -7.309495112548575 24.305514690776363)"><path d="M1.29 2.91 L1.15 17.36 L-7.81 13.71 L-1.11 1.68" stroke="none" stroke-width="0" fill="currentColor" fill-rule="evenodd"></path><path d="M0.58 2.6 C1.66 6.31, 2.54 12.96, 1.7 16.12 M0.45 1.17 C1.53 5.7, 2.25 10.96, 1.66 17.1 M2.04 15.27 C-1.29 15.92, -4.55 14.63, -10.77 11.32 M1.83 16.3 C-0.7 15.78, -3.9 13.96, -9.82 13.03 M-11.11 12.42 C-6.04 8.91, -2.52 4.28, 1.28 2.59 M-9.16 11.84 C-5.61 8.23, -1.65 4.35, 0.43 0.97 M0.33 1.48 C0.33 1.48, 0.33 1.48, 0.33 1.48 M0.33 1.48 C0.33 1.48, 0.33 1.48, 0.33 1.48" stroke="currentColor" stroke-width="2" fill="none"></path></g><g transform="translate(235.16525268554688 76.23264312743595) rotate(0 -7.309495112548575 24.305514690776363)"><path d="M-13.99 50.46 L-17.64 35.12 L-2.53 39.42 L-16.39 49.23" stroke="none" stroke-width="0" fill="currentColor" fill-rule="evenodd"></path><path d="M-14.7 50.15 C-14.68 42.66, -15.12 38.11, -17.09 33.88 M-14.83 48.72 C-14.73 44.01, -15.1 40, -17.13 34.86 M-16.75 33.02 C-12.34 35.99, -7.88 37.25, -5.48 37.03 M-16.96 34.06 C-13.78 35.61, -11.29 35.67, -4.53 38.74 M-5.83 38.13 C-7.79 42.41, -11.43 45.38, -14 50.13 M-3.88 37.55 C-8.59 42.43, -12.75 47.18, -14.85 48.52 M-14.95 49.03 C-14.95 49.03, -14.95 49.03, -14.95 49.03 M-14.95 49.03 C-14.95 49.03, -14.95 49.03, -14.95 49.03" stroke="currentColor" stroke-width="2" fill="none"></path></g></g><g stroke-linecap="round"><g transform="translate(159.35623168945312 162.47285207112145) rotate(0 -28.11671988045191 2.927377282330781)"><path d="M1.95 0.64 C-16.55 3.21, -29.13 3.37, -55.38 5.4 M0.7 0.46 C-13.09 0.57, -25.24 3, -58.18 5.07" stroke="currentColor" stroke-width="2" fill="none"></path></g><g transform="translate(159.35623168945312 162.47285207112145) rotate(0 -28.11671988045191 2.927377282330781)"><path d="M0.47 1.73 L-9.28 8.9 L-11.29 -5.59 L3.08 1.68" stroke="none" stroke-width="0" fill="currentColor" fill-rule="evenodd"></path><path d="M3.41 1.12 C-2.68 4.01, -4.37 4.94, -9.52 7.82 M2.48 0.98 C-1.41 1.58, -4.08 4.08, -11.62 7.57 M-12.03 7.15 C-11.42 5.4, -11.04 1.54, -11.03 -5.59 M-10.9 7.97 C-10.97 4.98, -11.1 0.49, -12.64 -3.94 M-12.02 -3.5 C-9.11 -4.45, -7.02 -1.41, 0.68 1.37 M-12.69 -4.13 C-7.81 -3.01, -4.12 -1.14, 1.33 0.88 M1.95 0.64 C1.95 0.64, 1.95 0.64, 1.95 0.64 M1.95 0.64 C1.95 0.64, 1.95 0.64, 1.95 0.64" stroke="currentColor" stroke-width="2" fill="none"></path></g><g transform="translate(159.35623168945312 162.47285207112145) rotate(0 -28.11671988045191 2.927377282330781)"><path d="M-59.66 6.16 L-43.37 -1.56 L-43.27 9.22 L-57.05 6.11" stroke="none" stroke-width="0" fill="currentColor" fill-rule="evenodd"></path><path d="M-56.72 5.55 C-56.23 4.74, -51.2 1.83, -43.61 -2.64 M-57.66 5.41 C-55.99 2.68, -53.07 1.99, -45.71 -2.89 M-46.13 -3.31 C-44.96 2.32, -43.97 5.87, -43.01 9.22 M-44.99 -2.49 C-44.41 1.84, -43.92 4.68, -44.62 10.87 M-44 11.31 C-46.8 8.24, -50.41 9.19, -59.45 5.81 M-44.67 10.68 C-47.73 8.98, -51.92 7.95, -58.8 5.31 M-58.18 5.07 C-58.18 5.07, -58.18 5.07, -58.18 5.07 M-58.18 5.07 C-58.18 5.07, -58.18 5.07, -58.18 5.07" stroke="currentColor" stroke-width="2" fill="none"></path></g></g><g stroke-linecap="round"><g transform="translate(178.7446085611973 190.66977183023482) rotate(0 -25.901320658624172 33.78712906315923)"><path d="M-0.51 1.33 C-13.78 12.92, -23.98 30.54, -51.98 67.38 M0.18 0.19 C-21.02 25.4, -41.19 52.23, -51.99 65.62" stroke="currentColor" stroke-width="2" fill="none"></path></g><g transform="translate(178.7446085611973 190.66977183023482) rotate(0 -25.901320658624172 33.78712906315923)"><path d="M-1.2 1.47 L-5.08 13.93 L-12.78 9.83 L0.27 1.35" stroke="none" stroke-width="0" fill="currentColor" fill-rule="evenodd"></path><path d="M-0.89 2.33 C-2.62 3.33, -2.33 8.82, -3.41 16.78 M-0.37 1.47 C-1.91 6.76, -2.98 13.21, -3.41 15.46 M-3.97 15.83 C-6.29 14.8, -8.47 11.33, -14.47 8.74 M-3.77 16.09 C-6.74 14.42, -8.1 12.49, -13.89 8.35 M-15.36 7.87 C-10.7 7.78, -8.8 6.35, 0.21 2.4 M-13.56 7.38 C-10.7 5.53, -7.54 4.03, -0.87 1.03 M-0.51 1.33 C-0.51 1.33, -0.51 1.33, -0.51 1.33 M-0.51 1.33 C-0.51 1.33, -0.51 1.33, -0.51 1.33" stroke="currentColor" stroke-width="2" fill="none"></path></g><g transform="translate(178.7446085611973 190.66977183023482) rotate(0 -25.901320658624172 33.78712906315923)"><path d="M-52.68 65.76 L-49.51 49.06 L-37.39 60.77 L-51.2 65.64" stroke="none" stroke-width="0" fill="currentColor" fill-rule="evenodd"></path><path d="M-52.37 66.62 C-52.31 61.2, -50.47 60.27, -47.84 51.91 M-51.85 65.76 C-50.38 59.7, -48.71 54.8, -47.84 50.59 M-48.4 50.96 C-46.14 53.68, -43.85 53.77, -39.08 59.68 M-48.2 51.21 C-46.82 53, -43.91 54.47, -38.5 59.29 M-39.97 58.82 C-41.11 61.65, -45.05 63.13, -51.27 66.68 M-38.17 58.32 C-41.71 59.95, -45.02 61.66, -52.35 65.32 M-51.99 65.62 C-51.99 65.62, -51.99 65.62, -51.99 65.62 M-51.99 65.62 C-51.99 65.62, -51.99 65.62, -51.99 65.62" stroke="currentColor" stroke-width="2" fill="none"></path></g></g><g stroke-linecap="round"><g transform="translate(71.50705973307231 251.74724578856876) rotate(0 -3.9680626442032008 -23.457997757941484)"><path d="M1.14 0.63 C-3.67 -9.56, -3.29 -20.65, -9.07 -46.9 M-0.91 -0.03 C-1.94 -9.61, -4.67 -20.1, -8.9 -47.55" stroke="currentColor" stroke-width="2" fill="none"></path></g><g transform="translate(71.50705973307231 251.74724578856876) rotate(0 -3.9680626442032008 -23.457997757941484)"><path d="M1.94 0.32 L-7.46 -12.89 L5.6 -14.99 L3.09 -0.36" stroke="none" stroke-width="0" fill="currentColor" fill-rule="evenodd"></path><path d="M1.99 1.1 C-1.97 -1.29, -2.16 -4.35, -7.86 -10.17 M0.45 0.61 C-0.72 -1.28, -3.24 -3.84, -7.73 -10.66 M-7.38 -12.11 C-5.01 -13.13, -2.17 -13.67, 3.65 -14.55 M-7.75 -10.64 C-5.22 -11.44, -3.15 -11.97, 4.59 -13.54 M5.27 -14.32 C4.71 -11.37, 1.62 -9.11, -0.14 0.53 M3.53 -13.59 C4.16 -9.86, 2.62 -5.66, 0.78 1.32 M1.14 0.63 C1.14 0.63, 1.14 0.63, 1.14 0.63 M1.14 0.63 C1.14 0.63, 1.14 0.63, 1.14 0.63" stroke="currentColor" stroke-width="2" fill="none"></path></g><g transform="translate(71.50705973307231 251.74724578856876) rotate(0 -3.9680626442032008 -23.457997757941484)"><path d="M-8.1 -47.86 L0.2 -36.87 L-11.6 -34.05 L-6.95 -48.54" stroke="none" stroke-width="0" fill="currentColor" fill-rule="evenodd"></path><path d="M-8.05 -47.07 C-8.07 -44.21, -4.45 -42.06, -0.2 -34.15 M-9.59 -47.57 C-6.83 -44.21, -5.5 -41.51, -0.07 -34.63 M0.29 -36.08 C-3.31 -35.68, -6.46 -35.03, -13.55 -33.61 M-0.09 -34.62 C-2.88 -34.54, -6.17 -34.01, -12.61 -32.6 M-11.93 -33.38 C-11.06 -36.63, -12.64 -40.52, -10.17 -47.65 M-13.67 -32.65 C-11.16 -36.62, -10.8 -40.15, -9.26 -46.85 M-8.9 -47.55 C-8.9 -47.55, -8.9 -47.55, -8.9 -47.55 M-8.9 -47.55 C-8.9 -47.55, -8.9 -47.55, -8.9 -47.55" stroke="currentColor" stroke-width="2" fill="none"></path></g></g><g stroke-linecap="round"><g transform="translate(147.23236083984375 298.6711247761996) rotate(0 25.15232475847006 -3.214686632310986)"><path d="M1.42 -1.18 C13.89 0.71, 26.92 -3.69, 50.54 -5.7 M-0.4 -0.84 C15.73 -1.67, 30.65 -1.23, 50.71 -3.48" stroke="currentColor" stroke-width="2" fill="none"></path></g><g transform="translate(147.23236083984375 298.6711247761996) rotate(0 25.15232475847006 -3.214686632310986)"><path d="M2.13 0.07 L14.08 -9.92 L15.13 5.76 L1.24 -2.77" stroke="none" stroke-width="0" fill="currentColor" fill-rule="evenodd"></path><path d="M2.49 -2.07 C5.47 -1.66, 8.92 -6.09, 14.65 -9.86 M1.12 -1.82 C5.88 -3.87, 9.7 -4.85, 14.78 -8.2 M15.5 -9.65 C15.17 -4.62, 15.89 -2.62, 16.36 3.73 M14.46 -8.74 C14.64 -6.17, 14.17 -2.85, 16.06 4.36 M16.84 3.09 C10.8 3.79, 8.35 1.95, 0.74 -1.91 M14.91 3.88 C10.05 1.69, 4.27 -0.44, 1.52 -0.74 M1.42 -1.18 C1.42 -1.18, 1.42 -1.18, 1.42 -1.18 M1.42 -1.18 C1.42 -1.18, 1.42 -1.18, 1.42 -1.18" stroke="currentColor" stroke-width="2" fill="none"></path></g><g transform="translate(147.23236083984375 298.6711247761996) rotate(0 25.15232475847006 -3.214686632310986)"><path d="M51.42 -2.23 L37.26 2.57 L36.3 -7.02 L50.53 -5.06" stroke="none" stroke-width="0" fill="currentColor" fill-rule="evenodd"></path><path d="M51.77 -4.37 C48.19 -0.04, 44.94 -0.68, 37.84 2.63 M50.41 -4.12 C47.25 -1.87, 43.28 1.56, 37.96 4.3 M38.68 2.84 C37.72 1.74, 37.96 -2.41, 37.54 -9.05 M37.64 3.75 C37.62 1.02, 36.73 -0.94, 37.24 -8.42 M38.02 -9.69 C40.53 -5.7, 46.54 -4.39, 50.02 -4.2 M36.08 -8.91 C41.92 -7.35, 46.9 -5.46, 50.81 -3.03 M50.71 -3.48 C50.71 -3.48, 50.71 -3.48, 50.71 -3.48 M50.71 -3.48 C50.71 -3.48, 50.71 -3.48, 50.71 -3.48" stroke="currentColor" stroke-width="2" fill="none"></path></g></g><g stroke-linecap="round"><g transform="translate(232.69683837890625 250.9740829467719) rotate(0 -4.113005619496107 -25.739115677773952)"><path d="M0.87 -1.13 C-2.56 -16.69, -5.37 -37.26, -8.6 -48.78 M-0.3 -0.91 C-4.13 -19.18, -6.71 -37.08, -9.1 -50.57" stroke="currentColor" stroke-width="2" fill="none"></path></g><g transform="translate(232.69683837890625 250.9740829467719) rotate(0 -4.113005619496107 -25.739115677773952)"><path d="M-0.63 -0.36 L-9.65 -12.08 L4.31 -16.12 L0.96 -0.96" stroke="none" stroke-width="0" fill="currentColor" fill-rule="evenodd"></path><path d="M1.52 -1.99 C-1.49 -4.64, -4.26 -11.07, -7.45 -12.33 M0.65 -1.82 C-2.96 -6.18, -5.59 -10.28, -7.83 -13.67 M-7.38 -13.3 C-4.35 -14.51, -1.68 -15.25, 4.26 -14.54 M-8.18 -12.79 C-3.38 -13.59, 1.42 -15.31, 4.52 -16.12 M5.47 -15.04 C2.94 -13.15, 1.91 -8.18, 0.63 -0.66 M5.31 -16.04 C3.84 -11.96, 3.67 -10.17, 1.13 -0.79 M0.87 -1.13 C0.87 -1.13, 0.87 -1.13, 0.87 -1.13 M0.87 -1.13 C0.87 -1.13, 0.87 -1.13, 0.87 -1.13" stroke="currentColor" stroke-width="2" fill="none"></path></g><g transform="translate(232.69683837890625 250.9740829467719) rotate(0 -4.113005619496107 -25.739115677773952)"><path d="M-10.6 -49.8 L-2.35 -36.98 L-13.36 -36.57 L-9.01 -50.4" stroke="none" stroke-width="0" fill="currentColor" fill-rule="evenodd"></path><path d="M-8.44 -51.42 C-5.13 -45.44, -1.78 -43.17, -0.16 -37.23 M-9.32 -51.25 C-6.64 -46.73, -2.92 -41.81, -0.53 -38.57 M-0.09 -38.2 C-2.08 -38.27, -4.46 -38.11, -13.41 -34.98 M-0.89 -37.69 C-5.85 -36.85, -10.86 -36.82, -13.15 -36.56 M-12.19 -35.48 C-12.67 -40.47, -11.87 -42.36, -9.33 -50.1 M-12.36 -36.48 C-12.36 -38.61, -10.88 -43.05, -8.83 -50.22 M-9.1 -50.57 C-9.1 -50.57, -9.1 -50.57, -9.1 -50.57 M-9.1 -50.57 C-9.1 -50.57, -9.1 -50.57, -9.1 -50.57" stroke="currentColor" stroke-width="2" fill="none"></path></g></g><g stroke-linecap="round"><g transform="translate(249.31930541992188 180.42624155679732) rotate(0 30.760707542300224 14.51270778477192)"><path d="M-0.14 -0.69 C12.39 5.61, 22.79 13.82, 61.66 29.71 M0.92 -0.68 C17.97 9.88, 37.14 18.43, 59.29 28.45" stroke="currentColor" stroke-width="2" fill="none"></path></g><g transform="translate(249.31930541992188 180.42624155679732) rotate(0 30.760707542300224 14.51270778477192)"><path d="M1.58 -1.34 L15.14 -0.98 L9.4 12.2 L-0.41 -0.86" stroke="none" stroke-width="0" fill="currentColor" fill-rule="evenodd"></path><path d="M-0.24 -1.21 C3.09 -1.1, 4.65 0.69, 16.28 0.72 M0.56 -1.2 C4.19 0.3, 9.58 0.42, 14.5 -0.23 M13.91 -0.27 C12.37 3.57, 9.39 7.68, 9.03 12.07 M14.5 0.39 C12.65 4.12, 10.16 8.17, 8.56 11.93 M10.03 9.85 C7.14 9.07, 5.13 6.6, -1.12 -0.77 M8.33 11.19 C6.38 7.2, 2.15 3.14, 0.16 -1.21 M-0.14 -0.69 C-0.14 -0.69, -0.14 -0.69, -0.14 -0.69 M-0.14 -0.69 C-0.14 -0.69, -0.14 -0.69, -0.14 -0.69" stroke="currentColor" stroke-width="2" fill="none"></path></g><g transform="translate(249.31930541992188 180.42624155679732) rotate(0 30.760707542300224 14.51270778477192)"><path d="M61.01 27.8 L44.59 27.47 L50.08 17.93 L59.01 28.28" stroke="none" stroke-width="0" fill="currentColor" fill-rule="evenodd"></path><path d="M59.18 27.93 C56.25 27.64, 51.54 29.29, 45.72 29.18 M59.98 27.94 C54.58 29.09, 50.95 29.01, 43.94 28.23 M43.36 28.18 C46.25 23.22, 47.57 18.64, 49.71 17.81 M43.95 28.84 C46.03 24.88, 47.39 21.16, 49.24 17.67 M50.71 15.58 C52.5 20.52, 55.19 23.9, 58.3 28.37 M49.01 16.93 C53.5 20.83, 55.56 24.63, 59.58 27.93 M59.29 28.45 C59.29 28.45, 59.29 28.45, 59.29 28.45 M59.29 28.45 C59.29 28.45, 59.29 28.45, 59.29 28.45" stroke="currentColor" stroke-width="2" fill="none"></path></g></g></svg>
