<svg version="1.1" xmlns="http://www.w3.org/2000/svg" viewBox="0 0 1069.5597483837032 569.401251263358" width="2139.1194967674064" height="1138.802502526716">
  <!-- svg-source:excalidraw -->
  
  <defs>
    <style class="style-fonts">
    </style>
  </defs>
  <g transform="translate(200.5477407726911 130.77296267547308) rotate(0 73 18)"><text x="0" y="25" font-family="Bradley Hand" font-size="28px" fill="#000000" text-anchor="start" style="white-space: pre;" direction="ltr">PLANNING</text></g><g transform="translate(728.3551890575316 97.20498657226562) rotate(0 91.49999999999997 35.5)"><text x="0" y="25.5" font-family="Bradley Hand" font-size="28px" fill="#000000" text-anchor="start" style="white-space: pre;" direction="ltr">MAJOR PLAN</text><text x="0" y="61" font-family="Bradley Hand" font-size="28px" fill="#000000" text-anchor="start" style="white-space: pre;" direction="ltr">EXECUTION</text></g><g transform="translate(206.19712828213113 410.85870174586603) rotate(0 90 35.5)"><text x="0" y="25.5" font-family="Bradley Hand" font-size="28px" fill="#000000" text-anchor="start" style="white-space: pre;" direction="ltr">MINOR PLAN</text><text x="0" y="61" font-family="Bradley Hand" font-size="28px" fill="#000000" text-anchor="start" style="white-space: pre;" direction="ltr">EXECUTION</text></g><g transform="translate(673.716103567562 385.5751404235142) rotate(0 114.5 18)"><text x="0" y="25" font-family="Bradley Hand" font-size="28px" fill="#000000" text-anchor="start" style="white-space: pre;" direction="ltr">P.I.D. CONTROL</text></g><g transform="translate(556.7083826202964 408.5008301207798) rotate(0 45.5 25)"><text x="0" y="18" font-family="Bradley Hand" font-size="20px" fill="#000000" text-anchor="start" style="white-space: pre;" direction="ltr">await</text><text x="0" y="43" font-family="Bradley Hand" font-size="20px" fill="#000000" text-anchor="start" style="white-space: pre;" direction="ltr">time-step</text></g><g transform="translate(738.5660486359213 534.401251263358) rotate(0 48.5 12.5)"><text x="0" y="18" font-family="Bradley Hand" font-size="20px" fill="#000000" text-anchor="start" style="white-space: pre;" direction="ltr">perception</text></g><g transform="translate(929.7246179718588 409.5665649840611) rotate(0 55.5 12.5)"><text x="0" y="18" font-family="Bradley Hand" font-size="20px" fill="#000000" text-anchor="start" style="white-space: pre;" direction="ltr">localization</text></g><g transform="translate(697.1390772003745 296.0044922301548) rotate(0 80.5 12.5)"><text x="0" y="18" font-family="Bradley Hand" font-size="20px" fill="#000000" text-anchor="start" style="white-space: pre;" direction="ltr">motor correction</text></g><g stroke-linecap="round"><g transform="translate(601.631356253109 472.9889587828892) rotate(0 62.82311096521562 39.497373724034986)"><path d="M0.52 -0.06 C7.99 8.97, 23.26 39.94, 44.22 53.31 C65.19 66.67, 112.8 75.67, 126.31 80.13 M-0.66 -1.13 C6.66 7.67, 21.89 38.56, 43.02 51.78 C64.16 65, 112.38 73.83, 126.15 78.18" stroke="#000000" stroke-width="1" fill="none"></path></g><g transform="translate(601.631356253109 472.9889587828892) rotate(0 62.82311096521562 39.497373724034986)"><path d="M124.32 78.93 L109.8 79.84 L114.27 69.71 L126.44 79.44" stroke="none" stroke-width="0" fill="#000000" fill-rule="evenodd"></path><path d="M126.08 77.58 C123.84 80.38, 119.67 79.82, 112.28 80.51 M126.12 78.36 C121.04 78.98, 116.4 79.32, 111.58 80.83 M110.55 80.13 C112.12 76.96, 113.28 75.32, 114.19 68.54 M111.9 81.11 C113.02 76.37, 113.66 71.67, 114.57 68.21 M114.23 68.49 C117.27 70.76, 119.79 73.2, 126.87 79.64 M114.88 68.99 C116.94 70.83, 119.61 73.83, 126.13 77.73 M126.15 78.18 C126.15 78.18, 126.15 78.18, 126.15 78.18 M126.15 78.18 C126.15 78.18, 126.15 78.18, 126.15 78.18" stroke="#000000" stroke-width="1" fill="none"></path></g></g><mask></mask><g stroke-linecap="round"><g transform="translate(845.0733728546713 542.2489380309361) rotate(0 64.49019906371836 -46.34995460361242)"><path d="M-1.09 0.16 C14.12 -3.44, 69.94 -5.5, 91.8 -21.01 C113.66 -36.51, 123.7 -81.04, 130.07 -92.86 M0.54 -0.8 C15.54 -4.78, 69.32 -7.42, 90.88 -22.6 C112.44 -37.79, 123.86 -80.54, 129.91 -91.89" stroke="#000000" stroke-width="1" fill="none"></path></g><g transform="translate(845.0733728546713 542.2489380309361) rotate(0 64.49019906371836 -46.34995460361242)"><path d="M130.85 -91.7 L132.41 -76.81 L119 -81.33 L129.34 -93.89" stroke="none" stroke-width="0" fill="#000000" fill-rule="evenodd"></path><path d="M130.11 -91.83 C131.49 -85.23, 129.65 -80.09, 130.93 -77.33 M129.32 -91.72 C129.79 -88.09, 129.84 -84.08, 129.88 -77.15 M130.22 -77.82 C127.84 -76.78, 125.56 -78.52, 118.76 -80.64 M130.62 -77.11 C126.87 -78.4, 122.77 -80.41, 118.56 -81.56 M117.84 -80.97 C121.81 -84.39, 125.24 -88.12, 128.64 -92.29 M118.16 -81.37 C122.65 -86.14, 127.56 -89.21, 129.44 -91.77 M129.91 -91.89 C129.91 -91.89, 129.91 -91.89, 129.91 -91.89 M129.91 -91.89 C129.91 -91.89, 129.91 -91.89, 129.91 -91.89" stroke="#000000" stroke-width="1" fill="none"></path></g></g><mask></mask><g stroke-linecap="round"><g transform="translate(986.0462695022038 401.0545410582799) rotate(0 -57.572211365231794 -43.61617039577572)"><path d="M0.87 0.98 C-7.97 -11.85, -32.89 -61.67, -52.29 -76.54 C-71.69 -91.4, -104.74 -86.23, -115.52 -88.22 M-0.13 0.45 C-9.15 -12.21, -33.65 -60.35, -52.96 -74.95 C-72.28 -89.54, -105.3 -84.98, -116.01 -87.1" stroke="#000000" stroke-width="1" fill="none"></path></g><g transform="translate(986.0462695022038 401.0545410582799) rotate(0 -57.572211365231794 -43.61617039577572)"><path d="M-114.99 -88.19 L-100.77 -92.49 L-102.28 -81.81 L-115.8 -86.93" stroke="none" stroke-width="0" fill="#000000" fill-rule="evenodd"></path><path d="M-114.79 -86.45 C-110.87 -88.57, -106.45 -92.44, -102.85 -93.24 M-115.33 -87.14 C-113.49 -88.59, -110.23 -88.83, -101.98 -93.41 M-102.21 -93.24 C-101.77 -89.86, -102.1 -85.05, -102.11 -79.99 M-102.7 -92.48 C-102.07 -87.76, -102.49 -82.96, -102.2 -79.57 M-101.66 -81.22 C-108.27 -83.02, -111.56 -85.04, -115.06 -87.61 M-102.78 -79.57 C-108.48 -83.01, -113.36 -85.96, -116.68 -86.52 M-116.01 -87.1 C-116.01 -87.1, -116.01 -87.1, -116.01 -87.1 M-116.01 -87.1 C-116.01 -87.1, -116.01 -87.1, -116.01 -87.1" stroke="#000000" stroke-width="1" fill="none"></path></g></g><mask></mask><g stroke-linecap="round"><g transform="translate(689.050087942562 315.22236199873635) rotate(0 -51.588505278914255 45.14639342616723)"><path d="M-0.11 -0.19 C-12.87 3.1, -59.73 4.35, -76.76 19.42 C-93.8 34.49, -98.17 78.4, -102.3 90.24 M-1.62 -1.33 C-14.49 1.64, -60.61 2.15, -77.52 17.64 C-94.42 33.13, -99.17 79.27, -103.07 91.62" stroke="#000000" stroke-width="1" fill="none"></path></g><g transform="translate(689.050087942562 315.22236199873635) rotate(0 -51.588505278914255 45.14639342616723)"><path d="M-102.94 92.72 L-106.33 78.41 L-93.12 78.56 L-101.27 92.83" stroke="none" stroke-width="0" fill="#000000" fill-rule="evenodd"></path><path d="M-103.3 92.09 C-103.15 87.47, -104.75 84.26, -105.91 75.64 M-103.37 91.91 C-104.37 87.18, -104.57 82.85, -106.86 76.58 M-105.37 76.42 C-101.93 77.14, -100.22 77.5, -93.85 78.53 M-106.54 77.24 C-102.98 77.95, -99.42 78.58, -93.75 79.51 M-94.15 80.73 C-98.14 83.06, -98.47 86.87, -102.99 92.08 M-94.11 79.09 C-95.26 82.89, -96.91 84.9, -102.54 91.74 M-103.07 91.62 C-103.07 91.62, -103.07 91.62, -103.07 91.62 M-103.07 91.62 C-103.07 91.62, -103.07 91.62, -103.07 91.62" stroke="#000000" stroke-width="1" fill="none"></path></g></g><mask></mask><g transform="translate(233.1543681778715 330.9168791042683) rotate(0 57.5 25)"><text x="0" y="18" font-family="Bradley Hand" font-size="20px" fill="#000000" text-anchor="start" style="white-space: pre;" direction="ltr">await pose</text><text x="0" y="43" font-family="Bradley Hand" font-size="20px" fill="#000000" text-anchor="start" style="white-space: pre;" direction="ltr">achievement</text></g><g transform="translate(242.0824720781971 522.243667982184) rotate(0 66 12.5)"><text x="0" y="18" font-family="Bradley Hand" font-size="20px" fill="#000000" text-anchor="start" style="white-space: pre;" direction="ltr">dequeue pose</text></g><g transform="translate(561.0552256540861 117.97521368173784) rotate(0 68.5 25)"><text x="0" y="18" font-family="Bradley Hand" font-size="20px" fill="#000000" text-anchor="start" style="white-space: pre;" direction="ltr">await position</text><text x="0" y="43" font-family="Bradley Hand" font-size="20px" fill="#000000" text-anchor="start" style="white-space: pre;" direction="ltr">achievement</text></g><g transform="translate(851.8760633673825 217.35289842990585) rotate(0 80.5 12.5)"><text x="0" y="18" font-family="Bradley Hand" font-size="20px" fill="#000000" text-anchor="start" style="white-space: pre;" direction="ltr">dequeue position</text></g><g transform="translate(858.5597483837033 10) rotate(0 100.5 25)"><text x="0" y="18" font-family="Bradley Hand" font-size="20px" fill="#000000" text-anchor="start" style="white-space: pre;" direction="ltr">calculate &amp; enqueue</text><text x="0" y="43" font-family="Bradley Hand" font-size="20px" fill="#000000" text-anchor="start" style="white-space: pre;" direction="ltr">transition poses</text></g><g stroke-linecap="round"><g transform="translate(626.6910884543233 179.9875427833004) rotate(0 107.43828535142467 26.18031610865947)"><path d="M-1.11 -0.34 C8.62 8.06, 21.95 40.79, 58.13 49.47 C94.31 58.14, 189.81 51.44, 215.98 51.69 M0.51 -1.56 C10.12 6.6, 21.44 38.76, 57.27 47.87 C93.1 56.98, 189.16 52.44, 215.49 53.1" stroke="#000000" stroke-width="1" fill="none"></path></g><g transform="translate(626.6910884543233 179.9875427833004) rotate(0 107.43828535142467 26.18031610865947)"><path d="M215.26 54.44 L201.16 57.96 L201.61 45.07 L215.99 52.18" stroke="none" stroke-width="0" fill="#000000" fill-rule="evenodd"></path><path d="M215.06 53.32 C212.93 55.4, 208.11 56.16, 201.28 59.06 M216.19 52.8 C211.83 54.71, 207.57 56.61, 201.84 60.11 M201.63 60.19 C203 57.16, 202.14 52.14, 201.32 46.68 M201.96 59.8 C201.75 54.64, 201.6 49.69, 202.12 46.77 M201.63 46.87 C205.13 49.84, 209.7 49.76, 215.61 53.85 M201.95 46.39 C206.46 48.71, 210.81 51.66, 215.35 53.09 M215.49 53.1 C215.49 53.1, 215.49 53.1, 215.49 53.1 M215.49 53.1 C215.49 53.1, 215.49 53.1, 215.49 53.1" stroke="#000000" stroke-width="1" fill="none"></path></g></g><mask></mask><g stroke-linecap="round"><g transform="translate(986.4232071181856 216.08702928928085) rotate(0 -11.91234803186569 -75.25912283762071)"><path d="M1.14 -0.08 C2.87 -12.45, 16.96 -49.05, 10.85 -74.11 C4.73 -99.17, -27.74 -137.84, -35.53 -150.44 M0.28 -1.16 C1.82 -13.39, 15.99 -48.2, 9.91 -72.87 C3.83 -97.53, -28.58 -135.97, -36.2 -149.15" stroke="#000000" stroke-width="1" fill="none"></path></g><g transform="translate(986.4232071181856 216.08702928928085) rotate(0 -11.91234803186569 -75.25912283762071)"><path d="M-36.3 -150.72 L-23.62 -140.76 L-32.46 -135.25 L-35.14 -148.47" stroke="none" stroke-width="0" fill="#000000" fill-rule="evenodd"></path><path d="M-36.3 -149.11 C-32.51 -146.47, -27.5 -144.39, -22.45 -141.47 M-35.66 -149.57 C-32.42 -146.96, -27.19 -143.74, -23.32 -141.35 M-22.67 -141.28 C-27.06 -139.15, -30.49 -136.85, -32.63 -133.37 M-22.94 -140.94 C-25.9 -139.15, -30.13 -137.18, -33.33 -134.38 M-32.58 -133.67 C-33.38 -138.96, -34.98 -143.91, -35.73 -150.13 M-34.14 -133.97 C-34.85 -139.65, -34.74 -143.65, -35.54 -149.16 M-36.2 -149.15 C-36.2 -149.15, -36.2 -149.15, -36.2 -149.15 M-36.2 -149.15 C-36.2 -149.15, -36.2 -149.15, -36.2 -149.15" stroke="#000000" stroke-width="1" fill="none"></path></g></g><mask></mask><g stroke-linecap="round"><g transform="translate(848.4568431102658 39.157700056259955) rotate(0 -111.16412644716428 35.062228110612125)"><path d="M0.55 -0.18 C-19.87 0.31, -88.4 -1.45, -122.56 2.45 C-156.72 6.34, -187.7 11.84, -204.41 23.18 C-221.13 34.52, -219.74 62.56, -222.88 70.49 M-0.62 -1.33 C-21.23 -0.61, -89.52 -0.44, -123.67 3.83 C-157.82 8.11, -189.08 13.06, -205.53 24.33 C-221.98 35.6, -219.2 63.64, -222.38 71.45" stroke="#000000" stroke-width="1" fill="none"></path></g><g transform="translate(848.4568431102658 39.157700056259955) rotate(0 -111.16412644716428 35.062228110612125)"><path d="M-222.85 71.22 L-226.01 55.24 L-211.91 60.42 L-221.65 71.65" stroke="none" stroke-width="0" fill="#000000" fill-rule="evenodd"></path><path d="M-222.61 71.07 C-223.87 66.33, -225.09 63.47, -226.72 57.18 M-222.84 71.71 C-223.95 66.48, -224.49 62.02, -226.81 57.25 M-225.52 57.28 C-220.92 57.26, -215.95 59.63, -214.51 58.23 M-226.38 57.05 C-222.57 57.17, -218.92 58.24, -213.5 59.15 M-215.16 59.09 C-216.6 63.11, -219.47 67.8, -223.4 72.06 M-213.93 59.69 C-216.69 62.91, -218.99 65.2, -222.18 71.42 M-222.38 71.45 C-222.38 71.45, -222.38 71.45, -222.38 71.45 M-222.38 71.45 C-222.38 71.45, -222.38 71.45, -222.38 71.45" stroke="#000000" stroke-width="1" fill="none"></path></g></g><mask></mask><g transform="translate(10 131.81397252453712) rotate(0 55.5 25)"><text x="0" y="18" font-family="Bradley Hand" font-size="20px" fill="#000000" text-anchor="start" style="white-space: pre;" direction="ltr">await path</text><text x="0" y="43" font-family="Bradley Hand" font-size="20px" fill="#000000" text-anchor="start" style="white-space: pre;" direction="ltr">interruption</text></g><g transform="translate(137.3195913586286 232.95338259734808) rotate(0 104.5 25)"><text x="0" y="18" font-family="Bradley Hand" font-size="20px" fill="#000000" text-anchor="start" style="white-space: pre;" direction="ltr">STOP: clear queue &amp;</text><text x="0" y="43" font-family="Bradley Hand" font-size="20px" fill="#000000" text-anchor="start" style="white-space: pre;" direction="ltr">enqueue nearby pose</text></g><g transform="translate(376.7351187023786 142.40675173797308) rotate(0 70.5 12.5)"><text x="0" y="18" font-family="Bradley Hand" font-size="20px" fill="#000000" text-anchor="start" style="white-space: pre;" direction="ltr">await stopped</text></g><g transform="translate(154.8863638195661 25.51154910125433) rotate(0 122 25)"><text x="0" y="18" font-family="Bradley Hand" font-size="20px" fill="#000000" text-anchor="start" style="white-space: pre;" direction="ltr">compute path to final </text><text x="0" y="43" font-family="Bradley Hand" font-size="20px" fill="#000000" text-anchor="start" style="white-space: pre;" direction="ltr">goal &amp; enqueue positions</text></g><g stroke-linecap="round"><g transform="translate(60.04649809673194 189.95423131359962) rotate(0 32.57687197607059 34.62243512831816)"><path d="M1.17 0.17 C3.49 8.22, 2.58 37.41, 13.19 48.9 C23.8 60.38, 56.03 65.42, 64.83 69.07 M0.33 -0.78 C3.11 7.4, 5 38.55, 15.58 50.35 C26.16 62.15, 55.32 66.96, 63.83 70.03" stroke="#000000" stroke-width="1" fill="none"></path></g><g transform="translate(60.04649809673194 189.95423131359962) rotate(0 32.57687197607059 34.62243512831816)"><path d="M64.59 68.18 L49.54 70.55 L54.26 60.22 L65.19 69.6" stroke="none" stroke-width="0" fill="#000000" fill-rule="evenodd"></path><path d="M64.05 69.27 C60.09 70.22, 55.87 72.26, 50.31 71.72 M63.14 70.06 C60.66 71.29, 57.22 71.14, 49.59 72.71 M48.95 73.6 C51.17 68.79, 50.43 65.94, 53.37 60.04 M48.53 73 C49.66 69.13, 51.13 64.03, 52.01 60.42 M51.46 60.29 C57.01 63, 57.99 65.05, 63.33 69.2 M52.13 59.6 C56.74 63.78, 61.23 67.36, 63.17 69.51 M63.83 70.03 C63.83 70.03, 63.83 70.03, 63.83 70.03 M63.83 70.03 C63.83 70.03, 63.83 70.03, 63.83 70.03" stroke="#000000" stroke-width="1" fill="none"></path></g></g><mask></mask><g stroke-linecap="round"><g transform="translate(347.14838774534735 265.70747195281683) rotate(0 49.6543692286918 -44.57004922075663)"><path d="M-0.05 -0.71 C12.74 -2.75, 60.91 3.33, 77.73 -11.66 C94.55 -26.66, 97.27 -77.63, 100.85 -90.67 M-1.54 1.53 C10.97 -0.92, 59.47 1.62, 76.49 -13.51 C93.51 -28.65, 96.8 -76.19, 100.57 -89.28" stroke="#000000" stroke-width="1" fill="none"></path></g><g transform="translate(347.14838774534735 265.70747195281683) rotate(0 49.6543692286918 -44.57004922075663)"><path d="M99.69 -87.9 L103.11 -75.36 L93.32 -75.9 L100.41 -91.07" stroke="none" stroke-width="0" fill="#000000" fill-rule="evenodd"></path><path d="M99.68 -89.97 C102.68 -82.63, 103.62 -79.19, 105.35 -74.19 M101.08 -89.47 C101.06 -86.25, 102.68 -82.42, 104.01 -74.99 M105.39 -75.68 C99.62 -76.22, 96.52 -77.41, 92.98 -77.8 M103.87 -75.01 C101.81 -75.03, 98.2 -76.1, 91.5 -77.2 M91.14 -78.03 C93.83 -78.84, 97.44 -81.57, 101.81 -88.42 M91.36 -76.8 C94.09 -79.19, 95.4 -82.38, 100.17 -89.91 M100.57 -89.28 C100.57 -89.28, 100.57 -89.28, 100.57 -89.28 M100.57 -89.28 C100.57 -89.28, 100.57 -89.28, 100.57 -89.28" stroke="#000000" stroke-width="1" fill="none"></path></g></g><mask></mask><g stroke-linecap="round"><g transform="translate(448.79844573076014 141.0043626851437) rotate(0 -21.240825579261667 -45.830987164298726)"><path d="M-0.08 0.04 C-1.43 -10.61, 0.17 -48.46, -6.88 -63.75 C-13.94 -79.04, -36.59 -87.08, -42.4 -91.7 M-1.58 -0.98 C-3.18 -11.51, -1.36 -47.63, -7.74 -62.6 C-14.12 -77.56, -34.24 -86.11, -39.87 -90.79" stroke="#000000" stroke-width="1" fill="none"></path></g><g transform="translate(448.79844573076014 141.0043626851437) rotate(0 -21.240825579261667 -45.830987164298726)"><path d="M-39.77 -89.65 L-25.7 -88.67 L-32.3 -79.75 L-39.06 -89.2" stroke="none" stroke-width="0" fill="#000000" fill-rule="evenodd"></path><path d="M-39.82 -90.58 C-34.87 -90.83, -28.99 -89.18, -25.72 -89.08 M-39.82 -90.39 C-34.8 -90.45, -29.53 -88.7, -25.37 -88.86 M-25.76 -88.09 C-28.6 -83.93, -30.78 -81.27, -32.57 -78.03 M-24.62 -88.28 C-27.59 -83.98, -30.42 -80.68, -32.19 -77.7 M-32.72 -77.25 C-34.15 -82.73, -37.16 -87.45, -39.32 -91.56 M-32.18 -78.54 C-33.75 -80.99, -36.69 -84.36, -39.9 -90.3 M-39.87 -90.79 C-39.87 -90.79, -39.87 -90.79, -39.87 -90.79 M-39.87 -90.79 C-39.87 -90.79, -39.87 -90.79, -39.87 -90.79" stroke="#000000" stroke-width="1" fill="none"></path></g></g><mask></mask><g stroke-linecap="round"><g transform="translate(148.1861685070661 48.464156233876366) rotate(0 -38.26498350887532 35.58098926878487)"><path d="M0.24 0.09 C-7.17 2.64, -30.7 3.53, -43.47 15.37 C-56.25 27.21, -70.72 61.88, -76.38 71.12 M-1.09 -0.92 C-8.69 1.75, -31.46 4.21, -44.08 16.38 C-56.69 28.55, -71.23 62.91, -76.77 72.08" stroke="#000000" stroke-width="1" fill="none"></path></g><g transform="translate(148.1861685070661 48.464156233876366) rotate(0 -38.26498350887532 35.58098926878487)"><path d="M-75.65 72.65 L-75.92 57.14 L-66.25 63.22 L-76.72 70.92" stroke="none" stroke-width="0" fill="#000000" fill-rule="evenodd"></path><path d="M-76.67 72.9 C-77.8 67.23, -77.16 60.2, -77.42 56.12 M-76.76 71.72 C-76.41 67.79, -76.18 64.79, -75.81 57.43 M-76.87 56.55 C-71.94 60.02, -68.27 61, -65.69 61.67 M-75.69 56.98 C-72.13 58.97, -68.02 61.54, -65.36 63.29 M-64.33 62.25 C-70.36 64.65, -71.92 69.36, -77.39 72.57 M-65.54 62.61 C-68.13 65.92, -71.92 69.38, -76.29 72.52 M-76.77 72.08 C-76.77 72.08, -76.77 72.08, -76.77 72.08 M-76.77 72.08 C-76.77 72.08, -76.77 72.08, -76.77 72.08" stroke="#000000" stroke-width="1" fill="none"></path></g></g><mask></mask><g stroke-linecap="round"><g transform="translate(383.64985074358646 537.2652640393836) rotate(0 16.74901218151993 -88.79782915896169)"><path d="M-0.61 0.5 C8.47 -6.45, 45.09 -17.2, 54 -40.63 C62.92 -64.05, 66.64 -117.13, 52.89 -140.04 C39.15 -162.95, -14.82 -171.65, -28.48 -178.1 M1.28 -0.28 C10.21 -7.04, 44.43 -19.16, 52.89 -42.3 C61.35 -65.44, 65.5 -116.71, 52.02 -139.12 C38.54 -161.53, -14.21 -170.2, -27.98 -176.76" stroke="#000000" stroke-width="1" fill="none"></path></g><g transform="translate(383.64985074358646 537.2652640393836) rotate(0 16.74901218151993 -88.79782915896169)"><path d="M-29.82 -178.31 L-13.59 -179.88 L-17.17 -166.26 L-26.79 -176.76" stroke="none" stroke-width="0" fill="#000000" fill-rule="evenodd"></path><path d="M-27.35 -177.15 C-23.05 -177.4, -21.18 -177.04, -12.53 -178.73 M-27.4 -176.54 C-24.1 -177.77, -19.04 -177.99, -12.54 -177.92 M-13.04 -178.66 C-14.41 -175.06, -15.05 -171.24, -15.9 -167.29 M-13.39 -178.35 C-14.17 -174.71, -15.33 -170.5, -16.46 -166.94 M-17.72 -167.67 C-21.78 -170.57, -23.21 -174.43, -27.54 -176.88 M-16.71 -166.05 C-20.97 -170.63, -26.29 -174.81, -28.57 -176.17 M-27.98 -176.76 C-27.98 -176.76, -27.98 -176.76, -27.98 -176.76 M-27.98 -176.76 C-27.98 -176.76, -27.98 -176.76, -27.98 -176.76" stroke="#000000" stroke-width="1" fill="none"></path></g></g><mask></mask><g stroke-linecap="round"><g transform="translate(227.05610795067682 356.4799644974749) rotate(0 -28.47301009073726 88.24202815185969)"><path d="M-0.71 0.91 C-10.28 6.13, -47.95 9.33, -57.47 32.44 C-66.99 55.55, -68.79 115.64, -57.82 139.59 C-46.84 163.54, -2.63 170.36, 8.4 176.14 M1.12 0.34 C-8.53 6.22, -48.57 10.71, -57.98 33.6 C-67.39 56.5, -65.94 114.29, -55.35 137.69 C-44.76 161.09, -4.92 167.92, 5.55 173.98" stroke="#000000" stroke-width="1" fill="none"></path></g><g transform="translate(227.05610795067682 356.4799644974749) rotate(0 -28.47301009073726 88.24202815185969)"><path d="M6.01 173.17 L-9.41 173.18 L-5.11 161.53 L3.81 175.13" stroke="none" stroke-width="0" fill="#000000" fill-rule="evenodd"></path><path d="M6.69 175.03 C0.24 173.17, -2.23 175.82, -8.48 176.33 M6.04 174.21 C2.53 174.64, -0.8 174.86, -10 174.63 M-9.35 175.05 C-8.43 172.24, -6.81 169.7, -4.06 162.11 M-8.9 175.01 C-7.81 171.19, -5.7 165.92, -5.02 163.43 M-4.15 162.07 C-2.72 167.31, 2.04 171.36, 4.92 172.85 M-4.44 162.63 C-1 167.6, 2.87 170.76, 5.93 173.6 M5.55 173.98 C5.55 173.98, 5.55 173.98, 5.55 173.98 M5.55 173.98 C5.55 173.98, 5.55 173.98, 5.55 173.98" stroke="#000000" stroke-width="1" fill="none"></path></g></g><mask></mask></svg>
