<svg version="1.1" xmlns="http://www.w3.org/2000/svg" viewBox="0 0 1028.6680297721969 357.2988310460544" width="1028.6680297721969" height="357.2988310460544">
  <!-- svg-source:excalidraw -->

  <defs>
    <style>
      <!-- svg { -->
      <!--   color: #f9f5d7; -->
      <!--   fill: #1d2021; -->
      <!-- } -->
      <!-- @media (prefers-color-scheme: light) { -->
        svg {
          color: #1d2021;
          <!-- fill: #f9f5d7; -->
          fill: #fcfcfc;
        }
      <!-- } -->
    </style>
  </defs>
  <rect x="0" y="0" width="1028.6680297721969" height="357.2988310460544" fill="fill"></rect><g transform="translate(67.430393237531 69.59573647124631) rotate(357.1915199662063 -41.69128801573822 51.82393466380128)" stroke="none" fill="currentColor"><path d="M -25.93,2.63 Q -25.93,2.63 -26.90,2.66 -27.87,2.70 -29.13,2.77 -30.40,2.84 -31.80,2.92 -33.20,3.01 -34.40,3.08 -35.61,3.15 -36.24,4.53 -36.87,5.91 -37.08,7.21 -37.30,8.50 -37.66,10.30 -38.02,12.10 -38.13,13.16 -38.23,14.22 -38.41,15.65 -38.59,17.08 -38.82,18.25 -39.06,19.43 -39.07,20.56 -39.08,21.70 -39.26,23.19 -39.43,24.68 -39.53,25.80 -39.63,26.92 -39.71,28.06 -39.80,29.21 -39.90,30.31 -39.99,31.41 -39.99,32.48 -39.99,33.55 -39.98,34.69 -39.98,35.83 -39.97,37.05 -39.96,38.28 -40.15,39.90 -40.35,41.52 -40.61,42.82 -40.88,44.13 -41.33,45.09 -41.79,46.06 -42.51,47.06 -43.23,48.07 -43.96,48.94 -44.69,49.82 -45.58,50.45 -46.46,51.07 -47.94,51.87 -49.42,52.67 -50.41,53.05 -51.41,53.44 -52.69,53.96 -53.97,54.49 -54.45,51.90 -54.92,49.31 -55.85,48.68 -56.79,48.06 -55.22,48.59 -53.65,49.12 -52.55,49.62 -51.44,50.12 -50.48,50.70 -49.52,51.28 -48.59,51.87 -47.66,52.46 -46.44,53.41 -45.21,54.36 -44.16,55.10 -43.11,55.85 -42.13,56.98 -41.16,58.10 -40.99,59.27 -40.81,60.43 -41.02,61.56 -41.22,62.69 -41.28,63.79 -41.33,64.89 -41.52,66.30 -41.70,67.71 -41.80,68.78 -41.90,69.85 -42.00,71.06 -42.10,72.28 -42.10,73.38 -42.11,74.48 -42.20,75.66 -42.29,76.84 -42.41,78.17 -42.53,79.50 -42.50,80.73 -42.48,81.96 -42.58,83.08 -42.67,84.21 -42.67,85.30 -42.67,86.38 -42.68,87.68 -42.68,88.97 -42.68,90.14 -42.68,91.32 -42.68,92.52 -42.68,93.71 -42.68,94.80 -42.68,95.90 -42.68,96.96 -42.67,98.03 -41.61,98.42 -40.55,98.81 -39.09,98.99 -37.62,99.17 -36.18,99.40 -34.74,99.63 -33.42,99.63 -32.10,99.62 -29.86,99.70 -27.63,99.78 -27.01,99.88 -26.39,99.99 -25.84,100.28 -25.29,100.57 -24.86,101.03 -24.43,101.48 -24.17,102.05 -23.91,102.62 -23.85,103.24 -23.78,103.86 -23.92,104.47 -24.05,105.08 -24.38,105.62 -24.70,106.15 -25.18,106.56 -25.66,106.96 -26.24,107.19 -26.82,107.42 -27.44,107.45 -28.07,107.48 -28.67,107.31 -29.27,107.14 -29.79,106.79 -30.30,106.44 -30.68,105.94 -31.06,105.44 -31.26,104.85 -31.45,104.25 -31.45,103.63 -31.45,103.00 -31.25,102.41 -31.05,101.82 -30.67,101.32 -30.29,100.83 -29.77,100.48 -29.25,100.13 -28.65,99.97 -28.04,99.80 -27.42,99.84 -26.79,99.87 -26.21,100.11 -25.63,100.34 -25.16,100.75 -24.68,101.15 -24.36,101.69 -24.04,102.23 -23.91,102.84 -23.78,103.45 -23.85,104.07 -23.92,104.69 -24.18,105.26 -24.45,105.82 -24.88,106.27 -25.31,106.73 -25.86,107.02 -26.42,107.31 -27.03,107.41 -27.65,107.51 -27.65,107.51 -27.65,107.51 -29.88,107.43 -32.10,107.35 -33.44,107.34 -34.78,107.33 -36.02,107.21 -37.26,107.10 -38.40,106.91 -39.54,106.73 -40.67,106.54 -41.80,106.36 -42.87,106.07 -43.93,105.77 -45.15,105.34 -46.36,104.90 -47.25,104.31 -48.15,103.72 -49.16,102.38 -50.17,101.03 -50.31,99.53 -50.45,98.03 -50.45,96.96 -50.45,95.90 -50.45,94.80 -50.45,93.71 -50.45,92.52 -50.45,91.32 -50.45,90.14 -50.45,88.97 -50.45,87.68 -50.45,86.38 -50.45,85.27 -50.45,84.16 -50.35,83.04 -50.26,81.91 -50.26,80.80 -50.25,79.68 -50.16,78.44 -50.06,77.21 -49.96,76.04 -49.86,74.87 -49.86,73.78 -49.86,72.69 -49.77,71.46 -49.67,70.23 -49.57,69.04 -49.46,67.85 -49.35,66.70 -49.24,65.56 -49.07,64.22 -48.91,62.89 -48.72,61.62 -48.53,60.34 -47.69,61.44 -46.85,62.54 -47.81,61.89 -48.77,61.24 -49.80,60.53 -50.82,59.81 -51.84,59.07 -52.86,58.33 -54.19,57.52 -55.53,56.71 -56.70,56.24 -57.88,55.76 -58.87,55.09 -59.86,54.41 -59.04,51.15 -58.21,47.89 -57.03,47.42 -55.84,46.94 -54.66,46.41 -53.47,45.88 -52.38,45.33 -51.28,44.77 -50.39,44.18 -49.51,43.59 -48.86,42.72 -48.21,41.85 -47.98,40.55 -47.74,39.26 -47.66,37.93 -47.58,36.61 -47.57,35.40 -47.57,34.19 -47.56,33.02 -47.55,31.85 -47.44,30.43 -47.34,29.00 -47.24,27.94 -47.14,26.87 -47.02,25.68 -46.91,24.50 -46.76,23.02 -46.62,21.55 -46.51,20.33 -46.40,19.11 -46.19,17.77 -45.98,16.43 -45.80,15.26 -45.62,14.08 -45.45,12.66 -45.29,11.23 -45.02,9.83 -44.75,8.42 -44.40,7.41 -44.05,6.40 -43.79,5.18 -43.52,3.96 -43.25,2.91 -42.98,1.87 -42.63,0.73 -42.28,-0.40 -41.48,-1.30 -40.67,-2.21 -39.30,-2.63 -37.93,-3.04 -36.77,-3.09 -35.61,-3.15 -34.40,-3.08 -33.20,-3.01 -31.80,-2.92 -30.40,-2.84 -29.13,-2.77 -27.87,-2.70 -26.90,-2.66 -25.93,-2.63 -25.61,-2.59 -25.30,-2.55 -25.00,-2.44 -24.70,-2.33 -24.44,-2.15 -24.18,-1.97 -23.97,-1.73 -23.76,-1.49 -23.61,-1.21 -23.46,-0.93 -23.39,-0.62 -23.31,-0.31 -23.31,0.00 -23.31,0.31 -23.39,0.62 -23.46,0.93 -23.61,1.21 -23.76,1.49 -23.97,1.73 -24.18,1.97 -24.44,2.15 -24.70,2.33 -25.00,2.44 -25.30,2.55 -25.61,2.59 -25.93,2.63 -25.93,2.63 L -25.93,2.63 Z"></path></g><g transform="translate(278.08725930208584 69.92825800868485) rotate(175.41045389689123 -41.69128801573822 51.82393466380128)" stroke="none" fill="currentColor"><path d="M -25.93,2.63 Q -25.93,2.63 -26.90,2.66 -27.87,2.70 -29.13,2.77 -30.40,2.84 -31.80,2.92 -33.20,3.01 -34.40,3.08 -35.61,3.15 -36.24,4.53 -36.87,5.91 -37.08,7.21 -37.30,8.50 -37.66,10.30 -38.02,12.10 -38.13,13.16 -38.23,14.22 -38.41,15.65 -38.59,17.08 -38.82,18.25 -39.06,19.43 -39.07,20.56 -39.08,21.70 -39.26,23.19 -39.43,24.68 -39.53,25.80 -39.63,26.92 -39.71,28.06 -39.80,29.21 -39.90,30.31 -39.99,31.41 -39.99,32.48 -39.99,33.55 -39.98,34.69 -39.98,35.83 -39.97,37.05 -39.96,38.28 -40.15,39.90 -40.35,41.52 -40.61,42.82 -40.88,44.13 -41.33,45.09 -41.79,46.06 -42.51,47.06 -43.23,48.07 -43.96,48.94 -44.69,49.82 -45.58,50.45 -46.46,51.07 -47.94,51.87 -49.42,52.67 -50.41,53.05 -51.41,53.44 -52.69,53.96 -53.97,54.49 -54.45,51.90 -54.92,49.31 -55.85,48.68 -56.79,48.06 -55.22,48.59 -53.65,49.12 -52.55,49.62 -51.44,50.12 -50.48,50.70 -49.52,51.28 -48.59,51.87 -47.66,52.46 -46.44,53.41 -45.21,54.36 -44.16,55.10 -43.11,55.85 -42.13,56.98 -41.16,58.10 -40.99,59.27 -40.81,60.43 -41.02,61.56 -41.22,62.69 -41.28,63.79 -41.33,64.89 -41.52,66.30 -41.70,67.71 -41.80,68.78 -41.90,69.85 -42.00,71.06 -42.10,72.28 -42.10,73.38 -42.11,74.48 -42.20,75.66 -42.29,76.84 -42.41,78.17 -42.53,79.50 -42.50,80.73 -42.48,81.96 -42.58,83.08 -42.67,84.21 -42.67,85.30 -42.67,86.38 -42.68,87.68 -42.68,88.97 -42.68,90.14 -42.68,91.32 -42.68,92.52 -42.68,93.71 -42.68,94.80 -42.68,95.90 -42.68,96.96 -42.67,98.03 -41.61,98.42 -40.55,98.81 -39.09,98.99 -37.62,99.17 -36.18,99.40 -34.74,99.63 -33.42,99.63 -32.10,99.62 -29.86,99.70 -27.63,99.78 -27.01,99.88 -26.39,99.99 -25.84,100.28 -25.29,100.57 -24.86,101.03 -24.43,101.48 -24.17,102.05 -23.91,102.62 -23.85,103.24 -23.78,103.86 -23.92,104.47 -24.05,105.08 -24.38,105.62 -24.70,106.15 -25.18,106.56 -25.66,106.96 -26.24,107.19 -26.82,107.42 -27.44,107.45 -28.07,107.48 -28.67,107.31 -29.27,107.14 -29.79,106.79 -30.30,106.44 -30.68,105.94 -31.06,105.44 -31.26,104.85 -31.45,104.25 -31.45,103.63 -31.45,103.00 -31.25,102.41 -31.05,101.82 -30.67,101.32 -30.29,100.83 -29.77,100.48 -29.25,100.13 -28.65,99.97 -28.04,99.80 -27.42,99.84 -26.79,99.87 -26.21,100.11 -25.63,100.34 -25.16,100.75 -24.68,101.15 -24.36,101.69 -24.04,102.23 -23.91,102.84 -23.78,103.45 -23.85,104.07 -23.92,104.69 -24.18,105.26 -24.45,105.82 -24.88,106.27 -25.31,106.73 -25.86,107.02 -26.42,107.31 -27.03,107.41 -27.65,107.51 -27.65,107.51 -27.65,107.51 -29.88,107.43 -32.10,107.35 -33.44,107.34 -34.78,107.33 -36.02,107.21 -37.26,107.10 -38.40,106.91 -39.54,106.73 -40.67,106.54 -41.80,106.36 -42.87,106.07 -43.93,105.77 -45.15,105.34 -46.36,104.90 -47.25,104.31 -48.15,103.72 -49.16,102.38 -50.17,101.03 -50.31,99.53 -50.45,98.03 -50.45,96.96 -50.45,95.90 -50.45,94.80 -50.45,93.71 -50.45,92.52 -50.45,91.32 -50.45,90.14 -50.45,88.97 -50.45,87.68 -50.45,86.38 -50.45,85.27 -50.45,84.16 -50.35,83.04 -50.26,81.91 -50.26,80.80 -50.25,79.68 -50.16,78.44 -50.06,77.21 -49.96,76.04 -49.86,74.87 -49.86,73.78 -49.86,72.69 -49.77,71.46 -49.67,70.23 -49.57,69.04 -49.46,67.85 -49.35,66.70 -49.24,65.56 -49.07,64.22 -48.91,62.89 -48.72,61.62 -48.53,60.34 -47.69,61.44 -46.85,62.54 -47.81,61.89 -48.77,61.24 -49.80,60.53 -50.82,59.81 -51.84,59.07 -52.86,58.33 -54.19,57.52 -55.53,56.71 -56.70,56.24 -57.88,55.76 -58.87,55.09 -59.86,54.41 -59.04,51.15 -58.21,47.89 -57.03,47.42 -55.84,46.94 -54.66,46.41 -53.47,45.88 -52.38,45.33 -51.28,44.77 -50.39,44.18 -49.51,43.59 -48.86,42.72 -48.21,41.85 -47.98,40.55 -47.74,39.26 -47.66,37.93 -47.58,36.61 -47.57,35.40 -47.57,34.19 -47.56,33.02 -47.55,31.85 -47.44,30.43 -47.34,29.00 -47.24,27.94 -47.14,26.87 -47.02,25.68 -46.91,24.50 -46.76,23.02 -46.62,21.55 -46.51,20.33 -46.40,19.11 -46.19,17.77 -45.98,16.43 -45.80,15.26 -45.62,14.08 -45.45,12.66 -45.29,11.23 -45.02,9.83 -44.75,8.42 -44.40,7.41 -44.05,6.40 -43.79,5.18 -43.52,3.96 -43.25,2.91 -42.98,1.87 -42.63,0.73 -42.28,-0.40 -41.48,-1.30 -40.67,-2.21 -39.30,-2.63 -37.93,-3.04 -36.77,-3.09 -35.61,-3.15 -34.40,-3.08 -33.20,-3.01 -31.80,-2.92 -30.40,-2.84 -29.13,-2.77 -27.87,-2.70 -26.90,-2.66 -25.93,-2.63 -25.61,-2.59 -25.30,-2.55 -25.00,-2.44 -24.70,-2.33 -24.44,-2.15 -24.18,-1.97 -23.97,-1.73 -23.76,-1.49 -23.61,-1.21 -23.46,-0.93 -23.39,-0.62 -23.31,-0.31 -23.31,0.00 -23.31,0.31 -23.39,0.62 -23.46,0.93 -23.61,1.21 -23.76,1.49 -23.97,1.73 -24.18,1.97 -24.44,2.15 -24.70,2.33 -25.00,2.44 -25.30,2.55 -25.61,2.59 -25.93,2.63 -25.93,2.63 L -25.93,2.63 Z"></path></g><g transform="translate(73.42707651037745 15.607540510951424) rotate(0 57 22.5)"><text x="0" y="32" font-family="Bradley Hand" font-size="36px" fill="currentColor" text-anchor="start" style="white-space: pre;" direction="ltr">Object</text></g><g transform="translate(64.06960693148903 129.1645787058311) rotate(0 69 17.5)"><text x="0" y="25" font-family="Bradley Hand" font-size="28px" fill="currentColor" text-anchor="start" style="white-space: pre;" direction="ltr">prototype:</text></g><g transform="translate(413.13869794136235 14.159303752054427) rotate(0 84 22.5)"><text x="0" y="32" font-family="Bradley Hand" font-size="36px" fill="currentColor" text-anchor="start" style="white-space: pre;" direction="ltr">prototype</text></g><g stroke-linecap="round" transform="translate(194.58804872389646 10) rotate(0 14.434773763020758 23.84656778971356)"><path d="M-1.54 1.94 C7.26 1.74, 15.24 1, 30.72 0.65 M0.06 -0.2 C10.31 0.58, 22.06 -0.02, 28.77 -0.48 M28.82 -1.16 C27.01 11.35, 30.06 20.05, 29.27 48.7 M29.3 -0.85 C28.36 9.63, 27.72 20, 29.45 47.72 M30.84 46 C19.2 48.28, 11.16 47.49, 0.04 47.66 M29.07 47.42 C21.7 47.67, 13.02 47.85, -0.88 48.1 M-1.56 46.78 C-0.64 37.51, 0.78 26.38, 0.46 1.34 M-0.21 47.01 C0.38 35.43, -0.42 22.76, -0.97 -0.55" stroke="currentColor" stroke-width="1" fill="none"></path></g><g transform="translate(200.08467144525048 16.892425537109318) rotate(0 8 17.5)"><text x="8" y="25" font-family="Bradley Hand" font-size="28px" fill="currentColor" text-anchor="middle" style="white-space: pre;" direction="ltr">F</text></g><g stroke-linecap="round"><g transform="translate(208.63064448127489 148.30470106336793) rotate(0 81.85022580349357 0.7285014839827397)"><path d="M1.16 0.03 C28.45 0.59, 136.42 1.95, 163.38 2.45 M0.32 -1 C27.56 -0.72, 135.93 0.2, 162.96 0.59" stroke="currentColor" stroke-width="1" fill="none"></path></g><g transform="translate(208.63064448127489 148.30470106336793) rotate(0 81.85022580349357 0.7285014839827397)"><path d="M163.94 -0.15 L147.54 4.96 L150.56 -4.68 L164.14 -0.96" stroke="none" stroke-width="0" fill="currentColor" fill-rule="evenodd"></path><path d="M163 1.83 C159.78 3.11, 156.82 4.6, 150.28 6.8 M162.77 1.1 C159.05 2.72, 153.64 4.39, 148.57 6.89 M148.07 7.82 C150.06 2.38, 149.66 -2.19, 148.4 -7.13 M149.27 6.29 C148.84 3.09, 149.68 0.43, 149.39 -6.26 M148.52 -5.35 C152.26 -4.21, 156.27 -2.58, 162.57 -0.24 M149.99 -5.84 C153.04 -3.94, 155.99 -2.1, 162.5 0.91 M162.96 0.59 C162.96 0.59, 162.96 0.59, 162.96 0.59 M162.96 0.59 C162.96 0.59, 162.96 0.59, 162.96 0.59" stroke="currentColor" stroke-width="1" fill="none"></path></g></g><g stroke-linecap="round"><g transform="translate(408.55575073110776 98.53825018016818) rotate(0 -76.35448312368283 2.288870709940511)"><path d="M0.03 1 C-25.16 1.49, -126.81 3.61, -152.05 4.1 M-1.41 0.48 C-26.63 1.12, -127.71 2.05, -152.74 2.27" stroke="currentColor" stroke-width="1" fill="none"></path></g><g transform="translate(408.55575073110776 98.53825018016818) rotate(0 -76.35448312368283 2.288870709940511)"><path d="M-153.48 0.51 L-141.02 -3.07 L-137.87 9.67 L-154.29 2.37" stroke="none" stroke-width="0" fill="currentColor" fill-rule="evenodd"></path><path d="M-151.49 2.88 C-149.09 2.22, -146.28 0.37, -139.19 -3.62 M-152.23 2.99 C-148.53 0.26, -144.81 -2.37, -139.1 -3.6 M-138.17 -3.48 C-138.84 -0.17, -138.57 2.32, -140.32 7.86 M-139.7 -4.63 C-139.79 0.53, -139.22 4.47, -139.45 8.16 M-138.53 7.88 C-144.52 5.96, -149.94 3.06, -153.57 1.77 M-139.03 8.47 C-143.25 5.93, -147.52 4.14, -152.42 2.21 M-152.74 2.27 C-152.74 2.27, -152.74 2.27, -152.74 2.27 M-152.74 2.27 C-152.74 2.27, -152.74 2.27, -152.74 2.27" stroke="currentColor" stroke-width="1" fill="none"></path></g></g><g transform="translate(833.9938766729861 84.4962302818663) rotate(357.1915199662063 -41.69128801573834 51.82393466380128)" stroke="none" fill="currentColor"><path d="M -25.93,2.63 Q -25.93,2.63 -26.90,2.66 -27.87,2.70 -29.13,2.77 -30.40,2.84 -31.80,2.92 -33.20,3.01 -34.40,3.08 -35.61,3.15 -36.24,4.53 -36.87,5.91 -37.08,7.21 -37.30,8.50 -37.66,10.30 -38.02,12.10 -38.13,13.16 -38.23,14.22 -38.41,15.65 -38.59,17.08 -38.82,18.25 -39.06,19.43 -39.07,20.56 -39.08,21.70 -39.26,23.19 -39.43,24.68 -39.53,25.80 -39.63,26.92 -39.71,28.06 -39.80,29.21 -39.90,30.31 -39.99,31.41 -39.99,32.48 -39.99,33.55 -39.98,34.69 -39.98,35.83 -39.97,37.05 -39.96,38.28 -40.15,39.90 -40.35,41.52 -40.61,42.82 -40.88,44.13 -41.33,45.09 -41.79,46.06 -42.51,47.06 -43.23,48.07 -43.96,48.94 -44.69,49.82 -45.58,50.45 -46.46,51.07 -47.94,51.87 -49.42,52.67 -50.41,53.05 -51.41,53.44 -52.69,53.96 -53.97,54.49 -54.45,51.90 -54.92,49.31 -55.85,48.68 -56.79,48.06 -55.22,48.59 -53.65,49.12 -52.55,49.62 -51.44,50.12 -50.48,50.70 -49.52,51.28 -48.59,51.87 -47.66,52.46 -46.44,53.41 -45.21,54.36 -44.16,55.10 -43.11,55.85 -42.13,56.98 -41.16,58.10 -40.99,59.27 -40.81,60.43 -41.02,61.56 -41.22,62.69 -41.28,63.79 -41.33,64.89 -41.52,66.30 -41.70,67.71 -41.80,68.78 -41.90,69.85 -42.00,71.06 -42.10,72.28 -42.10,73.38 -42.11,74.48 -42.20,75.66 -42.29,76.84 -42.41,78.17 -42.53,79.50 -42.50,80.73 -42.48,81.96 -42.58,83.08 -42.67,84.21 -42.67,85.30 -42.67,86.38 -42.68,87.68 -42.68,88.97 -42.68,90.14 -42.68,91.32 -42.68,92.52 -42.68,93.71 -42.68,94.80 -42.68,95.90 -42.68,96.96 -42.67,98.03 -41.61,98.42 -40.55,98.81 -39.09,98.99 -37.62,99.17 -36.18,99.40 -34.74,99.63 -33.42,99.63 -32.10,99.62 -29.86,99.70 -27.63,99.78 -27.01,99.88 -26.39,99.99 -25.84,100.28 -25.29,100.57 -24.86,101.03 -24.43,101.48 -24.17,102.05 -23.91,102.62 -23.85,103.24 -23.78,103.86 -23.92,104.47 -24.05,105.08 -24.38,105.62 -24.70,106.15 -25.18,106.56 -25.66,106.96 -26.24,107.19 -26.82,107.42 -27.44,107.45 -28.07,107.48 -28.67,107.31 -29.27,107.14 -29.79,106.79 -30.30,106.44 -30.68,105.94 -31.06,105.44 -31.26,104.85 -31.45,104.25 -31.45,103.63 -31.45,103.00 -31.25,102.41 -31.05,101.82 -30.67,101.32 -30.29,100.83 -29.77,100.48 -29.25,100.13 -28.65,99.97 -28.04,99.80 -27.42,99.84 -26.79,99.87 -26.21,100.11 -25.63,100.34 -25.16,100.75 -24.68,101.15 -24.36,101.69 -24.04,102.23 -23.91,102.84 -23.78,103.45 -23.85,104.07 -23.92,104.69 -24.18,105.26 -24.45,105.82 -24.88,106.27 -25.31,106.73 -25.86,107.02 -26.42,107.31 -27.03,107.41 -27.65,107.51 -27.65,107.51 -27.65,107.51 -29.88,107.43 -32.10,107.35 -33.44,107.34 -34.78,107.33 -36.02,107.21 -37.26,107.10 -38.40,106.91 -39.54,106.73 -40.67,106.54 -41.80,106.36 -42.87,106.07 -43.93,105.77 -45.15,105.34 -46.36,104.90 -47.25,104.31 -48.15,103.72 -49.16,102.38 -50.17,101.03 -50.31,99.53 -50.45,98.03 -50.45,96.96 -50.45,95.90 -50.45,94.80 -50.45,93.71 -50.45,92.52 -50.45,91.32 -50.45,90.14 -50.45,88.97 -50.45,87.68 -50.45,86.38 -50.45,85.27 -50.45,84.16 -50.35,83.04 -50.26,81.91 -50.26,80.80 -50.25,79.68 -50.16,78.44 -50.06,77.21 -49.96,76.04 -49.86,74.87 -49.86,73.78 -49.86,72.69 -49.77,71.46 -49.67,70.23 -49.57,69.04 -49.46,67.85 -49.35,66.70 -49.24,65.56 -49.07,64.22 -48.91,62.89 -48.72,61.62 -48.53,60.34 -47.69,61.44 -46.85,62.54 -47.81,61.89 -48.77,61.24 -49.80,60.53 -50.82,59.81 -51.84,59.07 -52.86,58.33 -54.19,57.52 -55.53,56.71 -56.70,56.24 -57.88,55.76 -58.87,55.09 -59.86,54.41 -59.04,51.15 -58.21,47.89 -57.03,47.42 -55.84,46.94 -54.66,46.41 -53.47,45.88 -52.38,45.33 -51.28,44.77 -50.39,44.18 -49.51,43.59 -48.86,42.72 -48.21,41.85 -47.98,40.55 -47.74,39.26 -47.66,37.93 -47.58,36.61 -47.57,35.40 -47.57,34.19 -47.56,33.02 -47.55,31.85 -47.44,30.43 -47.34,29.00 -47.24,27.94 -47.14,26.87 -47.02,25.68 -46.91,24.50 -46.76,23.02 -46.62,21.55 -46.51,20.33 -46.40,19.11 -46.19,17.77 -45.98,16.43 -45.80,15.26 -45.62,14.08 -45.45,12.66 -45.29,11.23 -45.02,9.83 -44.75,8.42 -44.40,7.41 -44.05,6.40 -43.79,5.18 -43.52,3.96 -43.25,2.91 -42.98,1.87 -42.63,0.73 -42.28,-0.40 -41.48,-1.30 -40.67,-2.21 -39.30,-2.63 -37.93,-3.04 -36.77,-3.09 -35.61,-3.15 -34.40,-3.08 -33.20,-3.01 -31.80,-2.92 -30.40,-2.84 -29.13,-2.77 -27.87,-2.70 -26.90,-2.66 -25.93,-2.63 -25.61,-2.59 -25.30,-2.55 -25.00,-2.44 -24.70,-2.33 -24.44,-2.15 -24.18,-1.97 -23.97,-1.73 -23.76,-1.49 -23.61,-1.21 -23.46,-0.93 -23.39,-0.62 -23.31,-0.31 -23.31,0.00 -23.31,0.31 -23.39,0.62 -23.46,0.93 -23.61,1.21 -23.76,1.49 -23.97,1.73 -24.18,1.97 -24.44,2.15 -24.70,2.33 -25.00,2.44 -25.30,2.55 -25.61,2.59 -25.93,2.63 -25.93,2.63 L -25.93,2.63 Z"></path></g><g transform="translate(1044.6507427375413 84.82875181930484) rotate(175.41045389689123 -41.69128801573834 51.82393466380128)" stroke="none" fill="currentColor"><path d="M -25.93,2.63 Q -25.93,2.63 -26.90,2.66 -27.87,2.70 -29.13,2.77 -30.40,2.84 -31.80,2.92 -33.20,3.01 -34.40,3.08 -35.61,3.15 -36.24,4.53 -36.87,5.91 -37.08,7.21 -37.30,8.50 -37.66,10.30 -38.02,12.10 -38.13,13.16 -38.23,14.22 -38.41,15.65 -38.59,17.08 -38.82,18.25 -39.06,19.43 -39.07,20.56 -39.08,21.70 -39.26,23.19 -39.43,24.68 -39.53,25.80 -39.63,26.92 -39.71,28.06 -39.80,29.21 -39.90,30.31 -39.99,31.41 -39.99,32.48 -39.99,33.55 -39.98,34.69 -39.98,35.83 -39.97,37.05 -39.96,38.28 -40.15,39.90 -40.35,41.52 -40.61,42.82 -40.88,44.13 -41.33,45.09 -41.79,46.06 -42.51,47.06 -43.23,48.07 -43.96,48.94 -44.69,49.82 -45.58,50.45 -46.46,51.07 -47.94,51.87 -49.42,52.67 -50.41,53.05 -51.41,53.44 -52.69,53.96 -53.97,54.49 -54.45,51.90 -54.92,49.31 -55.85,48.68 -56.79,48.06 -55.22,48.59 -53.65,49.12 -52.55,49.62 -51.44,50.12 -50.48,50.70 -49.52,51.28 -48.59,51.87 -47.66,52.46 -46.44,53.41 -45.21,54.36 -44.16,55.10 -43.11,55.85 -42.13,56.98 -41.16,58.10 -40.99,59.27 -40.81,60.43 -41.02,61.56 -41.22,62.69 -41.28,63.79 -41.33,64.89 -41.52,66.30 -41.70,67.71 -41.80,68.78 -41.90,69.85 -42.00,71.06 -42.10,72.28 -42.10,73.38 -42.11,74.48 -42.20,75.66 -42.29,76.84 -42.41,78.17 -42.53,79.50 -42.50,80.73 -42.48,81.96 -42.58,83.08 -42.67,84.21 -42.67,85.30 -42.67,86.38 -42.68,87.68 -42.68,88.97 -42.68,90.14 -42.68,91.32 -42.68,92.52 -42.68,93.71 -42.68,94.80 -42.68,95.90 -42.68,96.96 -42.67,98.03 -41.61,98.42 -40.55,98.81 -39.09,98.99 -37.62,99.17 -36.18,99.40 -34.74,99.63 -33.42,99.63 -32.10,99.62 -29.86,99.70 -27.63,99.78 -27.01,99.88 -26.39,99.99 -25.84,100.28 -25.29,100.57 -24.86,101.03 -24.43,101.48 -24.17,102.05 -23.91,102.62 -23.85,103.24 -23.78,103.86 -23.92,104.47 -24.05,105.08 -24.38,105.62 -24.70,106.15 -25.18,106.56 -25.66,106.96 -26.24,107.19 -26.82,107.42 -27.44,107.45 -28.07,107.48 -28.67,107.31 -29.27,107.14 -29.79,106.79 -30.30,106.44 -30.68,105.94 -31.06,105.44 -31.26,104.85 -31.45,104.25 -31.45,103.63 -31.45,103.00 -31.25,102.41 -31.05,101.82 -30.67,101.32 -30.29,100.83 -29.77,100.48 -29.25,100.13 -28.65,99.97 -28.04,99.80 -27.42,99.84 -26.79,99.87 -26.21,100.11 -25.63,100.34 -25.16,100.75 -24.68,101.15 -24.36,101.69 -24.04,102.23 -23.91,102.84 -23.78,103.45 -23.85,104.07 -23.92,104.69 -24.18,105.26 -24.45,105.82 -24.88,106.27 -25.31,106.73 -25.86,107.02 -26.42,107.31 -27.03,107.41 -27.65,107.51 -27.65,107.51 -27.65,107.51 -29.88,107.43 -32.10,107.35 -33.44,107.34 -34.78,107.33 -36.02,107.21 -37.26,107.10 -38.40,106.91 -39.54,106.73 -40.67,106.54 -41.80,106.36 -42.87,106.07 -43.93,105.77 -45.15,105.34 -46.36,104.90 -47.25,104.31 -48.15,103.72 -49.16,102.38 -50.17,101.03 -50.31,99.53 -50.45,98.03 -50.45,96.96 -50.45,95.90 -50.45,94.80 -50.45,93.71 -50.45,92.52 -50.45,91.32 -50.45,90.14 -50.45,88.97 -50.45,87.68 -50.45,86.38 -50.45,85.27 -50.45,84.16 -50.35,83.04 -50.26,81.91 -50.26,80.80 -50.25,79.68 -50.16,78.44 -50.06,77.21 -49.96,76.04 -49.86,74.87 -49.86,73.78 -49.86,72.69 -49.77,71.46 -49.67,70.23 -49.57,69.04 -49.46,67.85 -49.35,66.70 -49.24,65.56 -49.07,64.22 -48.91,62.89 -48.72,61.62 -48.53,60.34 -47.69,61.44 -46.85,62.54 -47.81,61.89 -48.77,61.24 -49.80,60.53 -50.82,59.81 -51.84,59.07 -52.86,58.33 -54.19,57.52 -55.53,56.71 -56.70,56.24 -57.88,55.76 -58.87,55.09 -59.86,54.41 -59.04,51.15 -58.21,47.89 -57.03,47.42 -55.84,46.94 -54.66,46.41 -53.47,45.88 -52.38,45.33 -51.28,44.77 -50.39,44.18 -49.51,43.59 -48.86,42.72 -48.21,41.85 -47.98,40.55 -47.74,39.26 -47.66,37.93 -47.58,36.61 -47.57,35.40 -47.57,34.19 -47.56,33.02 -47.55,31.85 -47.44,30.43 -47.34,29.00 -47.24,27.94 -47.14,26.87 -47.02,25.68 -46.91,24.50 -46.76,23.02 -46.62,21.55 -46.51,20.33 -46.40,19.11 -46.19,17.77 -45.98,16.43 -45.80,15.26 -45.62,14.08 -45.45,12.66 -45.29,11.23 -45.02,9.83 -44.75,8.42 -44.40,7.41 -44.05,6.40 -43.79,5.18 -43.52,3.96 -43.25,2.91 -42.98,1.87 -42.63,0.73 -42.28,-0.40 -41.48,-1.30 -40.67,-2.21 -39.30,-2.63 -37.93,-3.04 -36.77,-3.09 -35.61,-3.15 -34.40,-3.08 -33.20,-3.01 -31.80,-2.92 -30.40,-2.84 -29.13,-2.77 -27.87,-2.70 -26.90,-2.66 -25.93,-2.63 -25.61,-2.59 -25.30,-2.55 -25.00,-2.44 -24.70,-2.33 -24.44,-2.15 -24.18,-1.97 -23.97,-1.73 -23.76,-1.49 -23.61,-1.21 -23.46,-0.93 -23.39,-0.62 -23.31,-0.31 -23.31,0.00 -23.31,0.31 -23.39,0.62 -23.46,0.93 -23.61,1.21 -23.76,1.49 -23.97,1.73 -24.18,1.97 -24.44,2.15 -24.70,2.33 -25.00,2.44 -25.30,2.55 -25.61,2.59 -25.93,2.63 -25.93,2.63 L -25.93,2.63 Z"></path></g><g transform="translate(806.9950559702424 131.50547217077894) rotate(0 86 17.5)"><text x="0" y="25" font-family="Bradley Hand" font-size="28px" fill="currentColor" text-anchor="start" style="white-space: pre;" direction="ltr">:__proto__</text></g><g stroke-linecap="round"><g transform="translate(805.072585595271 152.1805703151694) rotate(0 -87.35686413050166 1.0669662310172043)"><path d="M1.11 0.39 C-28.18 0.47, -145.84 0.92, -175.29 1.04 M0.24 -0.45 C-29.19 -0.21, -146.43 2.1, -175.83 2.58" stroke="currentColor" stroke-width="1" fill="none"></path></g><g transform="translate(805.072585595271 152.1805703151694) rotate(0 -87.35686413050166 1.0669662310172043)"><path d="M-174.6 3.77 L-163.9 -3.9 L-160.6 10.01 L-173.86 4.29" stroke="none" stroke-width="0" fill="currentColor" fill-rule="evenodd"></path><path d="M-175.34 3.57 C-171.24 0.79, -166.58 -2.33, -162.72 -2.97 M-176.19 1.86 C-170.39 0.58, -165.19 -3.04, -163.07 -3.39 M-161.71 -5.04 C-163.46 -0.11, -161.59 3.95, -162.18 7.69 M-162.33 -4.05 C-162.76 -1.39, -161.72 1.33, -162.51 8.91 M-162.14 8.29 C-166.5 6.6, -168.92 5.11, -174.71 2.69 M-161.82 8.21 C-165.9 6.67, -170.9 4.57, -175.99 3.03 M-175.83 2.58 C-175.83 2.58, -175.83 2.58, -175.83 2.58 M-175.83 2.58 C-175.83 2.58, -175.83 2.58, -175.83 2.58" stroke="currentColor" stroke-width="1" fill="none"></path></g></g><g transform="translate(809.0793667252251 242.22383766737232) rotate(357.1915199662063 -41.69128801573834 51.82393466380131)" stroke="none" fill="currentColor"><path d="M -25.93,2.63 Q -25.93,2.63 -26.90,2.66 -27.87,2.70 -29.13,2.77 -30.40,2.84 -31.80,2.92 -33.20,3.01 -34.40,3.08 -35.61,3.15 -36.24,4.53 -36.87,5.91 -37.08,7.21 -37.30,8.50 -37.66,10.30 -38.02,12.10 -38.13,13.16 -38.23,14.22 -38.41,15.65 -38.59,17.08 -38.82,18.25 -39.06,19.43 -39.07,20.56 -39.08,21.70 -39.26,23.19 -39.43,24.68 -39.53,25.80 -39.63,26.92 -39.71,28.06 -39.80,29.21 -39.90,30.31 -39.99,31.41 -39.99,32.48 -39.99,33.55 -39.98,34.69 -39.98,35.83 -39.97,37.05 -39.96,38.28 -40.15,39.90 -40.35,41.52 -40.61,42.82 -40.88,44.13 -41.33,45.09 -41.79,46.06 -42.51,47.06 -43.23,48.07 -43.96,48.94 -44.69,49.82 -45.58,50.45 -46.46,51.07 -47.94,51.87 -49.42,52.67 -50.41,53.05 -51.41,53.44 -52.69,53.96 -53.97,54.49 -54.45,51.90 -54.92,49.31 -55.85,48.68 -56.79,48.06 -55.22,48.59 -53.65,49.12 -52.55,49.62 -51.44,50.12 -50.48,50.70 -49.52,51.28 -48.59,51.87 -47.66,52.46 -46.44,53.41 -45.21,54.36 -44.16,55.10 -43.11,55.85 -42.13,56.98 -41.16,58.10 -40.99,59.27 -40.81,60.43 -41.02,61.56 -41.22,62.69 -41.28,63.79 -41.33,64.89 -41.52,66.30 -41.70,67.71 -41.80,68.78 -41.90,69.85 -42.00,71.06 -42.10,72.28 -42.10,73.38 -42.11,74.48 -42.20,75.66 -42.29,76.84 -42.41,78.17 -42.53,79.50 -42.50,80.73 -42.48,81.96 -42.58,83.08 -42.67,84.21 -42.67,85.30 -42.67,86.38 -42.68,87.68 -42.68,88.97 -42.68,90.14 -42.68,91.32 -42.68,92.52 -42.68,93.71 -42.68,94.80 -42.68,95.90 -42.68,96.96 -42.67,98.03 -41.61,98.42 -40.55,98.81 -39.09,98.99 -37.62,99.17 -36.18,99.40 -34.74,99.63 -33.42,99.63 -32.10,99.62 -29.86,99.70 -27.63,99.78 -27.01,99.88 -26.39,99.99 -25.84,100.28 -25.29,100.57 -24.86,101.03 -24.43,101.48 -24.17,102.05 -23.91,102.62 -23.85,103.24 -23.78,103.86 -23.92,104.47 -24.05,105.08 -24.38,105.62 -24.70,106.15 -25.18,106.56 -25.66,106.96 -26.24,107.19 -26.82,107.42 -27.44,107.45 -28.07,107.48 -28.67,107.31 -29.27,107.14 -29.79,106.79 -30.30,106.44 -30.68,105.94 -31.06,105.44 -31.26,104.85 -31.45,104.25 -31.45,103.63 -31.45,103.00 -31.25,102.41 -31.05,101.82 -30.67,101.32 -30.29,100.83 -29.77,100.48 -29.25,100.13 -28.65,99.97 -28.04,99.80 -27.42,99.84 -26.79,99.87 -26.21,100.11 -25.63,100.34 -25.16,100.75 -24.68,101.15 -24.36,101.69 -24.04,102.23 -23.91,102.84 -23.78,103.45 -23.85,104.07 -23.92,104.69 -24.18,105.26 -24.45,105.82 -24.88,106.27 -25.31,106.73 -25.86,107.02 -26.42,107.31 -27.03,107.41 -27.65,107.51 -27.65,107.51 -27.65,107.51 -29.88,107.43 -32.10,107.35 -33.44,107.34 -34.78,107.33 -36.02,107.21 -37.26,107.10 -38.40,106.91 -39.54,106.73 -40.67,106.54 -41.80,106.36 -42.87,106.07 -43.93,105.77 -45.15,105.34 -46.36,104.90 -47.25,104.31 -48.15,103.72 -49.16,102.38 -50.17,101.03 -50.31,99.53 -50.45,98.03 -50.45,96.96 -50.45,95.90 -50.45,94.80 -50.45,93.71 -50.45,92.52 -50.45,91.32 -50.45,90.14 -50.45,88.97 -50.45,87.68 -50.45,86.38 -50.45,85.27 -50.45,84.16 -50.35,83.04 -50.26,81.91 -50.26,80.80 -50.25,79.68 -50.16,78.44 -50.06,77.21 -49.96,76.04 -49.86,74.87 -49.86,73.78 -49.86,72.69 -49.77,71.46 -49.67,70.23 -49.57,69.04 -49.46,67.85 -49.35,66.70 -49.24,65.56 -49.07,64.22 -48.91,62.89 -48.72,61.62 -48.53,60.34 -47.69,61.44 -46.85,62.54 -47.81,61.89 -48.77,61.24 -49.80,60.53 -50.82,59.81 -51.84,59.07 -52.86,58.33 -54.19,57.52 -55.53,56.71 -56.70,56.24 -57.88,55.76 -58.87,55.09 -59.86,54.41 -59.04,51.15 -58.21,47.89 -57.03,47.42 -55.84,46.94 -54.66,46.41 -53.47,45.88 -52.38,45.33 -51.28,44.77 -50.39,44.18 -49.51,43.59 -48.86,42.72 -48.21,41.85 -47.98,40.55 -47.74,39.26 -47.66,37.93 -47.58,36.61 -47.57,35.40 -47.57,34.19 -47.56,33.02 -47.55,31.85 -47.44,30.43 -47.34,29.00 -47.24,27.94 -47.14,26.87 -47.02,25.68 -46.91,24.50 -46.76,23.02 -46.62,21.55 -46.51,20.33 -46.40,19.11 -46.19,17.77 -45.98,16.43 -45.80,15.26 -45.62,14.08 -45.45,12.66 -45.29,11.23 -45.02,9.83 -44.75,8.42 -44.40,7.41 -44.05,6.40 -43.79,5.18 -43.52,3.96 -43.25,2.91 -42.98,1.87 -42.63,0.73 -42.28,-0.40 -41.48,-1.30 -40.67,-2.21 -39.30,-2.63 -37.93,-3.04 -36.77,-3.09 -35.61,-3.15 -34.40,-3.08 -33.20,-3.01 -31.80,-2.92 -30.40,-2.84 -29.13,-2.77 -27.87,-2.70 -26.90,-2.66 -25.93,-2.63 -25.61,-2.59 -25.30,-2.55 -25.00,-2.44 -24.70,-2.33 -24.44,-2.15 -24.18,-1.97 -23.97,-1.73 -23.76,-1.49 -23.61,-1.21 -23.46,-0.93 -23.39,-0.62 -23.31,-0.31 -23.31,0.00 -23.31,0.31 -23.39,0.62 -23.46,0.93 -23.61,1.21 -23.76,1.49 -23.97,1.73 -24.18,1.97 -24.44,2.15 -24.70,2.33 -25.00,2.44 -25.30,2.55 -25.61,2.59 -25.93,2.63 -25.93,2.63 L -25.93,2.63 Z"></path></g><g transform="translate(1019.7362327897804 242.55635920481075) rotate(175.41045389689123 -41.69128801573834 51.82393466380131)" stroke="none" fill="currentColor"><path d="M -25.93,2.63 Q -25.93,2.63 -26.90,2.66 -27.87,2.70 -29.13,2.77 -30.40,2.84 -31.80,2.92 -33.20,3.01 -34.40,3.08 -35.61,3.15 -36.24,4.53 -36.87,5.91 -37.08,7.21 -37.30,8.50 -37.66,10.30 -38.02,12.10 -38.13,13.16 -38.23,14.22 -38.41,15.65 -38.59,17.08 -38.82,18.25 -39.06,19.43 -39.07,20.56 -39.08,21.70 -39.26,23.19 -39.43,24.68 -39.53,25.80 -39.63,26.92 -39.71,28.06 -39.80,29.21 -39.90,30.31 -39.99,31.41 -39.99,32.48 -39.99,33.55 -39.98,34.69 -39.98,35.83 -39.97,37.05 -39.96,38.28 -40.15,39.90 -40.35,41.52 -40.61,42.82 -40.88,44.13 -41.33,45.09 -41.79,46.06 -42.51,47.06 -43.23,48.07 -43.96,48.94 -44.69,49.82 -45.58,50.45 -46.46,51.07 -47.94,51.87 -49.42,52.67 -50.41,53.05 -51.41,53.44 -52.69,53.96 -53.97,54.49 -54.45,51.90 -54.92,49.31 -55.85,48.68 -56.79,48.06 -55.22,48.59 -53.65,49.12 -52.55,49.62 -51.44,50.12 -50.48,50.70 -49.52,51.28 -48.59,51.87 -47.66,52.46 -46.44,53.41 -45.21,54.36 -44.16,55.10 -43.11,55.85 -42.13,56.98 -41.16,58.10 -40.99,59.27 -40.81,60.43 -41.02,61.56 -41.22,62.69 -41.28,63.79 -41.33,64.89 -41.52,66.30 -41.70,67.71 -41.80,68.78 -41.90,69.85 -42.00,71.06 -42.10,72.28 -42.10,73.38 -42.11,74.48 -42.20,75.66 -42.29,76.84 -42.41,78.17 -42.53,79.50 -42.50,80.73 -42.48,81.96 -42.58,83.08 -42.67,84.21 -42.67,85.30 -42.67,86.38 -42.68,87.68 -42.68,88.97 -42.68,90.14 -42.68,91.32 -42.68,92.52 -42.68,93.71 -42.68,94.80 -42.68,95.90 -42.68,96.96 -42.67,98.03 -41.61,98.42 -40.55,98.81 -39.09,98.99 -37.62,99.17 -36.18,99.40 -34.74,99.63 -33.42,99.63 -32.10,99.62 -29.86,99.70 -27.63,99.78 -27.01,99.88 -26.39,99.99 -25.84,100.28 -25.29,100.57 -24.86,101.03 -24.43,101.48 -24.17,102.05 -23.91,102.62 -23.85,103.24 -23.78,103.86 -23.92,104.47 -24.05,105.08 -24.38,105.62 -24.70,106.15 -25.18,106.56 -25.66,106.96 -26.24,107.19 -26.82,107.42 -27.44,107.45 -28.07,107.48 -28.67,107.31 -29.27,107.14 -29.79,106.79 -30.30,106.44 -30.68,105.94 -31.06,105.44 -31.26,104.85 -31.45,104.25 -31.45,103.63 -31.45,103.00 -31.25,102.41 -31.05,101.82 -30.67,101.32 -30.29,100.83 -29.77,100.48 -29.25,100.13 -28.65,99.97 -28.04,99.80 -27.42,99.84 -26.79,99.87 -26.21,100.11 -25.63,100.34 -25.16,100.75 -24.68,101.15 -24.36,101.69 -24.04,102.23 -23.91,102.84 -23.78,103.45 -23.85,104.07 -23.92,104.69 -24.18,105.26 -24.45,105.82 -24.88,106.27 -25.31,106.73 -25.86,107.02 -26.42,107.31 -27.03,107.41 -27.65,107.51 -27.65,107.51 -27.65,107.51 -29.88,107.43 -32.10,107.35 -33.44,107.34 -34.78,107.33 -36.02,107.21 -37.26,107.10 -38.40,106.91 -39.54,106.73 -40.67,106.54 -41.80,106.36 -42.87,106.07 -43.93,105.77 -45.15,105.34 -46.36,104.90 -47.25,104.31 -48.15,103.72 -49.16,102.38 -50.17,101.03 -50.31,99.53 -50.45,98.03 -50.45,96.96 -50.45,95.90 -50.45,94.80 -50.45,93.71 -50.45,92.52 -50.45,91.32 -50.45,90.14 -50.45,88.97 -50.45,87.68 -50.45,86.38 -50.45,85.27 -50.45,84.16 -50.35,83.04 -50.26,81.91 -50.26,80.80 -50.25,79.68 -50.16,78.44 -50.06,77.21 -49.96,76.04 -49.86,74.87 -49.86,73.78 -49.86,72.69 -49.77,71.46 -49.67,70.23 -49.57,69.04 -49.46,67.85 -49.35,66.70 -49.24,65.56 -49.07,64.22 -48.91,62.89 -48.72,61.62 -48.53,60.34 -47.69,61.44 -46.85,62.54 -47.81,61.89 -48.77,61.24 -49.80,60.53 -50.82,59.81 -51.84,59.07 -52.86,58.33 -54.19,57.52 -55.53,56.71 -56.70,56.24 -57.88,55.76 -58.87,55.09 -59.86,54.41 -59.04,51.15 -58.21,47.89 -57.03,47.42 -55.84,46.94 -54.66,46.41 -53.47,45.88 -52.38,45.33 -51.28,44.77 -50.39,44.18 -49.51,43.59 -48.86,42.72 -48.21,41.85 -47.98,40.55 -47.74,39.26 -47.66,37.93 -47.58,36.61 -47.57,35.40 -47.57,34.19 -47.56,33.02 -47.55,31.85 -47.44,30.43 -47.34,29.00 -47.24,27.94 -47.14,26.87 -47.02,25.68 -46.91,24.50 -46.76,23.02 -46.62,21.55 -46.51,20.33 -46.40,19.11 -46.19,17.77 -45.98,16.43 -45.80,15.26 -45.62,14.08 -45.45,12.66 -45.29,11.23 -45.02,9.83 -44.75,8.42 -44.40,7.41 -44.05,6.40 -43.79,5.18 -43.52,3.96 -43.25,2.91 -42.98,1.87 -42.63,0.73 -42.28,-0.40 -41.48,-1.30 -40.67,-2.21 -39.30,-2.63 -37.93,-3.04 -36.77,-3.09 -35.61,-3.15 -34.40,-3.08 -33.20,-3.01 -31.80,-2.92 -30.40,-2.84 -29.13,-2.77 -27.87,-2.70 -26.90,-2.66 -25.93,-2.63 -25.61,-2.59 -25.30,-2.55 -25.00,-2.44 -24.70,-2.33 -24.44,-2.15 -24.18,-1.97 -23.97,-1.73 -23.76,-1.49 -23.61,-1.21 -23.46,-0.93 -23.39,-0.62 -23.31,-0.31 -23.31,0.00 -23.31,0.31 -23.39,0.62 -23.46,0.93 -23.61,1.21 -23.76,1.49 -23.97,1.73 -24.18,1.97 -24.44,2.15 -24.70,2.33 -25.00,2.44 -25.30,2.55 -25.61,2.59 -25.93,2.63 -25.93,2.63 L -25.93,2.63 Z"></path></g><g transform="translate(782.8942395988711 288.9803804460416) rotate(0 86 17.50000000000003)"><text x="0" y="25" font-family="Bradley Hand" font-size="28px" fill="currentColor" text-anchor="start" style="white-space: pre;" direction="ltr">:__proto__</text></g><g stroke-linecap="round"><g transform="translate(777.7323194322239 306.13297823886217) rotate(0 -74.04928528045707 -45.16925568436872)"><path d="M0.46 0.07 C-24.25 -15, -123.01 -75.57, -147.49 -90.41 M-0.75 -0.94 C-25.71 -15.83, -124.23 -74.07, -148.56 -89.03" stroke="currentColor" stroke-width="1" fill="none"></path></g><g transform="translate(777.7323194322239 306.13297823886217) rotate(0 -74.04928528045707 -45.16925568436872)"><path d="M-147.05 -87.69 L-131.68 -85.75 L-138.51 -77.51 L-149.4 -89.11" stroke="none" stroke-width="0" fill="currentColor" fill-rule="evenodd"></path><path d="M-148.48 -89.32 C-143.48 -87.48, -136.22 -87.81, -133.79 -88.18 M-148.58 -89.46 C-146.25 -88.21, -142.06 -88.27, -133.49 -87.08 M-133.09 -88.53 C-135.24 -86.1, -137.47 -83.77, -139.44 -76.56 M-133.02 -87.99 C-136 -84.07, -137.79 -81.15, -140.16 -76.6 M-139.87 -77 C-141.29 -79.92, -144.73 -83.06, -149.89 -88.42 M-140.76 -76.93 C-142.39 -79.12, -143.86 -81.99, -148.39 -88.52 M-148.56 -89.03 C-148.56 -89.03, -148.56 -89.03, -148.56 -89.03 M-148.56 -89.03 C-148.56 -89.03, -148.56 -89.03, -148.56 -89.03" stroke="currentColor" stroke-width="1" fill="none"></path></g></g><g transform="translate(802.0170222094507 20.070487854973067) rotate(0 98 17.5)"><text x="0" y="25" font-family="Bradley Hand" font-size="28px" fill="currentColor" text-anchor="start" style="white-space: pre;" direction="ltr">object literals</text></g><g transform="translate(412.5293409494652 87.00163584637778) rotate(0 93 90)"><text x="0" y="14" font-family="Bradley Hand" font-size="16px" fill="currentColor" text-anchor="start" style="white-space: pre;" direction="ltr">:constructor</text><text x="0" y="34" font-family="Bradley Hand" font-size="16px" fill="currentColor" text-anchor="start" style="white-space: pre;" direction="ltr">__proto__: null</text><text x="0" y="54" font-family="Bradley Hand" font-size="16px" fill="currentColor" text-anchor="start" style="white-space: pre;" direction="ltr">hasOwnProperty: ƒ</text><text x="0" y="74" font-family="Bradley Hand" font-size="16px" fill="currentColor" text-anchor="start" style="white-space: pre;" direction="ltr">isPrototypeOf: ƒ</text><text x="0" y="94" font-family="Bradley Hand" font-size="16px" fill="currentColor" text-anchor="start" style="white-space: pre;" direction="ltr">propertyIsEnumerable: ƒ</text><text x="0" y="114" font-family="Bradley Hand" font-size="16px" fill="currentColor" text-anchor="start" style="white-space: pre;" direction="ltr">toLocaleString: ƒ</text><text x="0" y="134" font-family="Bradley Hand" font-size="16px" fill="currentColor" text-anchor="start" style="white-space: pre;" direction="ltr">toString: ƒ</text><text x="0" y="154" font-family="Bradley Hand" font-size="16px" fill="currentColor" text-anchor="start" style="white-space: pre;" direction="ltr">valueOf: ƒ</text><text x="0" y="174" font-family="Bradley Hand" font-size="16px" fill="currentColor" text-anchor="start" style="white-space: pre;" direction="ltr">etc . . .</text></g><g transform="translate(411.78898450415136 78.55308170141296) rotate(0 -19.145914713541515 100.56859334309894)" stroke="none" fill="currentColor"><path d="M 0.00,2.65 Q 0.00,2.65 -1.07,2.68 -2.15,2.70 -3.36,2.77 -4.58,2.84 -6.18,2.93 -7.77,3.01 -9.09,3.20 -10.41,3.39 -11.49,3.58 -12.57,3.76 -13.83,4.68 -15.10,5.60 -15.59,6.98 -16.08,8.36 -16.49,9.64 -16.91,10.93 -17.45,12.74 -17.99,14.56 -17.99,16.13 -17.99,17.70 -17.97,18.98 -17.95,20.26 -17.94,21.39 -17.93,22.52 -17.93,23.89 -17.93,25.26 -17.93,26.44 -17.94,27.62 -18.08,28.68 -18.22,29.74 -18.23,30.86 -18.23,31.97 -18.42,33.49 -18.62,35.02 -18.57,36.23 -18.51,37.44 -18.53,38.89 -18.56,40.34 -18.57,41.51 -18.59,42.68 -18.58,43.86 -18.57,45.04 -18.57,46.30 -18.57,47.56 -18.56,48.67 -18.56,49.78 -18.55,50.97 -18.54,52.16 -18.53,53.27 -18.52,54.37 -18.52,55.64 -18.51,56.92 -18.51,58.13 -18.50,59.35 -18.50,60.49 -18.50,61.62 -18.50,62.76 -18.49,63.89 -18.49,65.11 -18.48,66.34 -18.76,68.12 -19.04,69.90 -19.80,71.62 -20.56,73.34 -21.14,74.24 -21.72,75.15 -22.41,76.32 -23.10,77.49 -24.02,78.57 -24.94,79.65 -26.17,80.39 -27.40,81.14 -28.11,82.06 -28.82,82.97 -29.98,83.61 -31.13,84.25 -32.01,84.85 -32.89,85.45 -34.14,86.24 -35.39,87.03 -34.99,86.51 -34.58,85.99 -34.83,86.39 -35.07,86.79 -35.40,87.12 -35.73,87.46 -36.13,87.70 -36.54,87.94 -36.98,88.08 -37.43,88.21 -37.90,88.24 -38.37,88.27 -38.83,88.18 -39.29,88.10 -39.71,87.91 -40.14,87.71 -40.51,87.42 -40.88,87.13 -41.16,86.76 -41.45,86.39 -41.64,85.97 -41.83,85.54 -41.92,85.08 -42.00,84.62 -41.97,84.15 -41.94,83.68 -41.80,83.24 -41.66,82.79 -39.07,81.84 -36.49,80.89 -35.18,81.29 -33.88,81.69 -32.62,82.68 -31.36,83.67 -30.48,84.71 -29.60,85.76 -28.71,87.00 -27.83,88.23 -27.21,89.32 -26.59,90.42 -26.00,91.62 -25.42,92.83 -24.84,94.46 -24.25,96.09 -24.04,97.26 -23.83,98.42 -23.56,99.68 -23.30,100.93 -23.09,102.04 -22.89,103.15 -22.74,104.25 -22.58,105.36 -22.57,106.63 -22.56,107.90 -22.26,109.16 -21.96,110.41 -21.93,111.49 -21.90,112.56 -21.80,114.19 -21.70,115.82 -21.68,116.99 -21.67,118.17 -21.67,119.28 -21.66,120.40 -21.66,121.80 -21.66,123.19 -21.66,124.41 -21.65,125.64 -21.66,127.05 -21.67,128.45 -21.68,129.59 -21.68,130.72 -21.68,131.89 -21.68,133.06 -21.67,134.27 -21.67,135.48 -21.66,136.66 -21.65,137.83 -21.65,139.03 -21.66,140.22 -21.66,141.29 -21.65,142.36 -21.65,143.54 -21.65,144.73 -21.65,145.81 -21.64,146.89 -21.65,148.27 -21.65,149.64 -21.66,151.04 -21.67,152.43 -21.67,153.54 -21.67,154.65 -21.67,156.04 -21.67,157.44 -21.67,158.57 -21.67,159.71 -21.67,160.97 -21.66,162.24 -21.81,163.52 -21.96,164.79 -22.19,166.46 -22.43,168.13 -22.50,169.36 -22.58,170.59 -22.78,171.92 -22.99,173.25 -22.94,174.42 -22.90,175.59 -23.05,176.83 -23.20,178.06 -23.21,179.14 -23.22,180.22 -23.22,181.40 -23.22,182.58 -23.21,183.66 -23.21,184.75 -23.20,185.88 -23.19,187.00 -23.19,188.14 -23.19,189.29 -22.93,190.57 -22.66,191.84 -21.23,192.30 -19.79,192.76 -18.35,193.78 -16.91,194.80 -16.02,195.55 -15.13,196.31 -13.98,196.88 -12.82,197.44 -12.27,197.73 -11.72,198.02 -11.29,198.47 -10.86,198.92 -10.60,199.48 -10.34,200.04 -10.27,200.66 -10.20,201.27 -10.33,201.88 -10.46,202.49 -10.78,203.02 -11.09,203.55 -11.57,203.96 -12.04,204.36 -12.61,204.59 -13.19,204.83 -13.81,204.86 -14.43,204.90 -15.03,204.74 -15.62,204.57 -16.14,204.23 -16.65,203.88 -17.03,203.39 -17.41,202.90 -17.61,202.31 -17.81,201.72 -17.82,201.10 -17.82,200.48 -17.62,199.89 -17.43,199.30 -17.05,198.81 -16.68,198.31 -16.17,197.96 -15.66,197.61 -15.06,197.44 -14.46,197.27 -13.84,197.30 -13.22,197.33 -12.64,197.56 -12.07,197.79 -11.59,198.19 -11.12,198.59 -10.79,199.12 -10.47,199.65 -10.34,200.25 -10.20,200.86 -10.26,201.48 -10.33,202.09 -10.59,202.66 -10.84,203.22 -11.27,203.67 -11.69,204.13 -12.24,204.42 -12.79,204.71 -13.40,204.82 -14.01,204.92 -14.63,204.82 -15.24,204.72 -15.24,204.72 -15.24,204.72 -17.34,203.69 -19.45,202.65 -20.44,201.92 -21.44,201.20 -22.19,200.44 -22.94,199.67 -24.01,198.96 -25.07,198.25 -26.40,197.43 -27.73,196.61 -28.62,195.68 -29.51,194.74 -30.00,193.46 -30.49,192.18 -30.67,190.73 -30.85,189.29 -30.85,187.90 -30.85,186.51 -30.85,185.34 -30.84,184.18 -30.83,182.87 -30.83,181.56 -30.83,180.46 -30.82,179.37 -30.77,178.20 -30.72,177.03 -30.62,175.94 -30.51,174.85 -30.48,173.59 -30.44,172.34 -30.28,171.09 -30.11,169.84 -29.96,168.44 -29.81,167.03 -29.69,165.82 -29.56,164.62 -29.41,163.41 -29.25,162.20 -29.25,160.95 -29.25,159.71 -29.25,158.57 -29.24,157.44 -29.24,156.04 -29.24,154.65 -29.25,153.54 -29.25,152.43 -29.26,151.04 -29.27,149.64 -29.27,148.27 -29.27,146.89 -29.27,145.81 -29.27,144.73 -29.27,143.54 -29.27,142.36 -29.26,141.29 -29.26,140.22 -29.26,139.03 -29.27,137.83 -29.26,136.66 -29.25,135.48 -29.24,134.27 -29.24,133.06 -29.24,131.89 -29.24,130.72 -29.24,129.59 -29.24,128.45 -29.25,127.05 -29.26,125.64 -29.26,124.41 -29.25,123.19 -29.25,121.80 -29.26,120.41 -29.26,119.34 -29.27,118.26 -29.33,116.82 -29.39,115.38 -29.52,113.98 -29.64,112.57 -29.65,111.36 -29.65,110.14 -29.95,108.81 -30.24,107.48 -30.26,106.30 -30.28,105.12 -30.57,103.74 -30.85,102.35 -31.15,100.57 -31.45,98.79 -31.87,97.59 -32.29,96.38 -32.78,95.23 -33.27,94.08 -33.89,92.96 -34.50,91.84 -35.24,90.96 -35.98,90.08 -36.64,89.21 -37.29,88.35 -38.44,88.16 -39.59,87.98 -37.09,86.99 -34.58,85.99 -34.83,86.39 -35.07,86.79 -35.40,87.12 -35.73,87.46 -36.13,87.70 -36.54,87.94 -36.98,88.08 -37.43,88.21 -37.90,88.24 -38.37,88.27 -38.83,88.18 -39.29,88.10 -39.71,87.91 -40.14,87.71 -40.51,87.42 -40.88,87.13 -41.16,86.76 -41.45,86.39 -41.64,85.97 -41.83,85.54 -41.92,85.08 -42.00,84.62 -41.97,84.15 -41.94,83.68 -41.80,83.24 -41.66,82.79 -40.62,81.93 -39.57,81.06 -38.31,80.27 -37.05,79.48 -36.01,78.60 -34.96,77.71 -33.86,76.99 -32.75,76.26 -32.02,75.45 -31.29,74.64 -30.35,73.78 -29.42,72.92 -28.55,71.89 -27.68,70.86 -27.07,69.83 -26.45,68.80 -26.32,67.57 -26.18,66.34 -26.18,65.11 -26.17,63.89 -26.16,62.76 -26.16,61.62 -26.16,60.49 -26.16,59.35 -26.15,58.13 -26.15,56.92 -26.14,55.64 -26.14,54.37 -26.13,53.27 -26.12,52.16 -26.11,50.97 -26.10,49.78 -26.10,48.67 -26.09,47.56 -26.09,46.30 -26.09,45.04 -26.08,43.86 -26.07,42.68 -26.09,41.51 -26.10,40.34 -26.13,38.62 -26.15,36.90 -26.13,35.65 -26.11,34.40 -25.96,33.01 -25.80,31.61 -25.78,30.49 -25.76,29.36 -25.62,28.10 -25.48,26.84 -25.48,25.69 -25.48,24.53 -25.48,23.31 -25.47,22.10 -25.46,20.91 -25.45,19.72 -25.43,18.62 -25.40,17.51 -25.25,16.42 -25.09,15.33 -25.03,14.06 -24.97,12.79 -24.62,11.46 -24.26,10.13 -23.78,8.66 -23.30,7.20 -22.78,6.11 -22.26,5.03 -21.83,4.05 -21.41,3.07 -20.66,2.14 -19.91,1.21 -18.90,0.24 -17.89,-0.72 -16.78,-1.38 -15.67,-2.04 -14.28,-2.47 -12.90,-2.89 -11.62,-2.87 -10.34,-2.85 -9.06,-2.93 -7.77,-3.01 -6.18,-2.93 -4.58,-2.84 -3.36,-2.77 -2.15,-2.70 -1.07,-2.68 -0.00,-2.65 0.31,-2.62 0.63,-2.58 0.93,-2.46 1.23,-2.35 1.49,-2.17 1.76,-1.99 1.97,-1.75 2.18,-1.51 2.33,-1.22 2.48,-0.94 2.56,-0.63 2.64,-0.32 2.64,0.00 2.64,0.32 2.56,0.63 2.48,0.94 2.33,1.22 2.18,1.51 1.97,1.75 1.76,1.99 1.49,2.17 1.23,2.35 0.93,2.46 0.63,2.58 0.31,2.62 -0.00,2.65 -0.00,2.65 L 0.00,2.65 Z"></path></g><g transform="translate(396.0372348296728 280.7020278277151) rotate(0 3.5980224609375 -0.15645345052087123)" stroke="none" fill="currentColor"><path d="M 0,-2.50 Q 0,-2.50 0.89,-2.55 1.79,-2.59 2.95,-2.70 4.11,-2.80 5.16,-3.06 6.21,-3.31 6.55,-3.34 6.90,-3.37 7.27,-3.33 7.64,-3.29 7.98,-3.17 8.33,-3.04 8.64,-2.84 8.95,-2.64 9.20,-2.36 9.45,-2.09 9.62,-1.77 9.80,-1.45 9.90,-1.09 9.99,-0.73 10.00,-0.36 10.01,-0.00 9.92,0.35 9.84,0.71 9.68,1.04 9.51,1.37 9.27,1.66 9.03,1.94 8.73,2.15 8.44,2.37 8.09,2.50 7.75,2.64 7.39,2.69 7.02,2.74 5.05,2.65 3.08,2.55 2.64,2.50 2.21,2.45 1.82,2.26 1.43,2.07 1.11,1.77 0.80,1.47 0.60,1.08 0.40,0.70 0.33,0.27 0.27,-0.15 0.34,-0.58 0.42,-1.01 0.62,-1.39 0.83,-1.77 1.15,-2.07 1.47,-2.37 1.87,-2.55 2.26,-2.72 2.69,-2.77 3.13,-2.81 3.55,-2.71 3.98,-2.62 4.35,-2.39 4.72,-2.16 4.99,-1.83 5.27,-1.49 5.43,-1.09 5.59,-0.68 5.61,-0.25 5.63,0.18 5.51,0.60 5.38,1.02 5.14,1.37 4.89,1.73 4.54,1.99 4.19,2.25 3.78,2.39 3.36,2.52 2.93,2.52 2.50,2.51 2.08,2.37 1.67,2.23 1.33,1.96 0.99,1.69 0.75,1.33 0.50,0.97 0.39,0.55 0.28,0.13 0.31,-0.30 0.34,-0.73 0.50,-1.13 0.67,-1.54 0.95,-1.86 1.24,-2.19 1.61,-2.41 1.99,-2.63 2.41,-2.72 2.84,-2.81 2.84,-2.81 2.84,-2.81 4.87,-3.09 6.90,-3.37 7.27,-3.33 7.64,-3.29 7.98,-3.17 8.33,-3.04 8.64,-2.84 8.95,-2.64 9.20,-2.36 9.45,-2.09 9.62,-1.77 9.80,-1.45 9.90,-1.09 9.99,-0.73 10.00,-0.36 10.01,-0.00 9.93,0.35 9.84,0.71 9.68,1.04 9.51,1.37 9.27,1.65 9.03,1.94 8.74,2.15 8.44,2.37 8.09,2.50 7.75,2.64 7.39,2.69 7.02,2.74 6.68,2.59 6.34,2.44 5.23,2.62 4.11,2.80 2.95,2.70 1.79,2.59 0.89,2.55 0,2.50 -0.29,2.47 -0.59,2.43 -0.88,2.32 -1.16,2.21 -1.41,2.04 -1.66,1.87 -1.86,1.65 -2.06,1.42 -2.20,1.15 -2.34,0.88 -2.41,0.59 -2.48,0.30 -2.48,-0.00 -2.48,-0.30 -2.41,-0.59 -2.34,-0.88 -2.20,-1.15 -2.06,-1.42 -1.86,-1.65 -1.66,-1.87 -1.41,-2.04 -1.16,-2.21 -0.88,-2.32 -0.59,-2.43 -0.29,-2.47 0.00,-2.50 0.00,-2.50 L 0,-2.50 Z"></path></g><g transform="translate(620.7228359581441 77.30723548287995) rotate(177.3028304084623 -19.145914713541515 100.56859334309894)" stroke="none" fill="currentColor"><path d="M 0.00,2.65 Q 0.00,2.65 -1.07,2.68 -2.15,2.70 -3.36,2.77 -4.58,2.84 -6.18,2.93 -7.77,3.01 -9.09,3.20 -10.41,3.39 -11.49,3.58 -12.57,3.76 -13.83,4.68 -15.10,5.60 -15.59,6.98 -16.08,8.36 -16.49,9.64 -16.91,10.93 -17.45,12.74 -17.99,14.56 -17.99,16.13 -17.99,17.70 -17.97,18.98 -17.95,20.26 -17.94,21.39 -17.93,22.52 -17.93,23.89 -17.93,25.26 -17.93,26.44 -17.94,27.62 -18.08,28.68 -18.22,29.74 -18.23,30.86 -18.23,31.97 -18.42,33.49 -18.62,35.02 -18.57,36.23 -18.51,37.44 -18.53,38.89 -18.56,40.34 -18.57,41.51 -18.59,42.68 -18.58,43.86 -18.57,45.04 -18.57,46.30 -18.57,47.56 -18.56,48.67 -18.56,49.78 -18.55,50.97 -18.54,52.16 -18.53,53.27 -18.52,54.37 -18.52,55.64 -18.51,56.92 -18.51,58.13 -18.50,59.35 -18.50,60.49 -18.50,61.62 -18.50,62.76 -18.49,63.89 -18.49,65.11 -18.48,66.34 -18.76,68.12 -19.04,69.90 -19.80,71.62 -20.56,73.34 -21.14,74.24 -21.72,75.15 -22.41,76.32 -23.10,77.49 -24.02,78.57 -24.94,79.65 -26.17,80.39 -27.40,81.14 -28.11,82.06 -28.82,82.97 -29.98,83.61 -31.13,84.25 -32.01,84.85 -32.89,85.45 -34.14,86.24 -35.39,87.03 -34.99,86.51 -34.58,85.99 -34.83,86.39 -35.07,86.79 -35.40,87.12 -35.73,87.46 -36.13,87.70 -36.54,87.94 -36.98,88.08 -37.43,88.21 -37.90,88.24 -38.37,88.27 -38.83,88.18 -39.29,88.10 -39.71,87.91 -40.14,87.71 -40.51,87.42 -40.88,87.13 -41.16,86.76 -41.45,86.39 -41.64,85.97 -41.83,85.54 -41.92,85.08 -42.00,84.62 -41.97,84.15 -41.94,83.68 -41.80,83.24 -41.66,82.79 -39.07,81.84 -36.49,80.89 -35.18,81.29 -33.88,81.69 -32.62,82.68 -31.36,83.67 -30.48,84.71 -29.60,85.76 -28.71,87.00 -27.83,88.23 -27.21,89.32 -26.59,90.42 -26.00,91.62 -25.42,92.83 -24.84,94.46 -24.25,96.09 -24.04,97.26 -23.83,98.42 -23.56,99.68 -23.30,100.93 -23.09,102.04 -22.89,103.15 -22.74,104.25 -22.58,105.36 -22.57,106.63 -22.56,107.90 -22.26,109.16 -21.96,110.41 -21.93,111.49 -21.90,112.56 -21.80,114.19 -21.70,115.82 -21.68,116.99 -21.67,118.17 -21.67,119.28 -21.66,120.40 -21.66,121.80 -21.66,123.19 -21.66,124.41 -21.65,125.64 -21.66,127.05 -21.67,128.45 -21.68,129.59 -21.68,130.72 -21.68,131.89 -21.68,133.06 -21.67,134.27 -21.67,135.48 -21.66,136.66 -21.65,137.83 -21.65,139.03 -21.66,140.22 -21.66,141.29 -21.65,142.36 -21.65,143.54 -21.65,144.73 -21.65,145.81 -21.64,146.89 -21.65,148.27 -21.65,149.64 -21.66,151.04 -21.67,152.43 -21.67,153.54 -21.67,154.65 -21.67,156.04 -21.67,157.44 -21.67,158.57 -21.67,159.71 -21.67,160.97 -21.66,162.24 -21.81,163.52 -21.96,164.79 -22.19,166.46 -22.43,168.13 -22.50,169.36 -22.58,170.59 -22.78,171.92 -22.99,173.25 -22.94,174.42 -22.90,175.59 -23.05,176.83 -23.20,178.06 -23.21,179.14 -23.22,180.22 -23.22,181.40 -23.22,182.58 -23.21,183.66 -23.21,184.75 -23.20,185.88 -23.19,187.00 -23.19,188.14 -23.19,189.29 -22.93,190.57 -22.66,191.84 -21.23,192.30 -19.79,192.76 -18.35,193.78 -16.91,194.80 -16.02,195.55 -15.13,196.31 -13.98,196.88 -12.82,197.44 -12.27,197.73 -11.72,198.02 -11.29,198.47 -10.86,198.92 -10.60,199.48 -10.34,200.04 -10.27,200.66 -10.20,201.27 -10.33,201.88 -10.46,202.49 -10.78,203.02 -11.09,203.55 -11.57,203.96 -12.04,204.36 -12.61,204.59 -13.19,204.83 -13.81,204.86 -14.43,204.90 -15.03,204.74 -15.62,204.57 -16.14,204.23 -16.65,203.88 -17.03,203.39 -17.41,202.90 -17.61,202.31 -17.81,201.72 -17.82,201.10 -17.82,200.48 -17.62,199.89 -17.43,199.30 -17.05,198.81 -16.68,198.31 -16.17,197.96 -15.66,197.61 -15.06,197.44 -14.46,197.27 -13.84,197.30 -13.22,197.33 -12.64,197.56 -12.07,197.79 -11.59,198.19 -11.12,198.59 -10.79,199.12 -10.47,199.65 -10.34,200.25 -10.20,200.86 -10.26,201.48 -10.33,202.09 -10.59,202.66 -10.84,203.22 -11.27,203.67 -11.69,204.13 -12.24,204.42 -12.79,204.71 -13.40,204.82 -14.01,204.92 -14.63,204.82 -15.24,204.72 -15.24,204.72 -15.24,204.72 -17.34,203.69 -19.45,202.65 -20.44,201.92 -21.44,201.20 -22.19,200.44 -22.94,199.67 -24.01,198.96 -25.07,198.25 -26.40,197.43 -27.73,196.61 -28.62,195.68 -29.51,194.74 -30.00,193.46 -30.49,192.18 -30.67,190.73 -30.85,189.29 -30.85,187.90 -30.85,186.51 -30.85,185.34 -30.84,184.18 -30.83,182.87 -30.83,181.56 -30.83,180.46 -30.82,179.37 -30.77,178.20 -30.72,177.03 -30.62,175.94 -30.51,174.85 -30.48,173.59 -30.44,172.34 -30.28,171.09 -30.11,169.84 -29.96,168.44 -29.81,167.03 -29.69,165.82 -29.56,164.62 -29.41,163.41 -29.25,162.20 -29.25,160.95 -29.25,159.71 -29.25,158.57 -29.24,157.44 -29.24,156.04 -29.24,154.65 -29.25,153.54 -29.25,152.43 -29.26,151.04 -29.27,149.64 -29.27,148.27 -29.27,146.89 -29.27,145.81 -29.27,144.73 -29.27,143.54 -29.27,142.36 -29.26,141.29 -29.26,140.22 -29.26,139.03 -29.27,137.83 -29.26,136.66 -29.25,135.48 -29.24,134.27 -29.24,133.06 -29.24,131.89 -29.24,130.72 -29.24,129.59 -29.24,128.45 -29.25,127.05 -29.26,125.64 -29.26,124.41 -29.25,123.19 -29.25,121.80 -29.26,120.41 -29.26,119.34 -29.27,118.26 -29.33,116.82 -29.39,115.38 -29.52,113.98 -29.64,112.57 -29.65,111.36 -29.65,110.14 -29.95,108.81 -30.24,107.48 -30.26,106.30 -30.28,105.12 -30.57,103.74 -30.85,102.35 -31.15,100.57 -31.45,98.79 -31.87,97.59 -32.29,96.38 -32.78,95.23 -33.27,94.08 -33.89,92.96 -34.50,91.84 -35.24,90.96 -35.98,90.08 -36.64,89.21 -37.29,88.35 -38.44,88.16 -39.59,87.98 -37.09,86.99 -34.58,85.99 -34.83,86.39 -35.07,86.79 -35.40,87.12 -35.73,87.46 -36.13,87.70 -36.54,87.94 -36.98,88.08 -37.43,88.21 -37.90,88.24 -38.37,88.27 -38.83,88.18 -39.29,88.10 -39.71,87.91 -40.14,87.71 -40.51,87.42 -40.88,87.13 -41.16,86.76 -41.45,86.39 -41.64,85.97 -41.83,85.54 -41.92,85.08 -42.00,84.62 -41.97,84.15 -41.94,83.68 -41.80,83.24 -41.66,82.79 -40.62,81.93 -39.57,81.06 -38.31,80.27 -37.05,79.48 -36.01,78.60 -34.96,77.71 -33.86,76.99 -32.75,76.26 -32.02,75.45 -31.29,74.64 -30.35,73.78 -29.42,72.92 -28.55,71.89 -27.68,70.86 -27.07,69.83 -26.45,68.80 -26.32,67.57 -26.18,66.34 -26.18,65.11 -26.17,63.89 -26.16,62.76 -26.16,61.62 -26.16,60.49 -26.16,59.35 -26.15,58.13 -26.15,56.92 -26.14,55.64 -26.14,54.37 -26.13,53.27 -26.12,52.16 -26.11,50.97 -26.10,49.78 -26.10,48.67 -26.09,47.56 -26.09,46.30 -26.09,45.04 -26.08,43.86 -26.07,42.68 -26.09,41.51 -26.10,40.34 -26.13,38.62 -26.15,36.90 -26.13,35.65 -26.11,34.40 -25.96,33.01 -25.80,31.61 -25.78,30.49 -25.76,29.36 -25.62,28.10 -25.48,26.84 -25.48,25.69 -25.48,24.53 -25.48,23.31 -25.47,22.10 -25.46,20.91 -25.45,19.72 -25.43,18.62 -25.40,17.51 -25.25,16.42 -25.09,15.33 -25.03,14.06 -24.97,12.79 -24.62,11.46 -24.26,10.13 -23.78,8.66 -23.30,7.20 -22.78,6.11 -22.26,5.03 -21.83,4.05 -21.41,3.07 -20.66,2.14 -19.91,1.21 -18.90,0.24 -17.89,-0.72 -16.78,-1.38 -15.67,-2.04 -14.28,-2.47 -12.90,-2.89 -11.62,-2.87 -10.34,-2.85 -9.06,-2.93 -7.77,-3.01 -6.18,-2.93 -4.58,-2.84 -3.36,-2.77 -2.15,-2.70 -1.07,-2.68 -0.00,-2.65 0.31,-2.62 0.63,-2.58 0.93,-2.46 1.23,-2.35 1.49,-2.17 1.76,-1.99 1.97,-1.75 2.18,-1.51 2.33,-1.22 2.48,-0.94 2.56,-0.63 2.64,-0.32 2.64,0.00 2.64,0.32 2.56,0.63 2.48,0.94 2.33,1.22 2.18,1.51 1.97,1.75 1.76,1.99 1.49,2.17 1.23,2.35 0.93,2.46 0.63,2.58 0.31,2.62 -0.00,2.65 -0.00,2.65 L 0.00,2.65 Z"></path></g></svg>
