<svg version="1.1" xmlns="http://www.w3.org/2000/svg" viewBox="0 0 737.4579983162919 185.89864346380182" width="737.4579983162919" height="185.89864346380182">
  <!-- svg-source:excalidraw -->

  <defs>
    <style>
      <!-- svg { -->
      <!--   color: #f9f5d7; -->
      <!--   fill: #1d2021; -->
      <!-- } -->
      <!-- @media (prefers-color-scheme: light) { -->
        svg {
          color: #1d2021;
          <!-- fill: #f9f5d7; -->
          fill: #fcfcfc;
        }
      <!-- } -->
    </style>
  </defs>
  <rect x="0" y="0" width="737.4579983162919" height="185.89864346380182" fill="fill"></rect><g transform="translate(72.58569892930069 69.59573647124625) rotate(357.1915199662063 -41.69128801573825 51.82393466380131)" stroke="none" fill="currentColor"><path d="M -25.93,2.63 Q -25.93,2.63 -26.90,2.66 -27.87,2.70 -29.13,2.77 -30.40,2.84 -31.80,2.92 -33.20,3.01 -34.40,3.08 -35.61,3.15 -36.24,4.53 -36.87,5.91 -37.08,7.21 -37.30,8.50 -37.66,10.30 -38.02,12.10 -38.13,13.16 -38.23,14.22 -38.41,15.65 -38.59,17.08 -38.82,18.25 -39.06,19.43 -39.07,20.56 -39.08,21.70 -39.26,23.19 -39.43,24.68 -39.53,25.80 -39.63,26.92 -39.71,28.06 -39.80,29.21 -39.90,30.31 -39.99,31.41 -39.99,32.48 -39.99,33.55 -39.98,34.69 -39.98,35.83 -39.97,37.05 -39.96,38.28 -40.15,39.90 -40.35,41.52 -40.61,42.82 -40.88,44.13 -41.33,45.09 -41.79,46.06 -42.51,47.06 -43.23,48.07 -43.96,48.94 -44.69,49.82 -45.58,50.45 -46.46,51.07 -47.94,51.87 -49.42,52.67 -50.41,53.05 -51.41,53.44 -52.69,53.96 -53.97,54.49 -54.45,51.90 -54.92,49.31 -55.85,48.68 -56.79,48.06 -55.22,48.59 -53.65,49.12 -52.55,49.62 -51.44,50.12 -50.48,50.70 -49.52,51.28 -48.59,51.87 -47.66,52.46 -46.44,53.41 -45.21,54.36 -44.16,55.10 -43.11,55.85 -42.13,56.98 -41.16,58.10 -40.99,59.27 -40.81,60.43 -41.02,61.56 -41.22,62.69 -41.28,63.79 -41.33,64.89 -41.52,66.30 -41.70,67.71 -41.80,68.78 -41.90,69.85 -42.00,71.06 -42.10,72.28 -42.10,73.38 -42.11,74.48 -42.20,75.66 -42.29,76.84 -42.41,78.17 -42.53,79.50 -42.50,80.73 -42.48,81.96 -42.58,83.08 -42.67,84.21 -42.67,85.30 -42.67,86.38 -42.68,87.68 -42.68,88.97 -42.68,90.14 -42.68,91.32 -42.68,92.52 -42.68,93.71 -42.68,94.80 -42.68,95.90 -42.68,96.96 -42.67,98.03 -41.61,98.42 -40.55,98.81 -39.09,98.99 -37.62,99.17 -36.18,99.40 -34.74,99.63 -33.42,99.63 -32.10,99.62 -29.86,99.70 -27.63,99.78 -27.01,99.88 -26.39,99.99 -25.84,100.28 -25.29,100.57 -24.86,101.03 -24.43,101.48 -24.17,102.05 -23.91,102.62 -23.85,103.24 -23.78,103.86 -23.92,104.47 -24.05,105.08 -24.38,105.62 -24.70,106.15 -25.18,106.56 -25.66,106.96 -26.24,107.19 -26.82,107.42 -27.44,107.45 -28.07,107.48 -28.67,107.31 -29.27,107.14 -29.79,106.79 -30.30,106.44 -30.68,105.94 -31.06,105.44 -31.26,104.85 -31.45,104.25 -31.45,103.63 -31.45,103.00 -31.25,102.41 -31.05,101.82 -30.67,101.32 -30.29,100.83 -29.77,100.48 -29.25,100.13 -28.65,99.97 -28.04,99.80 -27.42,99.84 -26.79,99.87 -26.21,100.11 -25.63,100.34 -25.16,100.75 -24.68,101.15 -24.36,101.69 -24.04,102.23 -23.91,102.84 -23.78,103.45 -23.85,104.07 -23.92,104.69 -24.18,105.26 -24.45,105.82 -24.88,106.27 -25.31,106.73 -25.86,107.02 -26.42,107.31 -27.03,107.41 -27.65,107.51 -27.65,107.51 -27.65,107.51 -29.88,107.43 -32.10,107.35 -33.44,107.34 -34.78,107.33 -36.02,107.21 -37.26,107.10 -38.40,106.91 -39.54,106.73 -40.67,106.54 -41.80,106.36 -42.87,106.07 -43.93,105.77 -45.15,105.34 -46.36,104.90 -47.25,104.31 -48.15,103.72 -49.16,102.38 -50.17,101.03 -50.31,99.53 -50.45,98.03 -50.45,96.96 -50.45,95.90 -50.45,94.80 -50.45,93.71 -50.45,92.52 -50.45,91.32 -50.45,90.14 -50.45,88.97 -50.45,87.68 -50.45,86.38 -50.45,85.27 -50.45,84.16 -50.35,83.04 -50.26,81.91 -50.26,80.80 -50.25,79.68 -50.16,78.44 -50.06,77.21 -49.96,76.04 -49.86,74.87 -49.86,73.78 -49.86,72.69 -49.77,71.46 -49.67,70.23 -49.57,69.04 -49.46,67.85 -49.35,66.70 -49.24,65.56 -49.07,64.22 -48.91,62.89 -48.72,61.62 -48.53,60.34 -47.69,61.44 -46.85,62.54 -47.81,61.89 -48.77,61.24 -49.80,60.53 -50.82,59.81 -51.84,59.07 -52.86,58.33 -54.19,57.52 -55.53,56.71 -56.70,56.24 -57.88,55.76 -58.87,55.09 -59.86,54.41 -59.04,51.15 -58.21,47.89 -57.03,47.42 -55.84,46.94 -54.66,46.41 -53.47,45.88 -52.38,45.33 -51.28,44.77 -50.39,44.18 -49.51,43.59 -48.86,42.72 -48.21,41.85 -47.98,40.55 -47.74,39.26 -47.66,37.93 -47.58,36.61 -47.57,35.40 -47.57,34.19 -47.56,33.02 -47.55,31.85 -47.44,30.43 -47.34,29.00 -47.24,27.94 -47.14,26.87 -47.02,25.68 -46.91,24.50 -46.76,23.02 -46.62,21.55 -46.51,20.33 -46.40,19.11 -46.19,17.77 -45.98,16.43 -45.80,15.26 -45.62,14.08 -45.45,12.66 -45.29,11.23 -45.02,9.83 -44.75,8.42 -44.40,7.41 -44.05,6.40 -43.79,5.18 -43.52,3.96 -43.25,2.91 -42.98,1.87 -42.63,0.73 -42.28,-0.40 -41.48,-1.30 -40.67,-2.21 -39.30,-2.63 -37.93,-3.04 -36.77,-3.09 -35.61,-3.15 -34.40,-3.08 -33.20,-3.01 -31.80,-2.92 -30.40,-2.84 -29.13,-2.77 -27.87,-2.70 -26.90,-2.66 -25.93,-2.63 -25.61,-2.59 -25.30,-2.55 -25.00,-2.44 -24.70,-2.33 -24.44,-2.15 -24.18,-1.97 -23.97,-1.73 -23.76,-1.49 -23.61,-1.21 -23.46,-0.93 -23.39,-0.62 -23.31,-0.31 -23.31,0.00 -23.31,0.31 -23.39,0.62 -23.46,0.93 -23.61,1.21 -23.76,1.49 -23.97,1.73 -24.18,1.97 -24.44,2.15 -24.70,2.33 -25.00,2.44 -25.30,2.55 -25.61,2.59 -25.93,2.63 -25.93,2.63 L -25.93,2.63 Z"></path></g><g transform="translate(283.2425649938555 69.92825800868468) rotate(175.41045389689123 -41.69128801573822 51.82393466380131)" stroke="none" fill="currentColor"><path d="M -25.93,2.63 Q -25.93,2.63 -26.90,2.66 -27.87,2.70 -29.13,2.77 -30.40,2.84 -31.80,2.92 -33.20,3.01 -34.40,3.08 -35.61,3.15 -36.24,4.53 -36.87,5.91 -37.08,7.21 -37.30,8.50 -37.66,10.30 -38.02,12.10 -38.13,13.16 -38.23,14.22 -38.41,15.65 -38.59,17.08 -38.82,18.25 -39.06,19.43 -39.07,20.56 -39.08,21.70 -39.26,23.19 -39.43,24.68 -39.53,25.80 -39.63,26.92 -39.71,28.06 -39.80,29.21 -39.90,30.31 -39.99,31.41 -39.99,32.48 -39.99,33.55 -39.98,34.69 -39.98,35.83 -39.97,37.05 -39.96,38.28 -40.15,39.90 -40.35,41.52 -40.61,42.82 -40.88,44.13 -41.33,45.09 -41.79,46.06 -42.51,47.06 -43.23,48.07 -43.96,48.94 -44.69,49.82 -45.58,50.45 -46.46,51.07 -47.94,51.87 -49.42,52.67 -50.41,53.05 -51.41,53.44 -52.69,53.96 -53.97,54.49 -54.45,51.90 -54.92,49.31 -55.85,48.68 -56.79,48.06 -55.22,48.59 -53.65,49.12 -52.55,49.62 -51.44,50.12 -50.48,50.70 -49.52,51.28 -48.59,51.87 -47.66,52.46 -46.44,53.41 -45.21,54.36 -44.16,55.10 -43.11,55.85 -42.13,56.98 -41.16,58.10 -40.99,59.27 -40.81,60.43 -41.02,61.56 -41.22,62.69 -41.28,63.79 -41.33,64.89 -41.52,66.30 -41.70,67.71 -41.80,68.78 -41.90,69.85 -42.00,71.06 -42.10,72.28 -42.10,73.38 -42.11,74.48 -42.20,75.66 -42.29,76.84 -42.41,78.17 -42.53,79.50 -42.50,80.73 -42.48,81.96 -42.58,83.08 -42.67,84.21 -42.67,85.30 -42.67,86.38 -42.68,87.68 -42.68,88.97 -42.68,90.14 -42.68,91.32 -42.68,92.52 -42.68,93.71 -42.68,94.80 -42.68,95.90 -42.68,96.96 -42.67,98.03 -41.61,98.42 -40.55,98.81 -39.09,98.99 -37.62,99.17 -36.18,99.40 -34.74,99.63 -33.42,99.63 -32.10,99.62 -29.86,99.70 -27.63,99.78 -27.01,99.88 -26.39,99.99 -25.84,100.28 -25.29,100.57 -24.86,101.03 -24.43,101.48 -24.17,102.05 -23.91,102.62 -23.85,103.24 -23.78,103.86 -23.92,104.47 -24.05,105.08 -24.38,105.62 -24.70,106.15 -25.18,106.56 -25.66,106.96 -26.24,107.19 -26.82,107.42 -27.44,107.45 -28.07,107.48 -28.67,107.31 -29.27,107.14 -29.79,106.79 -30.30,106.44 -30.68,105.94 -31.06,105.44 -31.26,104.85 -31.45,104.25 -31.45,103.63 -31.45,103.00 -31.25,102.41 -31.05,101.82 -30.67,101.32 -30.29,100.83 -29.77,100.48 -29.25,100.13 -28.65,99.97 -28.04,99.80 -27.42,99.84 -26.79,99.87 -26.21,100.11 -25.63,100.34 -25.16,100.75 -24.68,101.15 -24.36,101.69 -24.04,102.23 -23.91,102.84 -23.78,103.45 -23.85,104.07 -23.92,104.69 -24.18,105.26 -24.45,105.82 -24.88,106.27 -25.31,106.73 -25.86,107.02 -26.42,107.31 -27.03,107.41 -27.65,107.51 -27.65,107.51 -27.65,107.51 -29.88,107.43 -32.10,107.35 -33.44,107.34 -34.78,107.33 -36.02,107.21 -37.26,107.10 -38.40,106.91 -39.54,106.73 -40.67,106.54 -41.80,106.36 -42.87,106.07 -43.93,105.77 -45.15,105.34 -46.36,104.90 -47.25,104.31 -48.15,103.72 -49.16,102.38 -50.17,101.03 -50.31,99.53 -50.45,98.03 -50.45,96.96 -50.45,95.90 -50.45,94.80 -50.45,93.71 -50.45,92.52 -50.45,91.32 -50.45,90.14 -50.45,88.97 -50.45,87.68 -50.45,86.38 -50.45,85.27 -50.45,84.16 -50.35,83.04 -50.26,81.91 -50.26,80.80 -50.25,79.68 -50.16,78.44 -50.06,77.21 -49.96,76.04 -49.86,74.87 -49.86,73.78 -49.86,72.69 -49.77,71.46 -49.67,70.23 -49.57,69.04 -49.46,67.85 -49.35,66.70 -49.24,65.56 -49.07,64.22 -48.91,62.89 -48.72,61.62 -48.53,60.34 -47.69,61.44 -46.85,62.54 -47.81,61.89 -48.77,61.24 -49.80,60.53 -50.82,59.81 -51.84,59.07 -52.86,58.33 -54.19,57.52 -55.53,56.71 -56.70,56.24 -57.88,55.76 -58.87,55.09 -59.86,54.41 -59.04,51.15 -58.21,47.89 -57.03,47.42 -55.84,46.94 -54.66,46.41 -53.47,45.88 -52.38,45.33 -51.28,44.77 -50.39,44.18 -49.51,43.59 -48.86,42.72 -48.21,41.85 -47.98,40.55 -47.74,39.26 -47.66,37.93 -47.58,36.61 -47.57,35.40 -47.57,34.19 -47.56,33.02 -47.55,31.85 -47.44,30.43 -47.34,29.00 -47.24,27.94 -47.14,26.87 -47.02,25.68 -46.91,24.50 -46.76,23.02 -46.62,21.55 -46.51,20.33 -46.40,19.11 -46.19,17.77 -45.98,16.43 -45.80,15.26 -45.62,14.08 -45.45,12.66 -45.29,11.23 -45.02,9.83 -44.75,8.42 -44.40,7.41 -44.05,6.40 -43.79,5.18 -43.52,3.96 -43.25,2.91 -42.98,1.87 -42.63,0.73 -42.28,-0.40 -41.48,-1.30 -40.67,-2.21 -39.30,-2.63 -37.93,-3.04 -36.77,-3.09 -35.61,-3.15 -34.40,-3.08 -33.20,-3.01 -31.80,-2.92 -30.40,-2.84 -29.13,-2.77 -27.87,-2.70 -26.90,-2.66 -25.93,-2.63 -25.61,-2.59 -25.30,-2.55 -25.00,-2.44 -24.70,-2.33 -24.44,-2.15 -24.18,-1.97 -23.97,-1.73 -23.76,-1.49 -23.61,-1.21 -23.46,-0.93 -23.39,-0.62 -23.31,-0.31 -23.31,0.00 -23.31,0.31 -23.39,0.62 -23.46,0.93 -23.61,1.21 -23.76,1.49 -23.97,1.73 -24.18,1.97 -24.44,2.15 -24.70,2.33 -25.00,2.44 -25.30,2.55 -25.61,2.59 -25.93,2.63 -25.93,2.63 L -25.93,2.63 Z"></path></g><g transform="translate(10 14.990996423223805) rotate(0 90.50000000000003 22.5)"><text x="0" y="32" font-family="Bradley Hand" font-size="36px" fill="currentColor" text-anchor="start" style="white-space: pre;" direction="ltr">a function</text></g><g transform="translate(69.22491262325894 129.4461949167685) rotate(0 69 17.5)"><text x="0" y="25" font-family="Bradley Hand" font-size="28px" fill="currentColor" text-anchor="start" style="white-space: pre;" direction="ltr">prototype:</text></g><g transform="translate(441.2876484820943 72.78529116519348) rotate(357.1915199662063 -41.69128801573822 51.82393466380131)" stroke="none" fill="currentColor"><path d="M -25.93,2.63 Q -25.93,2.63 -26.90,2.66 -27.87,2.70 -29.13,2.77 -30.40,2.84 -31.80,2.92 -33.20,3.01 -34.40,3.08 -35.61,3.15 -36.24,4.53 -36.87,5.91 -37.08,7.21 -37.30,8.50 -37.66,10.30 -38.02,12.10 -38.13,13.16 -38.23,14.22 -38.41,15.65 -38.59,17.08 -38.82,18.25 -39.06,19.43 -39.07,20.56 -39.08,21.70 -39.26,23.19 -39.43,24.68 -39.53,25.80 -39.63,26.92 -39.71,28.06 -39.80,29.21 -39.90,30.31 -39.99,31.41 -39.99,32.48 -39.99,33.55 -39.98,34.69 -39.98,35.83 -39.97,37.05 -39.96,38.28 -40.15,39.90 -40.35,41.52 -40.61,42.82 -40.88,44.13 -41.33,45.09 -41.79,46.06 -42.51,47.06 -43.23,48.07 -43.96,48.94 -44.69,49.82 -45.58,50.45 -46.46,51.07 -47.94,51.87 -49.42,52.67 -50.41,53.05 -51.41,53.44 -52.69,53.96 -53.97,54.49 -54.45,51.90 -54.92,49.31 -55.85,48.68 -56.79,48.06 -55.22,48.59 -53.65,49.12 -52.55,49.62 -51.44,50.12 -50.48,50.70 -49.52,51.28 -48.59,51.87 -47.66,52.46 -46.44,53.41 -45.21,54.36 -44.16,55.10 -43.11,55.85 -42.13,56.98 -41.16,58.10 -40.99,59.27 -40.81,60.43 -41.02,61.56 -41.22,62.69 -41.28,63.79 -41.33,64.89 -41.52,66.30 -41.70,67.71 -41.80,68.78 -41.90,69.85 -42.00,71.06 -42.10,72.28 -42.10,73.38 -42.11,74.48 -42.20,75.66 -42.29,76.84 -42.41,78.17 -42.53,79.50 -42.50,80.73 -42.48,81.96 -42.58,83.08 -42.67,84.21 -42.67,85.30 -42.67,86.38 -42.68,87.68 -42.68,88.97 -42.68,90.14 -42.68,91.32 -42.68,92.52 -42.68,93.71 -42.68,94.80 -42.68,95.90 -42.68,96.96 -42.67,98.03 -41.61,98.42 -40.55,98.81 -39.09,98.99 -37.62,99.17 -36.18,99.40 -34.74,99.63 -33.42,99.63 -32.10,99.62 -29.86,99.70 -27.63,99.78 -27.01,99.88 -26.39,99.99 -25.84,100.28 -25.29,100.57 -24.86,101.03 -24.43,101.48 -24.17,102.05 -23.91,102.62 -23.85,103.24 -23.78,103.86 -23.92,104.47 -24.05,105.08 -24.38,105.62 -24.70,106.15 -25.18,106.56 -25.66,106.96 -26.24,107.19 -26.82,107.42 -27.44,107.45 -28.07,107.48 -28.67,107.31 -29.27,107.14 -29.79,106.79 -30.30,106.44 -30.68,105.94 -31.06,105.44 -31.26,104.85 -31.45,104.25 -31.45,103.63 -31.45,103.00 -31.25,102.41 -31.05,101.82 -30.67,101.32 -30.29,100.83 -29.77,100.48 -29.25,100.13 -28.65,99.97 -28.04,99.80 -27.42,99.84 -26.79,99.87 -26.21,100.11 -25.63,100.34 -25.16,100.75 -24.68,101.15 -24.36,101.69 -24.04,102.23 -23.91,102.84 -23.78,103.45 -23.85,104.07 -23.92,104.69 -24.18,105.26 -24.45,105.82 -24.88,106.27 -25.31,106.73 -25.86,107.02 -26.42,107.31 -27.03,107.41 -27.65,107.51 -27.65,107.51 -27.65,107.51 -29.88,107.43 -32.10,107.35 -33.44,107.34 -34.78,107.33 -36.02,107.21 -37.26,107.10 -38.40,106.91 -39.54,106.73 -40.67,106.54 -41.80,106.36 -42.87,106.07 -43.93,105.77 -45.15,105.34 -46.36,104.90 -47.25,104.31 -48.15,103.72 -49.16,102.38 -50.17,101.03 -50.31,99.53 -50.45,98.03 -50.45,96.96 -50.45,95.90 -50.45,94.80 -50.45,93.71 -50.45,92.52 -50.45,91.32 -50.45,90.14 -50.45,88.97 -50.45,87.68 -50.45,86.38 -50.45,85.27 -50.45,84.16 -50.35,83.04 -50.26,81.91 -50.26,80.80 -50.25,79.68 -50.16,78.44 -50.06,77.21 -49.96,76.04 -49.86,74.87 -49.86,73.78 -49.86,72.69 -49.77,71.46 -49.67,70.23 -49.57,69.04 -49.46,67.85 -49.35,66.70 -49.24,65.56 -49.07,64.22 -48.91,62.89 -48.72,61.62 -48.53,60.34 -47.69,61.44 -46.85,62.54 -47.81,61.89 -48.77,61.24 -49.80,60.53 -50.82,59.81 -51.84,59.07 -52.86,58.33 -54.19,57.52 -55.53,56.71 -56.70,56.24 -57.88,55.76 -58.87,55.09 -59.86,54.41 -59.04,51.15 -58.21,47.89 -57.03,47.42 -55.84,46.94 -54.66,46.41 -53.47,45.88 -52.38,45.33 -51.28,44.77 -50.39,44.18 -49.51,43.59 -48.86,42.72 -48.21,41.85 -47.98,40.55 -47.74,39.26 -47.66,37.93 -47.58,36.61 -47.57,35.40 -47.57,34.19 -47.56,33.02 -47.55,31.85 -47.44,30.43 -47.34,29.00 -47.24,27.94 -47.14,26.87 -47.02,25.68 -46.91,24.50 -46.76,23.02 -46.62,21.55 -46.51,20.33 -46.40,19.11 -46.19,17.77 -45.98,16.43 -45.80,15.26 -45.62,14.08 -45.45,12.66 -45.29,11.23 -45.02,9.83 -44.75,8.42 -44.40,7.41 -44.05,6.40 -43.79,5.18 -43.52,3.96 -43.25,2.91 -42.98,1.87 -42.63,0.73 -42.28,-0.40 -41.48,-1.30 -40.67,-2.21 -39.30,-2.63 -37.93,-3.04 -36.77,-3.09 -35.61,-3.15 -34.40,-3.08 -33.20,-3.01 -31.80,-2.92 -30.40,-2.84 -29.13,-2.77 -27.87,-2.70 -26.90,-2.66 -25.93,-2.63 -25.61,-2.59 -25.30,-2.55 -25.00,-2.44 -24.70,-2.33 -24.44,-2.15 -24.18,-1.97 -23.97,-1.73 -23.76,-1.49 -23.61,-1.21 -23.46,-0.93 -23.39,-0.62 -23.31,-0.31 -23.31,0.00 -23.31,0.31 -23.39,0.62 -23.46,0.93 -23.61,1.21 -23.76,1.49 -23.97,1.73 -24.18,1.97 -24.44,2.15 -24.70,2.33 -25.00,2.44 -25.30,2.55 -25.61,2.59 -25.93,2.63 -25.93,2.63 L -25.93,2.63 Z"></path></g><g transform="translate(659.360828565749 67.58182230549664) rotate(175.41045389689123 -41.69128801573822 51.82393466380131)" stroke="none" fill="currentColor"><path d="M -25.93,2.63 Q -25.93,2.63 -26.90,2.66 -27.87,2.70 -29.13,2.77 -30.40,2.84 -31.80,2.92 -33.20,3.01 -34.40,3.08 -35.61,3.15 -36.24,4.53 -36.87,5.91 -37.08,7.21 -37.30,8.50 -37.66,10.30 -38.02,12.10 -38.13,13.16 -38.23,14.22 -38.41,15.65 -38.59,17.08 -38.82,18.25 -39.06,19.43 -39.07,20.56 -39.08,21.70 -39.26,23.19 -39.43,24.68 -39.53,25.80 -39.63,26.92 -39.71,28.06 -39.80,29.21 -39.90,30.31 -39.99,31.41 -39.99,32.48 -39.99,33.55 -39.98,34.69 -39.98,35.83 -39.97,37.05 -39.96,38.28 -40.15,39.90 -40.35,41.52 -40.61,42.82 -40.88,44.13 -41.33,45.09 -41.79,46.06 -42.51,47.06 -43.23,48.07 -43.96,48.94 -44.69,49.82 -45.58,50.45 -46.46,51.07 -47.94,51.87 -49.42,52.67 -50.41,53.05 -51.41,53.44 -52.69,53.96 -53.97,54.49 -54.45,51.90 -54.92,49.31 -55.85,48.68 -56.79,48.06 -55.22,48.59 -53.65,49.12 -52.55,49.62 -51.44,50.12 -50.48,50.70 -49.52,51.28 -48.59,51.87 -47.66,52.46 -46.44,53.41 -45.21,54.36 -44.16,55.10 -43.11,55.85 -42.13,56.98 -41.16,58.10 -40.99,59.27 -40.81,60.43 -41.02,61.56 -41.22,62.69 -41.28,63.79 -41.33,64.89 -41.52,66.30 -41.70,67.71 -41.80,68.78 -41.90,69.85 -42.00,71.06 -42.10,72.28 -42.10,73.38 -42.11,74.48 -42.20,75.66 -42.29,76.84 -42.41,78.17 -42.53,79.50 -42.50,80.73 -42.48,81.96 -42.58,83.08 -42.67,84.21 -42.67,85.30 -42.67,86.38 -42.68,87.68 -42.68,88.97 -42.68,90.14 -42.68,91.32 -42.68,92.52 -42.68,93.71 -42.68,94.80 -42.68,95.90 -42.68,96.96 -42.67,98.03 -41.61,98.42 -40.55,98.81 -39.09,98.99 -37.62,99.17 -36.18,99.40 -34.74,99.63 -33.42,99.63 -32.10,99.62 -29.86,99.70 -27.63,99.78 -27.01,99.88 -26.39,99.99 -25.84,100.28 -25.29,100.57 -24.86,101.03 -24.43,101.48 -24.17,102.05 -23.91,102.62 -23.85,103.24 -23.78,103.86 -23.92,104.47 -24.05,105.08 -24.38,105.62 -24.70,106.15 -25.18,106.56 -25.66,106.96 -26.24,107.19 -26.82,107.42 -27.44,107.45 -28.07,107.48 -28.67,107.31 -29.27,107.14 -29.79,106.79 -30.30,106.44 -30.68,105.94 -31.06,105.44 -31.26,104.85 -31.45,104.25 -31.45,103.63 -31.45,103.00 -31.25,102.41 -31.05,101.82 -30.67,101.32 -30.29,100.83 -29.77,100.48 -29.25,100.13 -28.65,99.97 -28.04,99.80 -27.42,99.84 -26.79,99.87 -26.21,100.11 -25.63,100.34 -25.16,100.75 -24.68,101.15 -24.36,101.69 -24.04,102.23 -23.91,102.84 -23.78,103.45 -23.85,104.07 -23.92,104.69 -24.18,105.26 -24.45,105.82 -24.88,106.27 -25.31,106.73 -25.86,107.02 -26.42,107.31 -27.03,107.41 -27.65,107.51 -27.65,107.51 -27.65,107.51 -29.88,107.43 -32.10,107.35 -33.44,107.34 -34.78,107.33 -36.02,107.21 -37.26,107.10 -38.40,106.91 -39.54,106.73 -40.67,106.54 -41.80,106.36 -42.87,106.07 -43.93,105.77 -45.15,105.34 -46.36,104.90 -47.25,104.31 -48.15,103.72 -49.16,102.38 -50.17,101.03 -50.31,99.53 -50.45,98.03 -50.45,96.96 -50.45,95.90 -50.45,94.80 -50.45,93.71 -50.45,92.52 -50.45,91.32 -50.45,90.14 -50.45,88.97 -50.45,87.68 -50.45,86.38 -50.45,85.27 -50.45,84.16 -50.35,83.04 -50.26,81.91 -50.26,80.80 -50.25,79.68 -50.16,78.44 -50.06,77.21 -49.96,76.04 -49.86,74.87 -49.86,73.78 -49.86,72.69 -49.77,71.46 -49.67,70.23 -49.57,69.04 -49.46,67.85 -49.35,66.70 -49.24,65.56 -49.07,64.22 -48.91,62.89 -48.72,61.62 -48.53,60.34 -47.69,61.44 -46.85,62.54 -47.81,61.89 -48.77,61.24 -49.80,60.53 -50.82,59.81 -51.84,59.07 -52.86,58.33 -54.19,57.52 -55.53,56.71 -56.70,56.24 -57.88,55.76 -58.87,55.09 -59.86,54.41 -59.04,51.15 -58.21,47.89 -57.03,47.42 -55.84,46.94 -54.66,46.41 -53.47,45.88 -52.38,45.33 -51.28,44.77 -50.39,44.18 -49.51,43.59 -48.86,42.72 -48.21,41.85 -47.98,40.55 -47.74,39.26 -47.66,37.93 -47.58,36.61 -47.57,35.40 -47.57,34.19 -47.56,33.02 -47.55,31.85 -47.44,30.43 -47.34,29.00 -47.24,27.94 -47.14,26.87 -47.02,25.68 -46.91,24.50 -46.76,23.02 -46.62,21.55 -46.51,20.33 -46.40,19.11 -46.19,17.77 -45.98,16.43 -45.80,15.26 -45.62,14.08 -45.45,12.66 -45.29,11.23 -45.02,9.83 -44.75,8.42 -44.40,7.41 -44.05,6.40 -43.79,5.18 -43.52,3.96 -43.25,2.91 -42.98,1.87 -42.63,0.73 -42.28,-0.40 -41.48,-1.30 -40.67,-2.21 -39.30,-2.63 -37.93,-3.04 -36.77,-3.09 -35.61,-3.15 -34.40,-3.08 -33.20,-3.01 -31.80,-2.92 -30.40,-2.84 -29.13,-2.77 -27.87,-2.70 -26.90,-2.66 -25.93,-2.63 -25.61,-2.59 -25.30,-2.55 -25.00,-2.44 -24.70,-2.33 -24.44,-2.15 -24.18,-1.97 -23.97,-1.73 -23.76,-1.49 -23.61,-1.21 -23.46,-0.93 -23.39,-0.62 -23.31,-0.31 -23.31,0.00 -23.31,0.31 -23.39,0.62 -23.46,0.93 -23.61,1.21 -23.76,1.49 -23.97,1.73 -24.18,1.97 -24.44,2.15 -24.70,2.33 -25.00,2.44 -25.30,2.55 -25.61,2.59 -25.93,2.63 -25.93,2.63 L -25.93,2.63 Z"></path></g><g transform="translate(366.45799831629193 17.515050551099648) rotate(0 180.5 22.5)"><text x="0" y="32" font-family="Bradley Hand" font-size="36px" fill="currentColor" text-anchor="start" style="white-space: pre;" direction="ltr">its prototype object</text></g><g transform="translate(416.64553079584385 94.95470577391006) rotate(0 83 17.5)"><text x="0" y="25" font-family="Bradley Hand" font-size="28px" fill="currentColor" text-anchor="start" style="white-space: pre;" direction="ltr">:constructor</text></g><g stroke-linecap="round" transform="translate(199.74335441566615 10) rotate(0 14.434773763020758 23.846567789713617)"><path d="M-0.14 0.32 C7.11 1.58, 16.2 0.55, 29.67 1.67 M0.47 0.92 C9.78 -0.2, 19.3 0.06, 29.14 0.33 M29.9 -1.98 C30.02 13.27, 30.43 28.24, 30.7 48.77 M28.02 0.29 C28.56 19.11, 29.45 37.29, 28.45 46.85 M28.32 47.78 C18.44 48.62, 6.59 48.51, -0.24 49.37 M27.88 46.77 C17.68 48.01, 6.39 47.9, 0.14 48.43 M-1.7 46.02 C1.69 38.22, 0.5 24.51, -1.28 1.24 M0.32 47.23 C0.95 33.47, -0.84 20.56, -0.58 -0.83" stroke="currentColor" stroke-width="1" fill="none"></path></g><g transform="translate(205.23997713702062 16.892425537109375) rotate(0 8 17.5)"><text x="8" y="25" font-family="Bradley Hand" font-size="28px" fill="currentColor" text-anchor="middle" style="white-space: pre;" direction="ltr">F</text></g><g stroke-linecap="round"><g transform="translate(213.7859501730448 148.52020143069376) rotate(0 81.58560144924405 -8.11932382184159)"><path d="M0.19 -0.01 C27.59 -2.45, 137.08 -12.15, 164.34 -14.72 M-1.17 -1.06 C26.16 -3.79, 136.5 -13.49, 163.88 -16.23" stroke="currentColor" stroke-width="1" fill="none"></path></g><g transform="translate(213.7859501730448 148.52020143069376) rotate(0 81.58560144924405 -8.11932382184159)"><path d="M164.56 -18.12 L151.56 -6.77 L151.22 -22.51 L163.94 -15.62" stroke="none" stroke-width="0" fill="currentColor" fill-rule="evenodd"></path><path d="M163.87 -15.06 C161.54 -13.58, 156.87 -10.51, 151.43 -8.07 M164.01 -16.29 C159.58 -13.41, 155.31 -10.71, 151.02 -8.7 M151.68 -9.66 C151.48 -13.85, 151.24 -16.49, 150.98 -22.04 M150.92 -8.52 C151.22 -13.02, 150.02 -17.29, 150.1 -20.76 M149.6 -20.76 C153.75 -18.92, 160.35 -16.17, 165.12 -17.37 M149.65 -20.91 C152.78 -19.65, 156.56 -18.18, 163.42 -16.38 M163.88 -16.23 C163.88 -16.23, 163.88 -16.23, 163.88 -16.23 M163.88 -16.23 C163.88 -16.23, 163.88 -16.23, 163.88 -16.23" stroke="currentColor" stroke-width="1" fill="none"></path></g></g><g stroke-linecap="round"><g transform="translate(412.69309796769625 113.45061777157684) rotate(0 -73.53458706242867 1.8399593993271992)"><path d="M-0.01 0.94 C-24.45 1.45, -122.16 2.79, -146.73 3.3 M-1.47 0.38 C-25.96 0.5, -122.65 1.05, -147.06 1.34" stroke="currentColor" stroke-width="1" fill="none"></path></g><g transform="translate(412.69309796769625 113.45061777157684) rotate(0 -73.53458706242867 1.8399593993271992)"><path d="M-148.95 1.96 L-131.63 -3.64 L-134.65 7.63 L-146.45 0.6" stroke="none" stroke-width="0" fill="currentColor" fill-rule="evenodd"></path><path d="M-145.89 2.81 C-142.71 0.06, -137.89 -1.94, -132.93 -4.51 M-147.12 1.41 C-142.29 -0.72, -137.46 -3.08, -133.56 -4.83 M-134.52 -4.1 C-134.54 0.51, -132.88 5.03, -134.17 7.83 M-133.38 -4.56 C-133.78 -2.65, -133.97 0.69, -132.9 8.09 M-132.9 6.18 C-136.7 5.68, -139.6 5.4, -148.2 0.42 M-133.04 7.27 C-135.81 6.41, -138.28 4.58, -147.21 0.71 M-147.06 1.34 C-147.06 1.34, -147.06 1.34, -147.06 1.34 M-147.06 1.34 C-147.06 1.34, -147.06 1.34, -147.06 1.34" stroke="currentColor" stroke-width="1" fill="none"></path></g></g></svg>
