<svg version="1.1" xmlns="http://www.w3.org/2000/svg" viewBox="0 0 970.5224134527502 391.6930910286926" width="970.5224134527502" height="391.6930910286926">
  <!-- svg-source:excalidraw -->

  <defs>
    <style>
      <!-- svg { -->
      <!--   color: #f9f5d7; -->
      <!--   fill: #1d2021; -->
      <!-- } -->
      <!-- @media (prefers-color-scheme: light) { -->
        svg {
          color: #1d2021;
          <!-- fill: #f9f5d7; -->
          fill: #fcfcfc;
        }
      <!-- } -->
    </style>
  </defs>
  <rect x="0" y="0" width="970.5224134527502" height="391.6930910286926" fill="fill"></rect><g transform="translate(67.430393237531 70.67592310319105) rotate(357.1915199662063 -41.69128801573825 51.82393466380131)" stroke="none" fill="currentColor"><path d="M -25.93,2.63 Q -25.93,2.63 -26.90,2.66 -27.87,2.70 -29.13,2.77 -30.40,2.84 -31.80,2.92 -33.20,3.01 -34.40,3.08 -35.61,3.15 -36.24,4.53 -36.87,5.91 -37.08,7.21 -37.30,8.50 -37.66,10.30 -38.02,12.10 -38.13,13.16 -38.23,14.22 -38.41,15.65 -38.59,17.08 -38.82,18.25 -39.06,19.43 -39.07,20.56 -39.08,21.70 -39.26,23.19 -39.43,24.68 -39.53,25.80 -39.63,26.92 -39.71,28.06 -39.80,29.21 -39.90,30.31 -39.99,31.41 -39.99,32.48 -39.99,33.55 -39.98,34.69 -39.98,35.83 -39.97,37.05 -39.96,38.28 -40.15,39.90 -40.35,41.52 -40.61,42.82 -40.88,44.13 -41.33,45.09 -41.79,46.06 -42.51,47.06 -43.23,48.07 -43.96,48.94 -44.69,49.82 -45.58,50.45 -46.46,51.07 -47.94,51.87 -49.42,52.67 -50.41,53.05 -51.41,53.44 -52.69,53.96 -53.97,54.49 -54.45,51.90 -54.92,49.31 -55.85,48.68 -56.79,48.06 -55.22,48.59 -53.65,49.12 -52.55,49.62 -51.44,50.12 -50.48,50.70 -49.52,51.28 -48.59,51.87 -47.66,52.46 -46.44,53.41 -45.21,54.36 -44.16,55.10 -43.11,55.85 -42.13,56.98 -41.16,58.10 -40.99,59.27 -40.81,60.43 -41.02,61.56 -41.22,62.69 -41.28,63.79 -41.33,64.89 -41.52,66.30 -41.70,67.71 -41.80,68.78 -41.90,69.85 -42.00,71.06 -42.10,72.28 -42.10,73.38 -42.11,74.48 -42.20,75.66 -42.29,76.84 -42.41,78.17 -42.53,79.50 -42.50,80.73 -42.48,81.96 -42.58,83.08 -42.67,84.21 -42.67,85.30 -42.67,86.38 -42.68,87.68 -42.68,88.97 -42.68,90.14 -42.68,91.32 -42.68,92.52 -42.68,93.71 -42.68,94.80 -42.68,95.90 -42.68,96.96 -42.67,98.03 -41.61,98.42 -40.55,98.81 -39.09,98.99 -37.62,99.17 -36.18,99.40 -34.74,99.63 -33.42,99.63 -32.10,99.62 -29.86,99.70 -27.63,99.78 -27.01,99.88 -26.39,99.99 -25.84,100.28 -25.29,100.57 -24.86,101.03 -24.43,101.48 -24.17,102.05 -23.91,102.62 -23.85,103.24 -23.78,103.86 -23.92,104.47 -24.05,105.08 -24.38,105.62 -24.70,106.15 -25.18,106.56 -25.66,106.96 -26.24,107.19 -26.82,107.42 -27.44,107.45 -28.07,107.48 -28.67,107.31 -29.27,107.14 -29.79,106.79 -30.30,106.44 -30.68,105.94 -31.06,105.44 -31.26,104.85 -31.45,104.25 -31.45,103.63 -31.45,103.00 -31.25,102.41 -31.05,101.82 -30.67,101.32 -30.29,100.83 -29.77,100.48 -29.25,100.13 -28.65,99.97 -28.04,99.80 -27.42,99.84 -26.79,99.87 -26.21,100.11 -25.63,100.34 -25.16,100.75 -24.68,101.15 -24.36,101.69 -24.04,102.23 -23.91,102.84 -23.78,103.45 -23.85,104.07 -23.92,104.69 -24.18,105.26 -24.45,105.82 -24.88,106.27 -25.31,106.73 -25.86,107.02 -26.42,107.31 -27.03,107.41 -27.65,107.51 -27.65,107.51 -27.65,107.51 -29.88,107.43 -32.10,107.35 -33.44,107.34 -34.78,107.33 -36.02,107.21 -37.26,107.10 -38.40,106.91 -39.54,106.73 -40.67,106.54 -41.80,106.36 -42.87,106.07 -43.93,105.77 -45.15,105.34 -46.36,104.90 -47.25,104.31 -48.15,103.72 -49.16,102.38 -50.17,101.03 -50.31,99.53 -50.45,98.03 -50.45,96.96 -50.45,95.90 -50.45,94.80 -50.45,93.71 -50.45,92.52 -50.45,91.32 -50.45,90.14 -50.45,88.97 -50.45,87.68 -50.45,86.38 -50.45,85.27 -50.45,84.16 -50.35,83.04 -50.26,81.91 -50.26,80.80 -50.25,79.68 -50.16,78.44 -50.06,77.21 -49.96,76.04 -49.86,74.87 -49.86,73.78 -49.86,72.69 -49.77,71.46 -49.67,70.23 -49.57,69.04 -49.46,67.85 -49.35,66.70 -49.24,65.56 -49.07,64.22 -48.91,62.89 -48.72,61.62 -48.53,60.34 -47.69,61.44 -46.85,62.54 -47.81,61.89 -48.77,61.24 -49.80,60.53 -50.82,59.81 -51.84,59.07 -52.86,58.33 -54.19,57.52 -55.53,56.71 -56.70,56.24 -57.88,55.76 -58.87,55.09 -59.86,54.41 -59.04,51.15 -58.21,47.89 -57.03,47.42 -55.84,46.94 -54.66,46.41 -53.47,45.88 -52.38,45.33 -51.28,44.77 -50.39,44.18 -49.51,43.59 -48.86,42.72 -48.21,41.85 -47.98,40.55 -47.74,39.26 -47.66,37.93 -47.58,36.61 -47.57,35.40 -47.57,34.19 -47.56,33.02 -47.55,31.85 -47.44,30.43 -47.34,29.00 -47.24,27.94 -47.14,26.87 -47.02,25.68 -46.91,24.50 -46.76,23.02 -46.62,21.55 -46.51,20.33 -46.40,19.11 -46.19,17.77 -45.98,16.43 -45.80,15.26 -45.62,14.08 -45.45,12.66 -45.29,11.23 -45.02,9.83 -44.75,8.42 -44.40,7.41 -44.05,6.40 -43.79,5.18 -43.52,3.96 -43.25,2.91 -42.98,1.87 -42.63,0.73 -42.28,-0.40 -41.48,-1.30 -40.67,-2.21 -39.30,-2.63 -37.93,-3.04 -36.77,-3.09 -35.61,-3.15 -34.40,-3.08 -33.20,-3.01 -31.80,-2.92 -30.40,-2.84 -29.13,-2.77 -27.87,-2.70 -26.90,-2.66 -25.93,-2.63 -25.61,-2.59 -25.30,-2.55 -25.00,-2.44 -24.70,-2.33 -24.44,-2.15 -24.18,-1.97 -23.97,-1.73 -23.76,-1.49 -23.61,-1.21 -23.46,-0.93 -23.39,-0.62 -23.31,-0.31 -23.31,0.00 -23.31,0.31 -23.39,0.62 -23.46,0.93 -23.61,1.21 -23.76,1.49 -23.97,1.73 -24.18,1.97 -24.44,2.15 -24.70,2.33 -25.00,2.44 -25.30,2.55 -25.61,2.59 -25.93,2.63 -25.93,2.63 L -25.93,2.63 Z"></path></g><g transform="translate(278.0872593020856 71.00844464062902) rotate(175.41045389689123 -41.69128801573822 51.82393466380131)" stroke="none" fill="currentColor"><path d="M -25.93,2.63 Q -25.93,2.63 -26.90,2.66 -27.87,2.70 -29.13,2.77 -30.40,2.84 -31.80,2.92 -33.20,3.01 -34.40,3.08 -35.61,3.15 -36.24,4.53 -36.87,5.91 -37.08,7.21 -37.30,8.50 -37.66,10.30 -38.02,12.10 -38.13,13.16 -38.23,14.22 -38.41,15.65 -38.59,17.08 -38.82,18.25 -39.06,19.43 -39.07,20.56 -39.08,21.70 -39.26,23.19 -39.43,24.68 -39.53,25.80 -39.63,26.92 -39.71,28.06 -39.80,29.21 -39.90,30.31 -39.99,31.41 -39.99,32.48 -39.99,33.55 -39.98,34.69 -39.98,35.83 -39.97,37.05 -39.96,38.28 -40.15,39.90 -40.35,41.52 -40.61,42.82 -40.88,44.13 -41.33,45.09 -41.79,46.06 -42.51,47.06 -43.23,48.07 -43.96,48.94 -44.69,49.82 -45.58,50.45 -46.46,51.07 -47.94,51.87 -49.42,52.67 -50.41,53.05 -51.41,53.44 -52.69,53.96 -53.97,54.49 -54.45,51.90 -54.92,49.31 -55.85,48.68 -56.79,48.06 -55.22,48.59 -53.65,49.12 -52.55,49.62 -51.44,50.12 -50.48,50.70 -49.52,51.28 -48.59,51.87 -47.66,52.46 -46.44,53.41 -45.21,54.36 -44.16,55.10 -43.11,55.85 -42.13,56.98 -41.16,58.10 -40.99,59.27 -40.81,60.43 -41.02,61.56 -41.22,62.69 -41.28,63.79 -41.33,64.89 -41.52,66.30 -41.70,67.71 -41.80,68.78 -41.90,69.85 -42.00,71.06 -42.10,72.28 -42.10,73.38 -42.11,74.48 -42.20,75.66 -42.29,76.84 -42.41,78.17 -42.53,79.50 -42.50,80.73 -42.48,81.96 -42.58,83.08 -42.67,84.21 -42.67,85.30 -42.67,86.38 -42.68,87.68 -42.68,88.97 -42.68,90.14 -42.68,91.32 -42.68,92.52 -42.68,93.71 -42.68,94.80 -42.68,95.90 -42.68,96.96 -42.67,98.03 -41.61,98.42 -40.55,98.81 -39.09,98.99 -37.62,99.17 -36.18,99.40 -34.74,99.63 -33.42,99.63 -32.10,99.62 -29.86,99.70 -27.63,99.78 -27.01,99.88 -26.39,99.99 -25.84,100.28 -25.29,100.57 -24.86,101.03 -24.43,101.48 -24.17,102.05 -23.91,102.62 -23.85,103.24 -23.78,103.86 -23.92,104.47 -24.05,105.08 -24.38,105.62 -24.70,106.15 -25.18,106.56 -25.66,106.96 -26.24,107.19 -26.82,107.42 -27.44,107.45 -28.07,107.48 -28.67,107.31 -29.27,107.14 -29.79,106.79 -30.30,106.44 -30.68,105.94 -31.06,105.44 -31.26,104.85 -31.45,104.25 -31.45,103.63 -31.45,103.00 -31.25,102.41 -31.05,101.82 -30.67,101.32 -30.29,100.83 -29.77,100.48 -29.25,100.13 -28.65,99.97 -28.04,99.80 -27.42,99.84 -26.79,99.87 -26.21,100.11 -25.63,100.34 -25.16,100.75 -24.68,101.15 -24.36,101.69 -24.04,102.23 -23.91,102.84 -23.78,103.45 -23.85,104.07 -23.92,104.69 -24.18,105.26 -24.45,105.82 -24.88,106.27 -25.31,106.73 -25.86,107.02 -26.42,107.31 -27.03,107.41 -27.65,107.51 -27.65,107.51 -27.65,107.51 -29.88,107.43 -32.10,107.35 -33.44,107.34 -34.78,107.33 -36.02,107.21 -37.26,107.10 -38.40,106.91 -39.54,106.73 -40.67,106.54 -41.80,106.36 -42.87,106.07 -43.93,105.77 -45.15,105.34 -46.36,104.90 -47.25,104.31 -48.15,103.72 -49.16,102.38 -50.17,101.03 -50.31,99.53 -50.45,98.03 -50.45,96.96 -50.45,95.90 -50.45,94.80 -50.45,93.71 -50.45,92.52 -50.45,91.32 -50.45,90.14 -50.45,88.97 -50.45,87.68 -50.45,86.38 -50.45,85.27 -50.45,84.16 -50.35,83.04 -50.26,81.91 -50.26,80.80 -50.25,79.68 -50.16,78.44 -50.06,77.21 -49.96,76.04 -49.86,74.87 -49.86,73.78 -49.86,72.69 -49.77,71.46 -49.67,70.23 -49.57,69.04 -49.46,67.85 -49.35,66.70 -49.24,65.56 -49.07,64.22 -48.91,62.89 -48.72,61.62 -48.53,60.34 -47.69,61.44 -46.85,62.54 -47.81,61.89 -48.77,61.24 -49.80,60.53 -50.82,59.81 -51.84,59.07 -52.86,58.33 -54.19,57.52 -55.53,56.71 -56.70,56.24 -57.88,55.76 -58.87,55.09 -59.86,54.41 -59.04,51.15 -58.21,47.89 -57.03,47.42 -55.84,46.94 -54.66,46.41 -53.47,45.88 -52.38,45.33 -51.28,44.77 -50.39,44.18 -49.51,43.59 -48.86,42.72 -48.21,41.85 -47.98,40.55 -47.74,39.26 -47.66,37.93 -47.58,36.61 -47.57,35.40 -47.57,34.19 -47.56,33.02 -47.55,31.85 -47.44,30.43 -47.34,29.00 -47.24,27.94 -47.14,26.87 -47.02,25.68 -46.91,24.50 -46.76,23.02 -46.62,21.55 -46.51,20.33 -46.40,19.11 -46.19,17.77 -45.98,16.43 -45.80,15.26 -45.62,14.08 -45.45,12.66 -45.29,11.23 -45.02,9.83 -44.75,8.42 -44.40,7.41 -44.05,6.40 -43.79,5.18 -43.52,3.96 -43.25,2.91 -42.98,1.87 -42.63,0.73 -42.28,-0.40 -41.48,-1.30 -40.67,-2.21 -39.30,-2.63 -37.93,-3.04 -36.77,-3.09 -35.61,-3.15 -34.40,-3.08 -33.20,-3.01 -31.80,-2.92 -30.40,-2.84 -29.13,-2.77 -27.87,-2.70 -26.90,-2.66 -25.93,-2.63 -25.61,-2.59 -25.30,-2.55 -25.00,-2.44 -24.70,-2.33 -24.44,-2.15 -24.18,-1.97 -23.97,-1.73 -23.76,-1.49 -23.61,-1.21 -23.46,-0.93 -23.39,-0.62 -23.31,-0.31 -23.31,0.00 -23.31,0.31 -23.39,0.62 -23.46,0.93 -23.61,1.21 -23.76,1.49 -23.97,1.73 -24.18,1.97 -24.44,2.15 -24.70,2.33 -25.00,2.44 -25.30,2.55 -25.61,2.59 -25.93,2.63 -25.93,2.63 L -25.93,2.63 Z"></path></g><g transform="translate(12.39646398867626 12.752248084736038) rotate(0 105 22.5)"><text x="0" y="32" font-family="Bradley Hand" font-size="36px" fill="currentColor" text-anchor="start" style="white-space: pre;" direction="ltr">Constructor</text></g><g transform="translate(64.06960693148903 130.2447653377758) rotate(0 69 17.5)"><text x="0" y="25" font-family="Bradley Hand" font-size="28px" fill="currentColor" text-anchor="start" style="white-space: pre;" direction="ltr">prototype:</text></g><g transform="translate(436.1323427903246 73.86547779713783) rotate(357.1915199662063 -41.69128801573822 51.82393466380131)" stroke="none" fill="currentColor"><path d="M -25.93,2.63 Q -25.93,2.63 -26.90,2.66 -27.87,2.70 -29.13,2.77 -30.40,2.84 -31.80,2.92 -33.20,3.01 -34.40,3.08 -35.61,3.15 -36.24,4.53 -36.87,5.91 -37.08,7.21 -37.30,8.50 -37.66,10.30 -38.02,12.10 -38.13,13.16 -38.23,14.22 -38.41,15.65 -38.59,17.08 -38.82,18.25 -39.06,19.43 -39.07,20.56 -39.08,21.70 -39.26,23.19 -39.43,24.68 -39.53,25.80 -39.63,26.92 -39.71,28.06 -39.80,29.21 -39.90,30.31 -39.99,31.41 -39.99,32.48 -39.99,33.55 -39.98,34.69 -39.98,35.83 -39.97,37.05 -39.96,38.28 -40.15,39.90 -40.35,41.52 -40.61,42.82 -40.88,44.13 -41.33,45.09 -41.79,46.06 -42.51,47.06 -43.23,48.07 -43.96,48.94 -44.69,49.82 -45.58,50.45 -46.46,51.07 -47.94,51.87 -49.42,52.67 -50.41,53.05 -51.41,53.44 -52.69,53.96 -53.97,54.49 -54.45,51.90 -54.92,49.31 -55.85,48.68 -56.79,48.06 -55.22,48.59 -53.65,49.12 -52.55,49.62 -51.44,50.12 -50.48,50.70 -49.52,51.28 -48.59,51.87 -47.66,52.46 -46.44,53.41 -45.21,54.36 -44.16,55.10 -43.11,55.85 -42.13,56.98 -41.16,58.10 -40.99,59.27 -40.81,60.43 -41.02,61.56 -41.22,62.69 -41.28,63.79 -41.33,64.89 -41.52,66.30 -41.70,67.71 -41.80,68.78 -41.90,69.85 -42.00,71.06 -42.10,72.28 -42.10,73.38 -42.11,74.48 -42.20,75.66 -42.29,76.84 -42.41,78.17 -42.53,79.50 -42.50,80.73 -42.48,81.96 -42.58,83.08 -42.67,84.21 -42.67,85.30 -42.67,86.38 -42.68,87.68 -42.68,88.97 -42.68,90.14 -42.68,91.32 -42.68,92.52 -42.68,93.71 -42.68,94.80 -42.68,95.90 -42.68,96.96 -42.67,98.03 -41.61,98.42 -40.55,98.81 -39.09,98.99 -37.62,99.17 -36.18,99.40 -34.74,99.63 -33.42,99.63 -32.10,99.62 -29.86,99.70 -27.63,99.78 -27.01,99.88 -26.39,99.99 -25.84,100.28 -25.29,100.57 -24.86,101.03 -24.43,101.48 -24.17,102.05 -23.91,102.62 -23.85,103.24 -23.78,103.86 -23.92,104.47 -24.05,105.08 -24.38,105.62 -24.70,106.15 -25.18,106.56 -25.66,106.96 -26.24,107.19 -26.82,107.42 -27.44,107.45 -28.07,107.48 -28.67,107.31 -29.27,107.14 -29.79,106.79 -30.30,106.44 -30.68,105.94 -31.06,105.44 -31.26,104.85 -31.45,104.25 -31.45,103.63 -31.45,103.00 -31.25,102.41 -31.05,101.82 -30.67,101.32 -30.29,100.83 -29.77,100.48 -29.25,100.13 -28.65,99.97 -28.04,99.80 -27.42,99.84 -26.79,99.87 -26.21,100.11 -25.63,100.34 -25.16,100.75 -24.68,101.15 -24.36,101.69 -24.04,102.23 -23.91,102.84 -23.78,103.45 -23.85,104.07 -23.92,104.69 -24.18,105.26 -24.45,105.82 -24.88,106.27 -25.31,106.73 -25.86,107.02 -26.42,107.31 -27.03,107.41 -27.65,107.51 -27.65,107.51 -27.65,107.51 -29.88,107.43 -32.10,107.35 -33.44,107.34 -34.78,107.33 -36.02,107.21 -37.26,107.10 -38.40,106.91 -39.54,106.73 -40.67,106.54 -41.80,106.36 -42.87,106.07 -43.93,105.77 -45.15,105.34 -46.36,104.90 -47.25,104.31 -48.15,103.72 -49.16,102.38 -50.17,101.03 -50.31,99.53 -50.45,98.03 -50.45,96.96 -50.45,95.90 -50.45,94.80 -50.45,93.71 -50.45,92.52 -50.45,91.32 -50.45,90.14 -50.45,88.97 -50.45,87.68 -50.45,86.38 -50.45,85.27 -50.45,84.16 -50.35,83.04 -50.26,81.91 -50.26,80.80 -50.25,79.68 -50.16,78.44 -50.06,77.21 -49.96,76.04 -49.86,74.87 -49.86,73.78 -49.86,72.69 -49.77,71.46 -49.67,70.23 -49.57,69.04 -49.46,67.85 -49.35,66.70 -49.24,65.56 -49.07,64.22 -48.91,62.89 -48.72,61.62 -48.53,60.34 -47.69,61.44 -46.85,62.54 -47.81,61.89 -48.77,61.24 -49.80,60.53 -50.82,59.81 -51.84,59.07 -52.86,58.33 -54.19,57.52 -55.53,56.71 -56.70,56.24 -57.88,55.76 -58.87,55.09 -59.86,54.41 -59.04,51.15 -58.21,47.89 -57.03,47.42 -55.84,46.94 -54.66,46.41 -53.47,45.88 -52.38,45.33 -51.28,44.77 -50.39,44.18 -49.51,43.59 -48.86,42.72 -48.21,41.85 -47.98,40.55 -47.74,39.26 -47.66,37.93 -47.58,36.61 -47.57,35.40 -47.57,34.19 -47.56,33.02 -47.55,31.85 -47.44,30.43 -47.34,29.00 -47.24,27.94 -47.14,26.87 -47.02,25.68 -46.91,24.50 -46.76,23.02 -46.62,21.55 -46.51,20.33 -46.40,19.11 -46.19,17.77 -45.98,16.43 -45.80,15.26 -45.62,14.08 -45.45,12.66 -45.29,11.23 -45.02,9.83 -44.75,8.42 -44.40,7.41 -44.05,6.40 -43.79,5.18 -43.52,3.96 -43.25,2.91 -42.98,1.87 -42.63,0.73 -42.28,-0.40 -41.48,-1.30 -40.67,-2.21 -39.30,-2.63 -37.93,-3.04 -36.77,-3.09 -35.61,-3.15 -34.40,-3.08 -33.20,-3.01 -31.80,-2.92 -30.40,-2.84 -29.13,-2.77 -27.87,-2.70 -26.90,-2.66 -25.93,-2.63 -25.61,-2.59 -25.30,-2.55 -25.00,-2.44 -24.70,-2.33 -24.44,-2.15 -24.18,-1.97 -23.97,-1.73 -23.76,-1.49 -23.61,-1.21 -23.46,-0.93 -23.39,-0.62 -23.31,-0.31 -23.31,0.00 -23.31,0.31 -23.39,0.62 -23.46,0.93 -23.61,1.21 -23.76,1.49 -23.97,1.73 -24.18,1.97 -24.44,2.15 -24.70,2.33 -25.00,2.44 -25.30,2.55 -25.61,2.59 -25.93,2.63 -25.93,2.63 L -25.93,2.63 Z"></path></g><g transform="translate(634.3244736118231 73.88516025037552) rotate(175.41045389689123 -41.69128801573822 51.82393466380131)" stroke="none" fill="currentColor"><path d="M -25.93,2.63 Q -25.93,2.63 -26.90,2.66 -27.87,2.70 -29.13,2.77 -30.40,2.84 -31.80,2.92 -33.20,3.01 -34.40,3.08 -35.61,3.15 -36.24,4.53 -36.87,5.91 -37.08,7.21 -37.30,8.50 -37.66,10.30 -38.02,12.10 -38.13,13.16 -38.23,14.22 -38.41,15.65 -38.59,17.08 -38.82,18.25 -39.06,19.43 -39.07,20.56 -39.08,21.70 -39.26,23.19 -39.43,24.68 -39.53,25.80 -39.63,26.92 -39.71,28.06 -39.80,29.21 -39.90,30.31 -39.99,31.41 -39.99,32.48 -39.99,33.55 -39.98,34.69 -39.98,35.83 -39.97,37.05 -39.96,38.28 -40.15,39.90 -40.35,41.52 -40.61,42.82 -40.88,44.13 -41.33,45.09 -41.79,46.06 -42.51,47.06 -43.23,48.07 -43.96,48.94 -44.69,49.82 -45.58,50.45 -46.46,51.07 -47.94,51.87 -49.42,52.67 -50.41,53.05 -51.41,53.44 -52.69,53.96 -53.97,54.49 -54.45,51.90 -54.92,49.31 -55.85,48.68 -56.79,48.06 -55.22,48.59 -53.65,49.12 -52.55,49.62 -51.44,50.12 -50.48,50.70 -49.52,51.28 -48.59,51.87 -47.66,52.46 -46.44,53.41 -45.21,54.36 -44.16,55.10 -43.11,55.85 -42.13,56.98 -41.16,58.10 -40.99,59.27 -40.81,60.43 -41.02,61.56 -41.22,62.69 -41.28,63.79 -41.33,64.89 -41.52,66.30 -41.70,67.71 -41.80,68.78 -41.90,69.85 -42.00,71.06 -42.10,72.28 -42.10,73.38 -42.11,74.48 -42.20,75.66 -42.29,76.84 -42.41,78.17 -42.53,79.50 -42.50,80.73 -42.48,81.96 -42.58,83.08 -42.67,84.21 -42.67,85.30 -42.67,86.38 -42.68,87.68 -42.68,88.97 -42.68,90.14 -42.68,91.32 -42.68,92.52 -42.68,93.71 -42.68,94.80 -42.68,95.90 -42.68,96.96 -42.67,98.03 -41.61,98.42 -40.55,98.81 -39.09,98.99 -37.62,99.17 -36.18,99.40 -34.74,99.63 -33.42,99.63 -32.10,99.62 -29.86,99.70 -27.63,99.78 -27.01,99.88 -26.39,99.99 -25.84,100.28 -25.29,100.57 -24.86,101.03 -24.43,101.48 -24.17,102.05 -23.91,102.62 -23.85,103.24 -23.78,103.86 -23.92,104.47 -24.05,105.08 -24.38,105.62 -24.70,106.15 -25.18,106.56 -25.66,106.96 -26.24,107.19 -26.82,107.42 -27.44,107.45 -28.07,107.48 -28.67,107.31 -29.27,107.14 -29.79,106.79 -30.30,106.44 -30.68,105.94 -31.06,105.44 -31.26,104.85 -31.45,104.25 -31.45,103.63 -31.45,103.00 -31.25,102.41 -31.05,101.82 -30.67,101.32 -30.29,100.83 -29.77,100.48 -29.25,100.13 -28.65,99.97 -28.04,99.80 -27.42,99.84 -26.79,99.87 -26.21,100.11 -25.63,100.34 -25.16,100.75 -24.68,101.15 -24.36,101.69 -24.04,102.23 -23.91,102.84 -23.78,103.45 -23.85,104.07 -23.92,104.69 -24.18,105.26 -24.45,105.82 -24.88,106.27 -25.31,106.73 -25.86,107.02 -26.42,107.31 -27.03,107.41 -27.65,107.51 -27.65,107.51 -27.65,107.51 -29.88,107.43 -32.10,107.35 -33.44,107.34 -34.78,107.33 -36.02,107.21 -37.26,107.10 -38.40,106.91 -39.54,106.73 -40.67,106.54 -41.80,106.36 -42.87,106.07 -43.93,105.77 -45.15,105.34 -46.36,104.90 -47.25,104.31 -48.15,103.72 -49.16,102.38 -50.17,101.03 -50.31,99.53 -50.45,98.03 -50.45,96.96 -50.45,95.90 -50.45,94.80 -50.45,93.71 -50.45,92.52 -50.45,91.32 -50.45,90.14 -50.45,88.97 -50.45,87.68 -50.45,86.38 -50.45,85.27 -50.45,84.16 -50.35,83.04 -50.26,81.91 -50.26,80.80 -50.25,79.68 -50.16,78.44 -50.06,77.21 -49.96,76.04 -49.86,74.87 -49.86,73.78 -49.86,72.69 -49.77,71.46 -49.67,70.23 -49.57,69.04 -49.46,67.85 -49.35,66.70 -49.24,65.56 -49.07,64.22 -48.91,62.89 -48.72,61.62 -48.53,60.34 -47.69,61.44 -46.85,62.54 -47.81,61.89 -48.77,61.24 -49.80,60.53 -50.82,59.81 -51.84,59.07 -52.86,58.33 -54.19,57.52 -55.53,56.71 -56.70,56.24 -57.88,55.76 -58.87,55.09 -59.86,54.41 -59.04,51.15 -58.21,47.89 -57.03,47.42 -55.84,46.94 -54.66,46.41 -53.47,45.88 -52.38,45.33 -51.28,44.77 -50.39,44.18 -49.51,43.59 -48.86,42.72 -48.21,41.85 -47.98,40.55 -47.74,39.26 -47.66,37.93 -47.58,36.61 -47.57,35.40 -47.57,34.19 -47.56,33.02 -47.55,31.85 -47.44,30.43 -47.34,29.00 -47.24,27.94 -47.14,26.87 -47.02,25.68 -46.91,24.50 -46.76,23.02 -46.62,21.55 -46.51,20.33 -46.40,19.11 -46.19,17.77 -45.98,16.43 -45.80,15.26 -45.62,14.08 -45.45,12.66 -45.29,11.23 -45.02,9.83 -44.75,8.42 -44.40,7.41 -44.05,6.40 -43.79,5.18 -43.52,3.96 -43.25,2.91 -42.98,1.87 -42.63,0.73 -42.28,-0.40 -41.48,-1.30 -40.67,-2.21 -39.30,-2.63 -37.93,-3.04 -36.77,-3.09 -35.61,-3.15 -34.40,-3.08 -33.20,-3.01 -31.80,-2.92 -30.40,-2.84 -29.13,-2.77 -27.87,-2.70 -26.90,-2.66 -25.93,-2.63 -25.61,-2.59 -25.30,-2.55 -25.00,-2.44 -24.70,-2.33 -24.44,-2.15 -24.18,-1.97 -23.97,-1.73 -23.76,-1.49 -23.61,-1.21 -23.46,-0.93 -23.39,-0.62 -23.31,-0.31 -23.31,0.00 -23.31,0.31 -23.39,0.62 -23.46,0.93 -23.61,1.21 -23.76,1.49 -23.97,1.73 -24.18,1.97 -24.44,2.15 -24.70,2.33 -25.00,2.44 -25.30,2.55 -25.61,2.59 -25.93,2.63 -25.93,2.63 L -25.93,2.63 Z"></path></g><g transform="translate(413.13869794136235 15.239490383998827) rotate(0 84 22.5)"><text x="0" y="32" font-family="Bradley Hand" font-size="36px" fill="currentColor" text-anchor="start" style="white-space: pre;" direction="ltr">prototype</text></g><g transform="translate(414.9317941144909 85.89159542234756) rotate(0 83 17.5)"><text x="0" y="25" font-family="Bradley Hand" font-size="28px" fill="currentColor" text-anchor="start" style="white-space: pre;" direction="ltr">:constructor</text></g><g stroke-linecap="round" transform="translate(229.47526931851417 10) rotate(0 14.434773763020758 23.846567789713617)"><path d="M0.01 -1.25 C7.09 0.32, 16.19 0.5, 29.51 -1.36 M0.45 -0.31 C9.07 -0.17, 18.68 0.58, 29.77 0.61 M28.05 0.53 C28.44 13, 28.69 29.32, 28.05 48.46 M28.35 -0.36 C30.1 13.19, 28.78 24.95, 28.98 47.36 M30.48 48.92 C21.79 45.66, 9.95 46, -0.36 48.56 M28.81 47.39 C19.44 47.56, 9 47.46, 0.3 46.94 M1.11 46.63 C-1.24 34.46, -0.07 20.77, 1 0.07 M-0.45 47.58 C1.04 32.3, 0.83 14.65, -0.85 -0.19" stroke="currentColor" stroke-width="1" fill="none"></path></g><g transform="translate(234.19471105028515 16.892425537109375) rotate(0 8 17.5)"><text x="8" y="25" font-family="Bradley Hand" font-size="28px" fill="currentColor" text-anchor="middle" style="white-space: pre;" direction="ltr">F</text></g><g stroke-linecap="round"><g transform="translate(208.63064448127466 149.3848876953125) rotate(0 80.99193181321027 1.0510348332379635)"><path d="M-0.75 -0.8 C26.19 -0.54, 135.47 1.04, 162.74 1.56 M1.05 1.39 C27.77 1.82, 135.1 3.08, 161.97 2.89" stroke="currentColor" stroke-width="1" fill="none"></path></g><g transform="translate(208.63064448127466 149.3848876953125) rotate(0 80.99193181321027 1.0510348332379635)"><path d="M161.82 3.86 L147.36 10.37 L147.44 -2.73 L162.84 3.49" stroke="none" stroke-width="0" fill="currentColor" fill-rule="evenodd"></path><path d="M160.97 3.32 C156.16 5.82, 151.83 6.68, 148.82 10.6 M161.61 2.79 C157.38 5.3, 154.09 7.27, 148.31 8.47 M148.37 8.53 C148.59 5.75, 147.92 1.17, 147.95 -2.78 M148.96 9.54 C148.2 6.45, 148.51 3.88, 148.48 -3.78 M149.85 -4.98 C151.52 -3.04, 155.66 0.58, 162.86 3.39 M149.1 -3.62 C153.24 -1.69, 157 -0.08, 161.97 3.39 M161.97 2.89 C161.97 2.89, 161.97 2.89, 161.97 2.89 M161.97 2.89 C161.97 2.89, 161.97 2.89, 161.97 2.89" stroke="currentColor" stroke-width="1" fill="none"></path></g></g><g stroke-linecap="round"><g transform="translate(409.1492398588789 103.9400634765625) rotate(0 -76.7028527898807 -0.9246926806173406)"><path d="M-0.8 0.35 C-26.34 0.42, -127.95 0, -153.22 -0.32 M0.98 -0.51 C-24.75 -0.74, -128.72 -2.17, -154.38 -2.21" stroke="currentColor" stroke-width="1" fill="none"></path></g><g transform="translate(409.1492398588789 103.9400634765625) rotate(0 -76.7028527898807 -0.9246926806173406)"><path d="M-153.41 -3.2 L-139.54 -9.4 L-140.07 5.12 L-153.78 -2.34" stroke="none" stroke-width="0" fill="currentColor" fill-rule="evenodd"></path><path d="M-153.95 -2.71 C-149.68 -3.51, -147.16 -5.39, -139.31 -8.2 M-154.48 -2.53 C-149.19 -3.61, -144.49 -6.48, -141.44 -8.17 M-141.38 -8.26 C-139.91 -5.67, -140.27 -2.31, -140.12 2.99 M-140.38 -8.66 C-140.99 -5.22, -141.04 -2.07, -141.12 4.09 M-142.32 3.57 C-147.25 1.65, -150.54 0.36, -153.88 -2.08 M-140.96 4.9 C-145 2.71, -149.34 0.58, -153.88 -2.11 M-154.38 -2.21 C-154.38 -2.21, -154.38 -2.21, -154.38 -2.21 M-154.38 -2.21 C-154.38 -2.21, -154.38 -2.21, -154.38 -2.21" stroke="currentColor" stroke-width="1" fill="none"></path></g></g><g transform="translate(775.8482603535399 79.85118362388039) rotate(357.1915199662063 -41.69128801573822 51.82393466380131)" stroke="none" fill="currentColor"><path d="M -25.93,2.63 Q -25.93,2.63 -26.90,2.66 -27.87,2.70 -29.13,2.77 -30.40,2.84 -31.80,2.92 -33.20,3.01 -34.40,3.08 -35.61,3.15 -36.24,4.53 -36.87,5.91 -37.08,7.21 -37.30,8.50 -37.66,10.30 -38.02,12.10 -38.13,13.16 -38.23,14.22 -38.41,15.65 -38.59,17.08 -38.82,18.25 -39.06,19.43 -39.07,20.56 -39.08,21.70 -39.26,23.19 -39.43,24.68 -39.53,25.80 -39.63,26.92 -39.71,28.06 -39.80,29.21 -39.90,30.31 -39.99,31.41 -39.99,32.48 -39.99,33.55 -39.98,34.69 -39.98,35.83 -39.97,37.05 -39.96,38.28 -40.15,39.90 -40.35,41.52 -40.61,42.82 -40.88,44.13 -41.33,45.09 -41.79,46.06 -42.51,47.06 -43.23,48.07 -43.96,48.94 -44.69,49.82 -45.58,50.45 -46.46,51.07 -47.94,51.87 -49.42,52.67 -50.41,53.05 -51.41,53.44 -52.69,53.96 -53.97,54.49 -54.45,51.90 -54.92,49.31 -55.85,48.68 -56.79,48.06 -55.22,48.59 -53.65,49.12 -52.55,49.62 -51.44,50.12 -50.48,50.70 -49.52,51.28 -48.59,51.87 -47.66,52.46 -46.44,53.41 -45.21,54.36 -44.16,55.10 -43.11,55.85 -42.13,56.98 -41.16,58.10 -40.99,59.27 -40.81,60.43 -41.02,61.56 -41.22,62.69 -41.28,63.79 -41.33,64.89 -41.52,66.30 -41.70,67.71 -41.80,68.78 -41.90,69.85 -42.00,71.06 -42.10,72.28 -42.10,73.38 -42.11,74.48 -42.20,75.66 -42.29,76.84 -42.41,78.17 -42.53,79.50 -42.50,80.73 -42.48,81.96 -42.58,83.08 -42.67,84.21 -42.67,85.30 -42.67,86.38 -42.68,87.68 -42.68,88.97 -42.68,90.14 -42.68,91.32 -42.68,92.52 -42.68,93.71 -42.68,94.80 -42.68,95.90 -42.68,96.96 -42.67,98.03 -41.61,98.42 -40.55,98.81 -39.09,98.99 -37.62,99.17 -36.18,99.40 -34.74,99.63 -33.42,99.63 -32.10,99.62 -29.86,99.70 -27.63,99.78 -27.01,99.88 -26.39,99.99 -25.84,100.28 -25.29,100.57 -24.86,101.03 -24.43,101.48 -24.17,102.05 -23.91,102.62 -23.85,103.24 -23.78,103.86 -23.92,104.47 -24.05,105.08 -24.38,105.62 -24.70,106.15 -25.18,106.56 -25.66,106.96 -26.24,107.19 -26.82,107.42 -27.44,107.45 -28.07,107.48 -28.67,107.31 -29.27,107.14 -29.79,106.79 -30.30,106.44 -30.68,105.94 -31.06,105.44 -31.26,104.85 -31.45,104.25 -31.45,103.63 -31.45,103.00 -31.25,102.41 -31.05,101.82 -30.67,101.32 -30.29,100.83 -29.77,100.48 -29.25,100.13 -28.65,99.97 -28.04,99.80 -27.42,99.84 -26.79,99.87 -26.21,100.11 -25.63,100.34 -25.16,100.75 -24.68,101.15 -24.36,101.69 -24.04,102.23 -23.91,102.84 -23.78,103.45 -23.85,104.07 -23.92,104.69 -24.18,105.26 -24.45,105.82 -24.88,106.27 -25.31,106.73 -25.86,107.02 -26.42,107.31 -27.03,107.41 -27.65,107.51 -27.65,107.51 -27.65,107.51 -29.88,107.43 -32.10,107.35 -33.44,107.34 -34.78,107.33 -36.02,107.21 -37.26,107.10 -38.40,106.91 -39.54,106.73 -40.67,106.54 -41.80,106.36 -42.87,106.07 -43.93,105.77 -45.15,105.34 -46.36,104.90 -47.25,104.31 -48.15,103.72 -49.16,102.38 -50.17,101.03 -50.31,99.53 -50.45,98.03 -50.45,96.96 -50.45,95.90 -50.45,94.80 -50.45,93.71 -50.45,92.52 -50.45,91.32 -50.45,90.14 -50.45,88.97 -50.45,87.68 -50.45,86.38 -50.45,85.27 -50.45,84.16 -50.35,83.04 -50.26,81.91 -50.26,80.80 -50.25,79.68 -50.16,78.44 -50.06,77.21 -49.96,76.04 -49.86,74.87 -49.86,73.78 -49.86,72.69 -49.77,71.46 -49.67,70.23 -49.57,69.04 -49.46,67.85 -49.35,66.70 -49.24,65.56 -49.07,64.22 -48.91,62.89 -48.72,61.62 -48.53,60.34 -47.69,61.44 -46.85,62.54 -47.81,61.89 -48.77,61.24 -49.80,60.53 -50.82,59.81 -51.84,59.07 -52.86,58.33 -54.19,57.52 -55.53,56.71 -56.70,56.24 -57.88,55.76 -58.87,55.09 -59.86,54.41 -59.04,51.15 -58.21,47.89 -57.03,47.42 -55.84,46.94 -54.66,46.41 -53.47,45.88 -52.38,45.33 -51.28,44.77 -50.39,44.18 -49.51,43.59 -48.86,42.72 -48.21,41.85 -47.98,40.55 -47.74,39.26 -47.66,37.93 -47.58,36.61 -47.57,35.40 -47.57,34.19 -47.56,33.02 -47.55,31.85 -47.44,30.43 -47.34,29.00 -47.24,27.94 -47.14,26.87 -47.02,25.68 -46.91,24.50 -46.76,23.02 -46.62,21.55 -46.51,20.33 -46.40,19.11 -46.19,17.77 -45.98,16.43 -45.80,15.26 -45.62,14.08 -45.45,12.66 -45.29,11.23 -45.02,9.83 -44.75,8.42 -44.40,7.41 -44.05,6.40 -43.79,5.18 -43.52,3.96 -43.25,2.91 -42.98,1.87 -42.63,0.73 -42.28,-0.40 -41.48,-1.30 -40.67,-2.21 -39.30,-2.63 -37.93,-3.04 -36.77,-3.09 -35.61,-3.15 -34.40,-3.08 -33.20,-3.01 -31.80,-2.92 -30.40,-2.84 -29.13,-2.77 -27.87,-2.70 -26.90,-2.66 -25.93,-2.63 -25.61,-2.59 -25.30,-2.55 -25.00,-2.44 -24.70,-2.33 -24.44,-2.15 -24.18,-1.97 -23.97,-1.73 -23.76,-1.49 -23.61,-1.21 -23.46,-0.93 -23.39,-0.62 -23.31,-0.31 -23.31,0.00 -23.31,0.31 -23.39,0.62 -23.46,0.93 -23.61,1.21 -23.76,1.49 -23.97,1.73 -24.18,1.97 -24.44,2.15 -24.70,2.33 -25.00,2.44 -25.30,2.55 -25.61,2.59 -25.93,2.63 -25.93,2.63 L -25.93,2.63 Z"></path></g><g transform="translate(986.5051264180947 80.18370516131881) rotate(175.41045389689123 -41.69128801573822 51.82393466380131)" stroke="none" fill="currentColor"><path d="M -25.93,2.63 Q -25.93,2.63 -26.90,2.66 -27.87,2.70 -29.13,2.77 -30.40,2.84 -31.80,2.92 -33.20,3.01 -34.40,3.08 -35.61,3.15 -36.24,4.53 -36.87,5.91 -37.08,7.21 -37.30,8.50 -37.66,10.30 -38.02,12.10 -38.13,13.16 -38.23,14.22 -38.41,15.65 -38.59,17.08 -38.82,18.25 -39.06,19.43 -39.07,20.56 -39.08,21.70 -39.26,23.19 -39.43,24.68 -39.53,25.80 -39.63,26.92 -39.71,28.06 -39.80,29.21 -39.90,30.31 -39.99,31.41 -39.99,32.48 -39.99,33.55 -39.98,34.69 -39.98,35.83 -39.97,37.05 -39.96,38.28 -40.15,39.90 -40.35,41.52 -40.61,42.82 -40.88,44.13 -41.33,45.09 -41.79,46.06 -42.51,47.06 -43.23,48.07 -43.96,48.94 -44.69,49.82 -45.58,50.45 -46.46,51.07 -47.94,51.87 -49.42,52.67 -50.41,53.05 -51.41,53.44 -52.69,53.96 -53.97,54.49 -54.45,51.90 -54.92,49.31 -55.85,48.68 -56.79,48.06 -55.22,48.59 -53.65,49.12 -52.55,49.62 -51.44,50.12 -50.48,50.70 -49.52,51.28 -48.59,51.87 -47.66,52.46 -46.44,53.41 -45.21,54.36 -44.16,55.10 -43.11,55.85 -42.13,56.98 -41.16,58.10 -40.99,59.27 -40.81,60.43 -41.02,61.56 -41.22,62.69 -41.28,63.79 -41.33,64.89 -41.52,66.30 -41.70,67.71 -41.80,68.78 -41.90,69.85 -42.00,71.06 -42.10,72.28 -42.10,73.38 -42.11,74.48 -42.20,75.66 -42.29,76.84 -42.41,78.17 -42.53,79.50 -42.50,80.73 -42.48,81.96 -42.58,83.08 -42.67,84.21 -42.67,85.30 -42.67,86.38 -42.68,87.68 -42.68,88.97 -42.68,90.14 -42.68,91.32 -42.68,92.52 -42.68,93.71 -42.68,94.80 -42.68,95.90 -42.68,96.96 -42.67,98.03 -41.61,98.42 -40.55,98.81 -39.09,98.99 -37.62,99.17 -36.18,99.40 -34.74,99.63 -33.42,99.63 -32.10,99.62 -29.86,99.70 -27.63,99.78 -27.01,99.88 -26.39,99.99 -25.84,100.28 -25.29,100.57 -24.86,101.03 -24.43,101.48 -24.17,102.05 -23.91,102.62 -23.85,103.24 -23.78,103.86 -23.92,104.47 -24.05,105.08 -24.38,105.62 -24.70,106.15 -25.18,106.56 -25.66,106.96 -26.24,107.19 -26.82,107.42 -27.44,107.45 -28.07,107.48 -28.67,107.31 -29.27,107.14 -29.79,106.79 -30.30,106.44 -30.68,105.94 -31.06,105.44 -31.26,104.85 -31.45,104.25 -31.45,103.63 -31.45,103.00 -31.25,102.41 -31.05,101.82 -30.67,101.32 -30.29,100.83 -29.77,100.48 -29.25,100.13 -28.65,99.97 -28.04,99.80 -27.42,99.84 -26.79,99.87 -26.21,100.11 -25.63,100.34 -25.16,100.75 -24.68,101.15 -24.36,101.69 -24.04,102.23 -23.91,102.84 -23.78,103.45 -23.85,104.07 -23.92,104.69 -24.18,105.26 -24.45,105.82 -24.88,106.27 -25.31,106.73 -25.86,107.02 -26.42,107.31 -27.03,107.41 -27.65,107.51 -27.65,107.51 -27.65,107.51 -29.88,107.43 -32.10,107.35 -33.44,107.34 -34.78,107.33 -36.02,107.21 -37.26,107.10 -38.40,106.91 -39.54,106.73 -40.67,106.54 -41.80,106.36 -42.87,106.07 -43.93,105.77 -45.15,105.34 -46.36,104.90 -47.25,104.31 -48.15,103.72 -49.16,102.38 -50.17,101.03 -50.31,99.53 -50.45,98.03 -50.45,96.96 -50.45,95.90 -50.45,94.80 -50.45,93.71 -50.45,92.52 -50.45,91.32 -50.45,90.14 -50.45,88.97 -50.45,87.68 -50.45,86.38 -50.45,85.27 -50.45,84.16 -50.35,83.04 -50.26,81.91 -50.26,80.80 -50.25,79.68 -50.16,78.44 -50.06,77.21 -49.96,76.04 -49.86,74.87 -49.86,73.78 -49.86,72.69 -49.77,71.46 -49.67,70.23 -49.57,69.04 -49.46,67.85 -49.35,66.70 -49.24,65.56 -49.07,64.22 -48.91,62.89 -48.72,61.62 -48.53,60.34 -47.69,61.44 -46.85,62.54 -47.81,61.89 -48.77,61.24 -49.80,60.53 -50.82,59.81 -51.84,59.07 -52.86,58.33 -54.19,57.52 -55.53,56.71 -56.70,56.24 -57.88,55.76 -58.87,55.09 -59.86,54.41 -59.04,51.15 -58.21,47.89 -57.03,47.42 -55.84,46.94 -54.66,46.41 -53.47,45.88 -52.38,45.33 -51.28,44.77 -50.39,44.18 -49.51,43.59 -48.86,42.72 -48.21,41.85 -47.98,40.55 -47.74,39.26 -47.66,37.93 -47.58,36.61 -47.57,35.40 -47.57,34.19 -47.56,33.02 -47.55,31.85 -47.44,30.43 -47.34,29.00 -47.24,27.94 -47.14,26.87 -47.02,25.68 -46.91,24.50 -46.76,23.02 -46.62,21.55 -46.51,20.33 -46.40,19.11 -46.19,17.77 -45.98,16.43 -45.80,15.26 -45.62,14.08 -45.45,12.66 -45.29,11.23 -45.02,9.83 -44.75,8.42 -44.40,7.41 -44.05,6.40 -43.79,5.18 -43.52,3.96 -43.25,2.91 -42.98,1.87 -42.63,0.73 -42.28,-0.40 -41.48,-1.30 -40.67,-2.21 -39.30,-2.63 -37.93,-3.04 -36.77,-3.09 -35.61,-3.15 -34.40,-3.08 -33.20,-3.01 -31.80,-2.92 -30.40,-2.84 -29.13,-2.77 -27.87,-2.70 -26.90,-2.66 -25.93,-2.63 -25.61,-2.59 -25.30,-2.55 -25.00,-2.44 -24.70,-2.33 -24.44,-2.15 -24.18,-1.97 -23.97,-1.73 -23.76,-1.49 -23.61,-1.21 -23.46,-0.93 -23.39,-0.62 -23.31,-0.31 -23.31,0.00 -23.31,0.31 -23.39,0.62 -23.46,0.93 -23.61,1.21 -23.76,1.49 -23.97,1.73 -24.18,1.97 -24.44,2.15 -24.70,2.33 -25.00,2.44 -25.30,2.55 -25.61,2.59 -25.93,2.63 -25.93,2.63 L -25.93,2.63 Z"></path></g><g transform="translate(768.1972656749977 25.0157654413631) rotate(0 71.5 22.5)"><text x="0" y="32" font-family="Bradley Hand" font-size="36px" fill="currentColor" text-anchor="start" style="white-space: pre;" direction="ltr">instance</text></g><g transform="translate(748.5366683834354 126.23467952754982) rotate(0 86 17.5)"><text x="0" y="25" font-family="Bradley Hand" font-size="28px" fill="currentColor" text-anchor="start" style="white-space: pre;" direction="ltr">:__proto__</text></g><g stroke-linecap="round"><g transform="translate(744.4198871803069 142.97117971328862) rotate(0 -58.28965685075809 -6.128127099261633)"><path d="M-0.82 0.37 C-20.42 -1.8, -97.69 -10.37, -117.18 -12.63 M0.95 -0.48 C-18.75 -2.46, -97.66 -9.06, -117.53 -10.99" stroke="currentColor" stroke-width="1" fill="none"></path></g><g transform="translate(744.4198871803069 142.97117971328862) rotate(0 -58.28965685075809 -6.128127099261633)"><path d="M-116.66 -10.39 L-103.56 -15.63 L-104.37 -4.8 L-116.37 -11.35" stroke="none" stroke-width="0" fill="currentColor" fill-rule="evenodd"></path><path d="M-117.07 -9.57 C-112.55 -11.95, -108.49 -15.07, -103.61 -16.75 M-117.58 -11.7 C-112.2 -13.24, -107.14 -14.77, -103.81 -15.99 M-103.87 -15.37 C-105.15 -12.15, -104.76 -5.67, -103.84 -3.93 M-103.35 -16.37 C-103.87 -12.16, -103.64 -8.63, -105.18 -3.75 M-103.67 -2.97 C-107.26 -5.15, -110.67 -5.3, -117.77 -9.68 M-104.56 -2.97 C-108.03 -5.21, -112.09 -8.03, -117.13 -10.9 M-117.53 -10.99 C-117.53 -10.99, -117.53 -10.99, -117.53 -10.99 M-117.53 -10.99 C-117.53 -10.99, -117.53 -10.99, -117.53 -10.99" stroke="currentColor" stroke-width="1" fill="none"></path></g></g><g transform="translate(767.4569166384181 276.61809765001044) rotate(357.1915199662063 -41.69128801573822 51.82393466380131)" stroke="none" fill="currentColor"><path d="M -25.93,2.63 Q -25.93,2.63 -26.90,2.66 -27.87,2.70 -29.13,2.77 -30.40,2.84 -31.80,2.92 -33.20,3.01 -34.40,3.08 -35.61,3.15 -36.24,4.53 -36.87,5.91 -37.08,7.21 -37.30,8.50 -37.66,10.30 -38.02,12.10 -38.13,13.16 -38.23,14.22 -38.41,15.65 -38.59,17.08 -38.82,18.25 -39.06,19.43 -39.07,20.56 -39.08,21.70 -39.26,23.19 -39.43,24.68 -39.53,25.80 -39.63,26.92 -39.71,28.06 -39.80,29.21 -39.90,30.31 -39.99,31.41 -39.99,32.48 -39.99,33.55 -39.98,34.69 -39.98,35.83 -39.97,37.05 -39.96,38.28 -40.15,39.90 -40.35,41.52 -40.61,42.82 -40.88,44.13 -41.33,45.09 -41.79,46.06 -42.51,47.06 -43.23,48.07 -43.96,48.94 -44.69,49.82 -45.58,50.45 -46.46,51.07 -47.94,51.87 -49.42,52.67 -50.41,53.05 -51.41,53.44 -52.69,53.96 -53.97,54.49 -54.45,51.90 -54.92,49.31 -55.85,48.68 -56.79,48.06 -55.22,48.59 -53.65,49.12 -52.55,49.62 -51.44,50.12 -50.48,50.70 -49.52,51.28 -48.59,51.87 -47.66,52.46 -46.44,53.41 -45.21,54.36 -44.16,55.10 -43.11,55.85 -42.13,56.98 -41.16,58.10 -40.99,59.27 -40.81,60.43 -41.02,61.56 -41.22,62.69 -41.28,63.79 -41.33,64.89 -41.52,66.30 -41.70,67.71 -41.80,68.78 -41.90,69.85 -42.00,71.06 -42.10,72.28 -42.10,73.38 -42.11,74.48 -42.20,75.66 -42.29,76.84 -42.41,78.17 -42.53,79.50 -42.50,80.73 -42.48,81.96 -42.58,83.08 -42.67,84.21 -42.67,85.30 -42.67,86.38 -42.68,87.68 -42.68,88.97 -42.68,90.14 -42.68,91.32 -42.68,92.52 -42.68,93.71 -42.68,94.80 -42.68,95.90 -42.68,96.96 -42.67,98.03 -41.61,98.42 -40.55,98.81 -39.09,98.99 -37.62,99.17 -36.18,99.40 -34.74,99.63 -33.42,99.63 -32.10,99.62 -29.86,99.70 -27.63,99.78 -27.01,99.88 -26.39,99.99 -25.84,100.28 -25.29,100.57 -24.86,101.03 -24.43,101.48 -24.17,102.05 -23.91,102.62 -23.85,103.24 -23.78,103.86 -23.92,104.47 -24.05,105.08 -24.38,105.62 -24.70,106.15 -25.18,106.56 -25.66,106.96 -26.24,107.19 -26.82,107.42 -27.44,107.45 -28.07,107.48 -28.67,107.31 -29.27,107.14 -29.79,106.79 -30.30,106.44 -30.68,105.94 -31.06,105.44 -31.26,104.85 -31.45,104.25 -31.45,103.63 -31.45,103.00 -31.25,102.41 -31.05,101.82 -30.67,101.32 -30.29,100.83 -29.77,100.48 -29.25,100.13 -28.65,99.97 -28.04,99.80 -27.42,99.84 -26.79,99.87 -26.21,100.11 -25.63,100.34 -25.16,100.75 -24.68,101.15 -24.36,101.69 -24.04,102.23 -23.91,102.84 -23.78,103.45 -23.85,104.07 -23.92,104.69 -24.18,105.26 -24.45,105.82 -24.88,106.27 -25.31,106.73 -25.86,107.02 -26.42,107.31 -27.03,107.41 -27.65,107.51 -27.65,107.51 -27.65,107.51 -29.88,107.43 -32.10,107.35 -33.44,107.34 -34.78,107.33 -36.02,107.21 -37.26,107.10 -38.40,106.91 -39.54,106.73 -40.67,106.54 -41.80,106.36 -42.87,106.07 -43.93,105.77 -45.15,105.34 -46.36,104.90 -47.25,104.31 -48.15,103.72 -49.16,102.38 -50.17,101.03 -50.31,99.53 -50.45,98.03 -50.45,96.96 -50.45,95.90 -50.45,94.80 -50.45,93.71 -50.45,92.52 -50.45,91.32 -50.45,90.14 -50.45,88.97 -50.45,87.68 -50.45,86.38 -50.45,85.27 -50.45,84.16 -50.35,83.04 -50.26,81.91 -50.26,80.80 -50.25,79.68 -50.16,78.44 -50.06,77.21 -49.96,76.04 -49.86,74.87 -49.86,73.78 -49.86,72.69 -49.77,71.46 -49.67,70.23 -49.57,69.04 -49.46,67.85 -49.35,66.70 -49.24,65.56 -49.07,64.22 -48.91,62.89 -48.72,61.62 -48.53,60.34 -47.69,61.44 -46.85,62.54 -47.81,61.89 -48.77,61.24 -49.80,60.53 -50.82,59.81 -51.84,59.07 -52.86,58.33 -54.19,57.52 -55.53,56.71 -56.70,56.24 -57.88,55.76 -58.87,55.09 -59.86,54.41 -59.04,51.15 -58.21,47.89 -57.03,47.42 -55.84,46.94 -54.66,46.41 -53.47,45.88 -52.38,45.33 -51.28,44.77 -50.39,44.18 -49.51,43.59 -48.86,42.72 -48.21,41.85 -47.98,40.55 -47.74,39.26 -47.66,37.93 -47.58,36.61 -47.57,35.40 -47.57,34.19 -47.56,33.02 -47.55,31.85 -47.44,30.43 -47.34,29.00 -47.24,27.94 -47.14,26.87 -47.02,25.68 -46.91,24.50 -46.76,23.02 -46.62,21.55 -46.51,20.33 -46.40,19.11 -46.19,17.77 -45.98,16.43 -45.80,15.26 -45.62,14.08 -45.45,12.66 -45.29,11.23 -45.02,9.83 -44.75,8.42 -44.40,7.41 -44.05,6.40 -43.79,5.18 -43.52,3.96 -43.25,2.91 -42.98,1.87 -42.63,0.73 -42.28,-0.40 -41.48,-1.30 -40.67,-2.21 -39.30,-2.63 -37.93,-3.04 -36.77,-3.09 -35.61,-3.15 -34.40,-3.08 -33.20,-3.01 -31.80,-2.92 -30.40,-2.84 -29.13,-2.77 -27.87,-2.70 -26.90,-2.66 -25.93,-2.63 -25.61,-2.59 -25.30,-2.55 -25.00,-2.44 -24.70,-2.33 -24.44,-2.15 -24.18,-1.97 -23.97,-1.73 -23.76,-1.49 -23.61,-1.21 -23.46,-0.93 -23.39,-0.62 -23.31,-0.31 -23.31,0.00 -23.31,0.31 -23.39,0.62 -23.46,0.93 -23.61,1.21 -23.76,1.49 -23.97,1.73 -24.18,1.97 -24.44,2.15 -24.70,2.33 -25.00,2.44 -25.30,2.55 -25.61,2.59 -25.93,2.63 -25.93,2.63 L -25.93,2.63 Z"></path></g><g transform="translate(978.1137827029729 276.95061918744886) rotate(175.41045389689123 -41.69128801573822 51.82393466380131)" stroke="none" fill="currentColor"><path d="M -25.93,2.63 Q -25.93,2.63 -26.90,2.66 -27.87,2.70 -29.13,2.77 -30.40,2.84 -31.80,2.92 -33.20,3.01 -34.40,3.08 -35.61,3.15 -36.24,4.53 -36.87,5.91 -37.08,7.21 -37.30,8.50 -37.66,10.30 -38.02,12.10 -38.13,13.16 -38.23,14.22 -38.41,15.65 -38.59,17.08 -38.82,18.25 -39.06,19.43 -39.07,20.56 -39.08,21.70 -39.26,23.19 -39.43,24.68 -39.53,25.80 -39.63,26.92 -39.71,28.06 -39.80,29.21 -39.90,30.31 -39.99,31.41 -39.99,32.48 -39.99,33.55 -39.98,34.69 -39.98,35.83 -39.97,37.05 -39.96,38.28 -40.15,39.90 -40.35,41.52 -40.61,42.82 -40.88,44.13 -41.33,45.09 -41.79,46.06 -42.51,47.06 -43.23,48.07 -43.96,48.94 -44.69,49.82 -45.58,50.45 -46.46,51.07 -47.94,51.87 -49.42,52.67 -50.41,53.05 -51.41,53.44 -52.69,53.96 -53.97,54.49 -54.45,51.90 -54.92,49.31 -55.85,48.68 -56.79,48.06 -55.22,48.59 -53.65,49.12 -52.55,49.62 -51.44,50.12 -50.48,50.70 -49.52,51.28 -48.59,51.87 -47.66,52.46 -46.44,53.41 -45.21,54.36 -44.16,55.10 -43.11,55.85 -42.13,56.98 -41.16,58.10 -40.99,59.27 -40.81,60.43 -41.02,61.56 -41.22,62.69 -41.28,63.79 -41.33,64.89 -41.52,66.30 -41.70,67.71 -41.80,68.78 -41.90,69.85 -42.00,71.06 -42.10,72.28 -42.10,73.38 -42.11,74.48 -42.20,75.66 -42.29,76.84 -42.41,78.17 -42.53,79.50 -42.50,80.73 -42.48,81.96 -42.58,83.08 -42.67,84.21 -42.67,85.30 -42.67,86.38 -42.68,87.68 -42.68,88.97 -42.68,90.14 -42.68,91.32 -42.68,92.52 -42.68,93.71 -42.68,94.80 -42.68,95.90 -42.68,96.96 -42.67,98.03 -41.61,98.42 -40.55,98.81 -39.09,98.99 -37.62,99.17 -36.18,99.40 -34.74,99.63 -33.42,99.63 -32.10,99.62 -29.86,99.70 -27.63,99.78 -27.01,99.88 -26.39,99.99 -25.84,100.28 -25.29,100.57 -24.86,101.03 -24.43,101.48 -24.17,102.05 -23.91,102.62 -23.85,103.24 -23.78,103.86 -23.92,104.47 -24.05,105.08 -24.38,105.62 -24.70,106.15 -25.18,106.56 -25.66,106.96 -26.24,107.19 -26.82,107.42 -27.44,107.45 -28.07,107.48 -28.67,107.31 -29.27,107.14 -29.79,106.79 -30.30,106.44 -30.68,105.94 -31.06,105.44 -31.26,104.85 -31.45,104.25 -31.45,103.63 -31.45,103.00 -31.25,102.41 -31.05,101.82 -30.67,101.32 -30.29,100.83 -29.77,100.48 -29.25,100.13 -28.65,99.97 -28.04,99.80 -27.42,99.84 -26.79,99.87 -26.21,100.11 -25.63,100.34 -25.16,100.75 -24.68,101.15 -24.36,101.69 -24.04,102.23 -23.91,102.84 -23.78,103.45 -23.85,104.07 -23.92,104.69 -24.18,105.26 -24.45,105.82 -24.88,106.27 -25.31,106.73 -25.86,107.02 -26.42,107.31 -27.03,107.41 -27.65,107.51 -27.65,107.51 -27.65,107.51 -29.88,107.43 -32.10,107.35 -33.44,107.34 -34.78,107.33 -36.02,107.21 -37.26,107.10 -38.40,106.91 -39.54,106.73 -40.67,106.54 -41.80,106.36 -42.87,106.07 -43.93,105.77 -45.15,105.34 -46.36,104.90 -47.25,104.31 -48.15,103.72 -49.16,102.38 -50.17,101.03 -50.31,99.53 -50.45,98.03 -50.45,96.96 -50.45,95.90 -50.45,94.80 -50.45,93.71 -50.45,92.52 -50.45,91.32 -50.45,90.14 -50.45,88.97 -50.45,87.68 -50.45,86.38 -50.45,85.27 -50.45,84.16 -50.35,83.04 -50.26,81.91 -50.26,80.80 -50.25,79.68 -50.16,78.44 -50.06,77.21 -49.96,76.04 -49.86,74.87 -49.86,73.78 -49.86,72.69 -49.77,71.46 -49.67,70.23 -49.57,69.04 -49.46,67.85 -49.35,66.70 -49.24,65.56 -49.07,64.22 -48.91,62.89 -48.72,61.62 -48.53,60.34 -47.69,61.44 -46.85,62.54 -47.81,61.89 -48.77,61.24 -49.80,60.53 -50.82,59.81 -51.84,59.07 -52.86,58.33 -54.19,57.52 -55.53,56.71 -56.70,56.24 -57.88,55.76 -58.87,55.09 -59.86,54.41 -59.04,51.15 -58.21,47.89 -57.03,47.42 -55.84,46.94 -54.66,46.41 -53.47,45.88 -52.38,45.33 -51.28,44.77 -50.39,44.18 -49.51,43.59 -48.86,42.72 -48.21,41.85 -47.98,40.55 -47.74,39.26 -47.66,37.93 -47.58,36.61 -47.57,35.40 -47.57,34.19 -47.56,33.02 -47.55,31.85 -47.44,30.43 -47.34,29.00 -47.24,27.94 -47.14,26.87 -47.02,25.68 -46.91,24.50 -46.76,23.02 -46.62,21.55 -46.51,20.33 -46.40,19.11 -46.19,17.77 -45.98,16.43 -45.80,15.26 -45.62,14.08 -45.45,12.66 -45.29,11.23 -45.02,9.83 -44.75,8.42 -44.40,7.41 -44.05,6.40 -43.79,5.18 -43.52,3.96 -43.25,2.91 -42.98,1.87 -42.63,0.73 -42.28,-0.40 -41.48,-1.30 -40.67,-2.21 -39.30,-2.63 -37.93,-3.04 -36.77,-3.09 -35.61,-3.15 -34.40,-3.08 -33.20,-3.01 -31.80,-2.92 -30.40,-2.84 -29.13,-2.77 -27.87,-2.70 -26.90,-2.66 -25.93,-2.63 -25.61,-2.59 -25.30,-2.55 -25.00,-2.44 -24.70,-2.33 -24.44,-2.15 -24.18,-1.97 -23.97,-1.73 -23.76,-1.49 -23.61,-1.21 -23.46,-0.93 -23.39,-0.62 -23.31,-0.31 -23.31,0.00 -23.31,0.31 -23.39,0.62 -23.46,0.93 -23.61,1.21 -23.76,1.49 -23.97,1.73 -24.18,1.97 -24.44,2.15 -24.70,2.33 -25.00,2.44 -25.30,2.55 -25.61,2.59 -25.93,2.63 -25.93,2.63 L -25.93,2.63 Z"></path></g><g transform="translate(742.9736465692508 221.6555127194465) rotate(0 93.5 22.5)"><text x="0" y="32" font-family="Bradley Hand" font-size="36px" fill="currentColor" text-anchor="start" style="white-space: pre;" direction="ltr">instance 2</text></g><g transform="translate(741.2717895120636 323.3746404286803) rotate(0 86 17.5)"><text x="0" y="25" font-family="Bradley Hand" font-size="28px" fill="currentColor" text-anchor="start" style="white-space: pre;" direction="ltr">:__proto__</text></g><g stroke-linecap="round"><g transform="translate(734.4512330926955 340.96828557480967) rotate(0 -60.879141400662775 -77.25045668766506)"><path d="M-0.38 -0.58 C-20.8 -26.71, -102.18 -130.56, -122.36 -156.23 M1.63 1.73 C-18.98 -24.29, -102.81 -128.61, -123.39 -154.97" stroke="currentColor" stroke-width="1" fill="none"></path></g><g transform="translate(734.4512330926955 340.96828557480967) rotate(0 -60.879141400662775 -77.25045668766506)"><path d="M-124.72 -153.81 L-110.32 -148.58 L-118.3 -139.83 L-123.28 -156.09" stroke="none" stroke-width="0" fill="currentColor" fill-rule="evenodd"></path><path d="M-124.11 -155.16 C-119.78 -151.87, -113.54 -149.78, -110.06 -149.67 M-123.38 -155.35 C-118.82 -152.27, -114.74 -150.23, -110.24 -147.83 M-108.76 -147.54 C-112.47 -147.08, -113.86 -145.55, -119.75 -140.94 M-109.36 -148.88 C-112.93 -146.54, -115.49 -143.58, -119.53 -140.17 M-118.49 -140.62 C-119.66 -145.28, -121.59 -150.53, -123.39 -153.97 M-120.25 -139.97 C-120.98 -144.34, -121.79 -149.51, -123.1 -155.64 M-123.39 -154.97 C-123.39 -154.97, -123.39 -154.97, -123.39 -154.97 M-123.39 -154.97 C-123.39 -154.97, -123.39 -154.97, -123.39 -154.97" stroke="currentColor" stroke-width="1" fill="none"></path></g></g><g transform="translate(781.7205812372263 93.3547217959449) rotate(0 62.5 17.5)"><text x="0" y="25" font-family="Bradley Hand" font-size="28px" fill="currentColor" text-anchor="start" style="white-space: pre;" direction="ltr">foo: 'bar'</text></g><g transform="translate(763.5372316278517 287.8889625186007) rotate(0 64.5 17.5)"><text x="0" y="25" font-family="Bradley Hand" font-size="28px" fill="currentColor" text-anchor="start" style="white-space: pre;" direction="ltr">foo: 'baz'</text></g><g transform="translate(439.30810885311166 124.15404063153323) rotate(0 47 17.5)"><text x="0" y="25" font-family="Bradley Hand" font-size="28px" fill="#c92a2a" text-anchor="start" style="white-space: pre;" direction="ltr">xyz: ƒ </text></g></svg>
