<svg version="1.1" xmlns="http://www.w3.org/2000/svg" viewBox="0 0 597.2842188370686 418.39390556992385" width="597.2842188370686" height="418.39390556992385">
  <!-- svg-source:excalidraw -->

  <defs>
    <style>
      <!-- svg { -->
      <!--   color: #f9f5d7; -->
      <!--   fill: #1d2021; -->
      <!-- } -->
      <!-- @media (prefers-color-scheme: light) { -->
        svg {
          color: #1d2021;
          <!-- fill: #f9f5d7; -->
          fill: #fcfcfc;
        }
      <!-- } -->
    </style>
  </defs>
  <rect x="0" y="0" width="597.2842188370686" height="418.39390556992385" fill="none"></rect><g transform="translate(79.89470621035628 73.95826992064758) rotate(357.1915199662063 -41.69128801573822 51.82393466380108)" stroke="none" fill="currentColor"><path d="M -25.93,2.63 Q -25.93,2.63 -26.90,2.66 -27.87,2.70 -29.13,2.77 -30.40,2.84 -31.80,2.92 -33.20,3.01 -34.40,3.08 -35.61,3.15 -36.24,4.53 -36.87,5.91 -37.08,7.21 -37.30,8.50 -37.66,10.30 -38.02,12.10 -38.13,13.16 -38.23,14.22 -38.41,15.65 -38.59,17.08 -38.82,18.25 -39.06,19.43 -39.07,20.56 -39.08,21.70 -39.26,23.19 -39.43,24.68 -39.53,25.80 -39.63,26.92 -39.71,28.06 -39.80,29.21 -39.90,30.31 -39.99,31.41 -39.99,32.48 -39.99,33.55 -39.98,34.69 -39.98,35.83 -39.97,37.05 -39.96,38.28 -40.15,39.90 -40.35,41.52 -40.61,42.82 -40.88,44.13 -41.33,45.09 -41.79,46.06 -42.51,47.06 -43.23,48.07 -43.96,48.94 -44.69,49.82 -45.58,50.45 -46.46,51.07 -47.94,51.87 -49.42,52.67 -50.41,53.05 -51.41,53.44 -52.69,53.96 -53.97,54.49 -54.45,51.90 -54.92,49.31 -55.85,48.68 -56.79,48.06 -55.22,48.59 -53.65,49.12 -52.55,49.62 -51.44,50.12 -50.48,50.70 -49.52,51.28 -48.59,51.87 -47.66,52.46 -46.44,53.41 -45.21,54.36 -44.16,55.10 -43.11,55.85 -42.13,56.98 -41.16,58.10 -40.99,59.27 -40.81,60.43 -41.02,61.56 -41.22,62.69 -41.28,63.79 -41.33,64.89 -41.52,66.30 -41.70,67.71 -41.80,68.78 -41.90,69.85 -42.00,71.06 -42.10,72.28 -42.10,73.38 -42.11,74.48 -42.20,75.66 -42.29,76.84 -42.41,78.17 -42.53,79.50 -42.50,80.73 -42.48,81.96 -42.58,83.08 -42.67,84.21 -42.67,85.30 -42.67,86.38 -42.68,87.68 -42.68,88.97 -42.68,90.14 -42.68,91.32 -42.68,92.52 -42.68,93.71 -42.68,94.80 -42.68,95.90 -42.68,96.96 -42.67,98.03 -41.61,98.42 -40.55,98.81 -39.09,98.99 -37.62,99.17 -36.18,99.40 -34.74,99.63 -33.42,99.63 -32.10,99.62 -29.86,99.70 -27.63,99.78 -27.01,99.88 -26.39,99.99 -25.84,100.28 -25.29,100.57 -24.86,101.03 -24.43,101.48 -24.17,102.05 -23.91,102.62 -23.85,103.24 -23.78,103.86 -23.92,104.47 -24.05,105.08 -24.38,105.62 -24.70,106.15 -25.18,106.56 -25.66,106.96 -26.24,107.19 -26.82,107.42 -27.44,107.45 -28.07,107.48 -28.67,107.31 -29.27,107.14 -29.79,106.79 -30.30,106.44 -30.68,105.94 -31.06,105.44 -31.26,104.85 -31.45,104.25 -31.45,103.63 -31.45,103.00 -31.25,102.41 -31.05,101.82 -30.67,101.32 -30.29,100.83 -29.77,100.48 -29.25,100.13 -28.65,99.97 -28.04,99.80 -27.42,99.84 -26.79,99.87 -26.21,100.11 -25.63,100.34 -25.16,100.75 -24.68,101.15 -24.36,101.69 -24.04,102.23 -23.91,102.84 -23.78,103.45 -23.85,104.07 -23.92,104.69 -24.18,105.26 -24.45,105.82 -24.88,106.27 -25.31,106.73 -25.86,107.02 -26.42,107.31 -27.03,107.41 -27.65,107.51 -27.65,107.51 -27.65,107.51 -29.88,107.43 -32.10,107.35 -33.44,107.34 -34.78,107.33 -36.02,107.21 -37.26,107.10 -38.40,106.91 -39.54,106.73 -40.67,106.54 -41.80,106.36 -42.87,106.07 -43.93,105.77 -45.15,105.34 -46.36,104.90 -47.25,104.31 -48.15,103.72 -49.16,102.38 -50.17,101.03 -50.31,99.53 -50.45,98.03 -50.45,96.96 -50.45,95.90 -50.45,94.80 -50.45,93.71 -50.45,92.52 -50.45,91.32 -50.45,90.14 -50.45,88.97 -50.45,87.68 -50.45,86.38 -50.45,85.27 -50.45,84.16 -50.35,83.04 -50.26,81.91 -50.26,80.80 -50.25,79.68 -50.16,78.44 -50.06,77.21 -49.96,76.04 -49.86,74.87 -49.86,73.78 -49.86,72.69 -49.77,71.46 -49.67,70.23 -49.57,69.04 -49.46,67.85 -49.35,66.70 -49.24,65.56 -49.07,64.22 -48.91,62.89 -48.72,61.62 -48.53,60.34 -47.69,61.44 -46.85,62.54 -47.81,61.89 -48.77,61.24 -49.80,60.53 -50.82,59.81 -51.84,59.07 -52.86,58.33 -54.19,57.52 -55.53,56.71 -56.70,56.24 -57.88,55.76 -58.87,55.09 -59.86,54.41 -59.04,51.15 -58.21,47.89 -57.03,47.42 -55.84,46.94 -54.66,46.41 -53.47,45.88 -52.38,45.33 -51.28,44.77 -50.39,44.18 -49.51,43.59 -48.86,42.72 -48.21,41.85 -47.98,40.55 -47.74,39.26 -47.66,37.93 -47.58,36.61 -47.57,35.40 -47.57,34.19 -47.56,33.02 -47.55,31.85 -47.44,30.43 -47.34,29.00 -47.24,27.94 -47.14,26.87 -47.02,25.68 -46.91,24.50 -46.76,23.02 -46.62,21.55 -46.51,20.33 -46.40,19.11 -46.19,17.77 -45.98,16.43 -45.80,15.26 -45.62,14.08 -45.45,12.66 -45.29,11.23 -45.02,9.83 -44.75,8.42 -44.40,7.41 -44.05,6.40 -43.79,5.18 -43.52,3.96 -43.25,2.91 -42.98,1.87 -42.63,0.73 -42.28,-0.40 -41.48,-1.30 -40.67,-2.21 -39.30,-2.63 -37.93,-3.04 -36.77,-3.09 -35.61,-3.15 -34.40,-3.08 -33.20,-3.01 -31.80,-2.92 -30.40,-2.84 -29.13,-2.77 -27.87,-2.70 -26.90,-2.66 -25.93,-2.63 -25.61,-2.59 -25.30,-2.55 -25.00,-2.44 -24.70,-2.33 -24.44,-2.15 -24.18,-1.97 -23.97,-1.73 -23.76,-1.49 -23.61,-1.21 -23.46,-0.93 -23.39,-0.62 -23.31,-0.31 -23.31,0.00 -23.31,0.31 -23.39,0.62 -23.46,0.93 -23.61,1.21 -23.76,1.49 -23.97,1.73 -24.18,1.97 -24.44,2.15 -24.70,2.33 -25.00,2.44 -25.30,2.55 -25.61,2.59 -25.93,2.63 -25.93,2.63 L -25.93,2.63 Z"></path></g><g transform="translate(278.0868370318552 74.25950754966652) rotate(175.41045389689123 -41.69128801573822 51.82393466380108)" stroke="none" fill="currentColor"><path d="M -25.93,2.63 Q -25.93,2.63 -26.90,2.66 -27.87,2.70 -29.13,2.77 -30.40,2.84 -31.80,2.92 -33.20,3.01 -34.40,3.08 -35.61,3.15 -36.24,4.53 -36.87,5.91 -37.08,7.21 -37.30,8.50 -37.66,10.30 -38.02,12.10 -38.13,13.16 -38.23,14.22 -38.41,15.65 -38.59,17.08 -38.82,18.25 -39.06,19.43 -39.07,20.56 -39.08,21.70 -39.26,23.19 -39.43,24.68 -39.53,25.80 -39.63,26.92 -39.71,28.06 -39.80,29.21 -39.90,30.31 -39.99,31.41 -39.99,32.48 -39.99,33.55 -39.98,34.69 -39.98,35.83 -39.97,37.05 -39.96,38.28 -40.15,39.90 -40.35,41.52 -40.61,42.82 -40.88,44.13 -41.33,45.09 -41.79,46.06 -42.51,47.06 -43.23,48.07 -43.96,48.94 -44.69,49.82 -45.58,50.45 -46.46,51.07 -47.94,51.87 -49.42,52.67 -50.41,53.05 -51.41,53.44 -52.69,53.96 -53.97,54.49 -54.45,51.90 -54.92,49.31 -55.85,48.68 -56.79,48.06 -55.22,48.59 -53.65,49.12 -52.55,49.62 -51.44,50.12 -50.48,50.70 -49.52,51.28 -48.59,51.87 -47.66,52.46 -46.44,53.41 -45.21,54.36 -44.16,55.10 -43.11,55.85 -42.13,56.98 -41.16,58.10 -40.99,59.27 -40.81,60.43 -41.02,61.56 -41.22,62.69 -41.28,63.79 -41.33,64.89 -41.52,66.30 -41.70,67.71 -41.80,68.78 -41.90,69.85 -42.00,71.06 -42.10,72.28 -42.10,73.38 -42.11,74.48 -42.20,75.66 -42.29,76.84 -42.41,78.17 -42.53,79.50 -42.50,80.73 -42.48,81.96 -42.58,83.08 -42.67,84.21 -42.67,85.30 -42.67,86.38 -42.68,87.68 -42.68,88.97 -42.68,90.14 -42.68,91.32 -42.68,92.52 -42.68,93.71 -42.68,94.80 -42.68,95.90 -42.68,96.96 -42.67,98.03 -41.61,98.42 -40.55,98.81 -39.09,98.99 -37.62,99.17 -36.18,99.40 -34.74,99.63 -33.42,99.63 -32.10,99.62 -29.86,99.70 -27.63,99.78 -27.01,99.88 -26.39,99.99 -25.84,100.28 -25.29,100.57 -24.86,101.03 -24.43,101.48 -24.17,102.05 -23.91,102.62 -23.85,103.24 -23.78,103.86 -23.92,104.47 -24.05,105.08 -24.38,105.62 -24.70,106.15 -25.18,106.56 -25.66,106.96 -26.24,107.19 -26.82,107.42 -27.44,107.45 -28.07,107.48 -28.67,107.31 -29.27,107.14 -29.79,106.79 -30.30,106.44 -30.68,105.94 -31.06,105.44 -31.26,104.85 -31.45,104.25 -31.45,103.63 -31.45,103.00 -31.25,102.41 -31.05,101.82 -30.67,101.32 -30.29,100.83 -29.77,100.48 -29.25,100.13 -28.65,99.97 -28.04,99.80 -27.42,99.84 -26.79,99.87 -26.21,100.11 -25.63,100.34 -25.16,100.75 -24.68,101.15 -24.36,101.69 -24.04,102.23 -23.91,102.84 -23.78,103.45 -23.85,104.07 -23.92,104.69 -24.18,105.26 -24.45,105.82 -24.88,106.27 -25.31,106.73 -25.86,107.02 -26.42,107.31 -27.03,107.41 -27.65,107.51 -27.65,107.51 -27.65,107.51 -29.88,107.43 -32.10,107.35 -33.44,107.34 -34.78,107.33 -36.02,107.21 -37.26,107.10 -38.40,106.91 -39.54,106.73 -40.67,106.54 -41.80,106.36 -42.87,106.07 -43.93,105.77 -45.15,105.34 -46.36,104.90 -47.25,104.31 -48.15,103.72 -49.16,102.38 -50.17,101.03 -50.31,99.53 -50.45,98.03 -50.45,96.96 -50.45,95.90 -50.45,94.80 -50.45,93.71 -50.45,92.52 -50.45,91.32 -50.45,90.14 -50.45,88.97 -50.45,87.68 -50.45,86.38 -50.45,85.27 -50.45,84.16 -50.35,83.04 -50.26,81.91 -50.26,80.80 -50.25,79.68 -50.16,78.44 -50.06,77.21 -49.96,76.04 -49.86,74.87 -49.86,73.78 -49.86,72.69 -49.77,71.46 -49.67,70.23 -49.57,69.04 -49.46,67.85 -49.35,66.70 -49.24,65.56 -49.07,64.22 -48.91,62.89 -48.72,61.62 -48.53,60.34 -47.69,61.44 -46.85,62.54 -47.81,61.89 -48.77,61.24 -49.80,60.53 -50.82,59.81 -51.84,59.07 -52.86,58.33 -54.19,57.52 -55.53,56.71 -56.70,56.24 -57.88,55.76 -58.87,55.09 -59.86,54.41 -59.04,51.15 -58.21,47.89 -57.03,47.42 -55.84,46.94 -54.66,46.41 -53.47,45.88 -52.38,45.33 -51.28,44.77 -50.39,44.18 -49.51,43.59 -48.86,42.72 -48.21,41.85 -47.98,40.55 -47.74,39.26 -47.66,37.93 -47.58,36.61 -47.57,35.40 -47.57,34.19 -47.56,33.02 -47.55,31.85 -47.44,30.43 -47.34,29.00 -47.24,27.94 -47.14,26.87 -47.02,25.68 -46.91,24.50 -46.76,23.02 -46.62,21.55 -46.51,20.33 -46.40,19.11 -46.19,17.77 -45.98,16.43 -45.80,15.26 -45.62,14.08 -45.45,12.66 -45.29,11.23 -45.02,9.83 -44.75,8.42 -44.40,7.41 -44.05,6.40 -43.79,5.18 -43.52,3.96 -43.25,2.91 -42.98,1.87 -42.63,0.73 -42.28,-0.40 -41.48,-1.30 -40.67,-2.21 -39.30,-2.63 -37.93,-3.04 -36.77,-3.09 -35.61,-3.15 -34.40,-3.08 -33.20,-3.01 -31.80,-2.92 -30.40,-2.84 -29.13,-2.77 -27.87,-2.70 -26.90,-2.66 -25.93,-2.63 -25.61,-2.59 -25.30,-2.55 -25.00,-2.44 -24.70,-2.33 -24.44,-2.15 -24.18,-1.97 -23.97,-1.73 -23.76,-1.49 -23.61,-1.21 -23.46,-0.93 -23.39,-0.62 -23.31,-0.31 -23.31,0.00 -23.31,0.31 -23.39,0.62 -23.46,0.93 -23.61,1.21 -23.76,1.49 -23.97,1.73 -24.18,1.97 -24.44,2.15 -24.70,2.33 -25.00,2.44 -25.30,2.55 -25.61,2.59 -25.93,2.63 -25.93,2.63 L -25.93,2.63 Z"></path></g><g transform="translate(50.44055110748798 21.381843054383353) rotate(0 87.5 22.5)"><text x="0" y="32" font-family="Bradley Hand" font-size="36px" fill="currentColor" text-anchor="start" style="white-space: pre;" direction="ltr">Prototype</text></g><g transform="translate(402.6100657378573 64.4834742127914) rotate(357.1915199662063 -41.69128801573822 51.82393466380108)" stroke="none" fill="currentColor"><path d="M -25.93,2.63 Q -25.93,2.63 -26.90,2.66 -27.87,2.70 -29.13,2.77 -30.40,2.84 -31.80,2.92 -33.20,3.01 -34.40,3.08 -35.61,3.15 -36.24,4.53 -36.87,5.91 -37.08,7.21 -37.30,8.50 -37.66,10.30 -38.02,12.10 -38.13,13.16 -38.23,14.22 -38.41,15.65 -38.59,17.08 -38.82,18.25 -39.06,19.43 -39.07,20.56 -39.08,21.70 -39.26,23.19 -39.43,24.68 -39.53,25.80 -39.63,26.92 -39.71,28.06 -39.80,29.21 -39.90,30.31 -39.99,31.41 -39.99,32.48 -39.99,33.55 -39.98,34.69 -39.98,35.83 -39.97,37.05 -39.96,38.28 -40.15,39.90 -40.35,41.52 -40.61,42.82 -40.88,44.13 -41.33,45.09 -41.79,46.06 -42.51,47.06 -43.23,48.07 -43.96,48.94 -44.69,49.82 -45.58,50.45 -46.46,51.07 -47.94,51.87 -49.42,52.67 -50.41,53.05 -51.41,53.44 -52.69,53.96 -53.97,54.49 -54.45,51.90 -54.92,49.31 -55.85,48.68 -56.79,48.06 -55.22,48.59 -53.65,49.12 -52.55,49.62 -51.44,50.12 -50.48,50.70 -49.52,51.28 -48.59,51.87 -47.66,52.46 -46.44,53.41 -45.21,54.36 -44.16,55.10 -43.11,55.85 -42.13,56.98 -41.16,58.10 -40.99,59.27 -40.81,60.43 -41.02,61.56 -41.22,62.69 -41.28,63.79 -41.33,64.89 -41.52,66.30 -41.70,67.71 -41.80,68.78 -41.90,69.85 -42.00,71.06 -42.10,72.28 -42.10,73.38 -42.11,74.48 -42.20,75.66 -42.29,76.84 -42.41,78.17 -42.53,79.50 -42.50,80.73 -42.48,81.96 -42.58,83.08 -42.67,84.21 -42.67,85.30 -42.67,86.38 -42.68,87.68 -42.68,88.97 -42.68,90.14 -42.68,91.32 -42.68,92.52 -42.68,93.71 -42.68,94.80 -42.68,95.90 -42.68,96.96 -42.67,98.03 -41.61,98.42 -40.55,98.81 -39.09,98.99 -37.62,99.17 -36.18,99.40 -34.74,99.63 -33.42,99.63 -32.10,99.62 -29.86,99.70 -27.63,99.78 -27.01,99.88 -26.39,99.99 -25.84,100.28 -25.29,100.57 -24.86,101.03 -24.43,101.48 -24.17,102.05 -23.91,102.62 -23.85,103.24 -23.78,103.86 -23.92,104.47 -24.05,105.08 -24.38,105.62 -24.70,106.15 -25.18,106.56 -25.66,106.96 -26.24,107.19 -26.82,107.42 -27.44,107.45 -28.07,107.48 -28.67,107.31 -29.27,107.14 -29.79,106.79 -30.30,106.44 -30.68,105.94 -31.06,105.44 -31.26,104.85 -31.45,104.25 -31.45,103.63 -31.45,103.00 -31.25,102.41 -31.05,101.82 -30.67,101.32 -30.29,100.83 -29.77,100.48 -29.25,100.13 -28.65,99.97 -28.04,99.80 -27.42,99.84 -26.79,99.87 -26.21,100.11 -25.63,100.34 -25.16,100.75 -24.68,101.15 -24.36,101.69 -24.04,102.23 -23.91,102.84 -23.78,103.45 -23.85,104.07 -23.92,104.69 -24.18,105.26 -24.45,105.82 -24.88,106.27 -25.31,106.73 -25.86,107.02 -26.42,107.31 -27.03,107.41 -27.65,107.51 -27.65,107.51 -27.65,107.51 -29.88,107.43 -32.10,107.35 -33.44,107.34 -34.78,107.33 -36.02,107.21 -37.26,107.10 -38.40,106.91 -39.54,106.73 -40.67,106.54 -41.80,106.36 -42.87,106.07 -43.93,105.77 -45.15,105.34 -46.36,104.90 -47.25,104.31 -48.15,103.72 -49.16,102.38 -50.17,101.03 -50.31,99.53 -50.45,98.03 -50.45,96.96 -50.45,95.90 -50.45,94.80 -50.45,93.71 -50.45,92.52 -50.45,91.32 -50.45,90.14 -50.45,88.97 -50.45,87.68 -50.45,86.38 -50.45,85.27 -50.45,84.16 -50.35,83.04 -50.26,81.91 -50.26,80.80 -50.25,79.68 -50.16,78.44 -50.06,77.21 -49.96,76.04 -49.86,74.87 -49.86,73.78 -49.86,72.69 -49.77,71.46 -49.67,70.23 -49.57,69.04 -49.46,67.85 -49.35,66.70 -49.24,65.56 -49.07,64.22 -48.91,62.89 -48.72,61.62 -48.53,60.34 -47.69,61.44 -46.85,62.54 -47.81,61.89 -48.77,61.24 -49.80,60.53 -50.82,59.81 -51.84,59.07 -52.86,58.33 -54.19,57.52 -55.53,56.71 -56.70,56.24 -57.88,55.76 -58.87,55.09 -59.86,54.41 -59.04,51.15 -58.21,47.89 -57.03,47.42 -55.84,46.94 -54.66,46.41 -53.47,45.88 -52.38,45.33 -51.28,44.77 -50.39,44.18 -49.51,43.59 -48.86,42.72 -48.21,41.85 -47.98,40.55 -47.74,39.26 -47.66,37.93 -47.58,36.61 -47.57,35.40 -47.57,34.19 -47.56,33.02 -47.55,31.85 -47.44,30.43 -47.34,29.00 -47.24,27.94 -47.14,26.87 -47.02,25.68 -46.91,24.50 -46.76,23.02 -46.62,21.55 -46.51,20.33 -46.40,19.11 -46.19,17.77 -45.98,16.43 -45.80,15.26 -45.62,14.08 -45.45,12.66 -45.29,11.23 -45.02,9.83 -44.75,8.42 -44.40,7.41 -44.05,6.40 -43.79,5.18 -43.52,3.96 -43.25,2.91 -42.98,1.87 -42.63,0.73 -42.28,-0.40 -41.48,-1.30 -40.67,-2.21 -39.30,-2.63 -37.93,-3.04 -36.77,-3.09 -35.61,-3.15 -34.40,-3.08 -33.20,-3.01 -31.80,-2.92 -30.40,-2.84 -29.13,-2.77 -27.87,-2.70 -26.90,-2.66 -25.93,-2.63 -25.61,-2.59 -25.30,-2.55 -25.00,-2.44 -24.70,-2.33 -24.44,-2.15 -24.18,-1.97 -23.97,-1.73 -23.76,-1.49 -23.61,-1.21 -23.46,-0.93 -23.39,-0.62 -23.31,-0.31 -23.31,0.00 -23.31,0.31 -23.39,0.62 -23.46,0.93 -23.61,1.21 -23.76,1.49 -23.97,1.73 -24.18,1.97 -24.44,2.15 -24.70,2.33 -25.00,2.44 -25.30,2.55 -25.61,2.59 -25.93,2.63 -25.93,2.63 L -25.93,2.63 Z"></path></g><g transform="translate(613.2669318024126 64.81599575022847) rotate(175.41045389689123 -41.69128801573822 51.82393466380108)" stroke="none" fill="currentColor"><path d="M -25.93,2.63 Q -25.93,2.63 -26.90,2.66 -27.87,2.70 -29.13,2.77 -30.40,2.84 -31.80,2.92 -33.20,3.01 -34.40,3.08 -35.61,3.15 -36.24,4.53 -36.87,5.91 -37.08,7.21 -37.30,8.50 -37.66,10.30 -38.02,12.10 -38.13,13.16 -38.23,14.22 -38.41,15.65 -38.59,17.08 -38.82,18.25 -39.06,19.43 -39.07,20.56 -39.08,21.70 -39.26,23.19 -39.43,24.68 -39.53,25.80 -39.63,26.92 -39.71,28.06 -39.80,29.21 -39.90,30.31 -39.99,31.41 -39.99,32.48 -39.99,33.55 -39.98,34.69 -39.98,35.83 -39.97,37.05 -39.96,38.28 -40.15,39.90 -40.35,41.52 -40.61,42.82 -40.88,44.13 -41.33,45.09 -41.79,46.06 -42.51,47.06 -43.23,48.07 -43.96,48.94 -44.69,49.82 -45.58,50.45 -46.46,51.07 -47.94,51.87 -49.42,52.67 -50.41,53.05 -51.41,53.44 -52.69,53.96 -53.97,54.49 -54.45,51.90 -54.92,49.31 -55.85,48.68 -56.79,48.06 -55.22,48.59 -53.65,49.12 -52.55,49.62 -51.44,50.12 -50.48,50.70 -49.52,51.28 -48.59,51.87 -47.66,52.46 -46.44,53.41 -45.21,54.36 -44.16,55.10 -43.11,55.85 -42.13,56.98 -41.16,58.10 -40.99,59.27 -40.81,60.43 -41.02,61.56 -41.22,62.69 -41.28,63.79 -41.33,64.89 -41.52,66.30 -41.70,67.71 -41.80,68.78 -41.90,69.85 -42.00,71.06 -42.10,72.28 -42.10,73.38 -42.11,74.48 -42.20,75.66 -42.29,76.84 -42.41,78.17 -42.53,79.50 -42.50,80.73 -42.48,81.96 -42.58,83.08 -42.67,84.21 -42.67,85.30 -42.67,86.38 -42.68,87.68 -42.68,88.97 -42.68,90.14 -42.68,91.32 -42.68,92.52 -42.68,93.71 -42.68,94.80 -42.68,95.90 -42.68,96.96 -42.67,98.03 -41.61,98.42 -40.55,98.81 -39.09,98.99 -37.62,99.17 -36.18,99.40 -34.74,99.63 -33.42,99.63 -32.10,99.62 -29.86,99.70 -27.63,99.78 -27.01,99.88 -26.39,99.99 -25.84,100.28 -25.29,100.57 -24.86,101.03 -24.43,101.48 -24.17,102.05 -23.91,102.62 -23.85,103.24 -23.78,103.86 -23.92,104.47 -24.05,105.08 -24.38,105.62 -24.70,106.15 -25.18,106.56 -25.66,106.96 -26.24,107.19 -26.82,107.42 -27.44,107.45 -28.07,107.48 -28.67,107.31 -29.27,107.14 -29.79,106.79 -30.30,106.44 -30.68,105.94 -31.06,105.44 -31.26,104.85 -31.45,104.25 -31.45,103.63 -31.45,103.00 -31.25,102.41 -31.05,101.82 -30.67,101.32 -30.29,100.83 -29.77,100.48 -29.25,100.13 -28.65,99.97 -28.04,99.80 -27.42,99.84 -26.79,99.87 -26.21,100.11 -25.63,100.34 -25.16,100.75 -24.68,101.15 -24.36,101.69 -24.04,102.23 -23.91,102.84 -23.78,103.45 -23.85,104.07 -23.92,104.69 -24.18,105.26 -24.45,105.82 -24.88,106.27 -25.31,106.73 -25.86,107.02 -26.42,107.31 -27.03,107.41 -27.65,107.51 -27.65,107.51 -27.65,107.51 -29.88,107.43 -32.10,107.35 -33.44,107.34 -34.78,107.33 -36.02,107.21 -37.26,107.10 -38.40,106.91 -39.54,106.73 -40.67,106.54 -41.80,106.36 -42.87,106.07 -43.93,105.77 -45.15,105.34 -46.36,104.90 -47.25,104.31 -48.15,103.72 -49.16,102.38 -50.17,101.03 -50.31,99.53 -50.45,98.03 -50.45,96.96 -50.45,95.90 -50.45,94.80 -50.45,93.71 -50.45,92.52 -50.45,91.32 -50.45,90.14 -50.45,88.97 -50.45,87.68 -50.45,86.38 -50.45,85.27 -50.45,84.16 -50.35,83.04 -50.26,81.91 -50.26,80.80 -50.25,79.68 -50.16,78.44 -50.06,77.21 -49.96,76.04 -49.86,74.87 -49.86,73.78 -49.86,72.69 -49.77,71.46 -49.67,70.23 -49.57,69.04 -49.46,67.85 -49.35,66.70 -49.24,65.56 -49.07,64.22 -48.91,62.89 -48.72,61.62 -48.53,60.34 -47.69,61.44 -46.85,62.54 -47.81,61.89 -48.77,61.24 -49.80,60.53 -50.82,59.81 -51.84,59.07 -52.86,58.33 -54.19,57.52 -55.53,56.71 -56.70,56.24 -57.88,55.76 -58.87,55.09 -59.86,54.41 -59.04,51.15 -58.21,47.89 -57.03,47.42 -55.84,46.94 -54.66,46.41 -53.47,45.88 -52.38,45.33 -51.28,44.77 -50.39,44.18 -49.51,43.59 -48.86,42.72 -48.21,41.85 -47.98,40.55 -47.74,39.26 -47.66,37.93 -47.58,36.61 -47.57,35.40 -47.57,34.19 -47.56,33.02 -47.55,31.85 -47.44,30.43 -47.34,29.00 -47.24,27.94 -47.14,26.87 -47.02,25.68 -46.91,24.50 -46.76,23.02 -46.62,21.55 -46.51,20.33 -46.40,19.11 -46.19,17.77 -45.98,16.43 -45.80,15.26 -45.62,14.08 -45.45,12.66 -45.29,11.23 -45.02,9.83 -44.75,8.42 -44.40,7.41 -44.05,6.40 -43.79,5.18 -43.52,3.96 -43.25,2.91 -42.98,1.87 -42.63,0.73 -42.28,-0.40 -41.48,-1.30 -40.67,-2.21 -39.30,-2.63 -37.93,-3.04 -36.77,-3.09 -35.61,-3.15 -34.40,-3.08 -33.20,-3.01 -31.80,-2.92 -30.40,-2.84 -29.13,-2.77 -27.87,-2.70 -26.90,-2.66 -25.93,-2.63 -25.61,-2.59 -25.30,-2.55 -25.00,-2.44 -24.70,-2.33 -24.44,-2.15 -24.18,-1.97 -23.97,-1.73 -23.76,-1.49 -23.61,-1.21 -23.46,-0.93 -23.39,-0.62 -23.31,-0.31 -23.31,0.00 -23.31,0.31 -23.39,0.62 -23.46,0.93 -23.61,1.21 -23.76,1.49 -23.97,1.73 -24.18,1.97 -24.44,2.15 -24.70,2.33 -25.00,2.44 -25.30,2.55 -25.61,2.59 -25.93,2.63 -25.93,2.63 L -25.93,2.63 Z"></path></g><g transform="translate(395.31109132298695 10) rotate(0 71.5 22.5)"><text x="0" y="32" font-family="Bradley Hand" font-size="36px" fill="currentColor" text-anchor="start" style="white-space: pre;" direction="ltr">instance</text></g><g transform="translate(375.29847376775285 110.86697011645992) rotate(0 86 17.5)"><text x="0" y="25" font-family="Bradley Hand" font-size="28px" fill="currentColor" text-anchor="start" style="white-space: pre;" direction="ltr">:__proto__</text></g><g stroke-linecap="round"><g transform="translate(374.64477872211626 128.63089069908528) rotate(0 -57.500299062553324 0.8330566803601869)"><path d="M0.22 -0.98 C-19.04 -0.95, -95.38 0.66, -114.9 1.08 M-1.12 1.11 C-20.49 1.28, -96.33 2.91, -115.22 2.62" stroke="currentColor" stroke-width="1" fill="none"></path></g><g transform="translate(374.64477872211626 128.63089069908528) rotate(0 -57.500299062553324 0.8330566803601869)"><path d="M-116.72 3.79 L-101.48 -2.69 L-101.32 7.39 L-113.5 2.28" stroke="none" stroke-width="0" fill="currentColor" fill-rule="evenodd"></path><path d="M-116.45 4.12 C-110.48 -0.68, -105.16 -1.63, -100.85 -5.02 M-115.93 2.13 C-112.33 1.51, -109.02 -0.41, -101.95 -4.19 M-100.58 -2.55 C-100.58 -0.43, -101.2 4.43, -100.76 10.06 M-101.49 -4.22 C-101.42 0.32, -101.03 4.97, -101.49 9.28 M-100.9 9 C-104.44 5.77, -109.35 4.71, -115.71 3.22 M-101.49 8.44 C-105.25 6.91, -107.78 5.57, -115.42 3.24 M-115.22 2.62 C-115.22 2.62, -115.22 2.62, -115.22 2.62 M-115.22 2.62 C-115.22 2.62, -115.22 2.62, -115.22 2.62" stroke="currentColor" stroke-width="1" fill="none"></path></g></g><g transform="translate(408.2007704106062 78.26862859579342) rotate(0 39.5 17.5)"><text x="0" y="25" font-family="Bradley Hand" font-size="28px" fill="currentColor" text-anchor="start" style="white-space: pre;" direction="ltr">a: 20</text></g><g transform="translate(80.40888169697166 71.55261888785572) rotate(0 45 17.5)"><text x="0" y="25" font-family="Bradley Hand" font-size="28px" fill="currentColor" text-anchor="start" style="white-space: pre;" direction="ltr">init: ƒ </text></g><g transform="translate(49.03347310050833 138.16319933219165) rotate(0 86 17.5)"><text x="0" y="25" font-family="Bradley Hand" font-size="28px" fill="#999" text-anchor="start" style="white-space: pre;" direction="ltr">__proto__:</text></g><g transform="translate(70.74850492389498 103.53603568648032) rotate(0 52 17.5)"><text x="0" y="25" font-family="Bradley Hand" font-size="28px" fill="currentColor" text-anchor="start" style="white-space: pre;" direction="ltr">addA: ƒ</text></g><g transform="translate(67.430393237531 303.35019609966366) rotate(357.1915199662063 -41.69128801573828 51.82393466380108)" stroke="none" fill="currentColor"><path d="M -25.93,2.63 Q -25.93,2.63 -26.90,2.66 -27.87,2.70 -29.13,2.77 -30.40,2.84 -31.80,2.92 -33.20,3.01 -34.40,3.08 -35.61,3.15 -36.24,4.53 -36.87,5.91 -37.08,7.21 -37.30,8.50 -37.66,10.30 -38.02,12.10 -38.13,13.16 -38.23,14.22 -38.41,15.65 -38.59,17.08 -38.82,18.25 -39.06,19.43 -39.07,20.56 -39.08,21.70 -39.26,23.19 -39.43,24.68 -39.53,25.80 -39.63,26.92 -39.71,28.06 -39.80,29.21 -39.90,30.31 -39.99,31.41 -39.99,32.48 -39.99,33.55 -39.98,34.69 -39.98,35.83 -39.97,37.05 -39.96,38.28 -40.15,39.90 -40.35,41.52 -40.61,42.82 -40.88,44.13 -41.33,45.09 -41.79,46.06 -42.51,47.06 -43.23,48.07 -43.96,48.94 -44.69,49.82 -45.58,50.45 -46.46,51.07 -47.94,51.87 -49.42,52.67 -50.41,53.05 -51.41,53.44 -52.69,53.96 -53.97,54.49 -54.45,51.90 -54.92,49.31 -55.85,48.68 -56.79,48.06 -55.22,48.59 -53.65,49.12 -52.55,49.62 -51.44,50.12 -50.48,50.70 -49.52,51.28 -48.59,51.87 -47.66,52.46 -46.44,53.41 -45.21,54.36 -44.16,55.10 -43.11,55.85 -42.13,56.98 -41.16,58.10 -40.99,59.27 -40.81,60.43 -41.02,61.56 -41.22,62.69 -41.28,63.79 -41.33,64.89 -41.52,66.30 -41.70,67.71 -41.80,68.78 -41.90,69.85 -42.00,71.06 -42.10,72.28 -42.10,73.38 -42.11,74.48 -42.20,75.66 -42.29,76.84 -42.41,78.17 -42.53,79.50 -42.50,80.73 -42.48,81.96 -42.58,83.08 -42.67,84.21 -42.67,85.30 -42.67,86.38 -42.68,87.68 -42.68,88.97 -42.68,90.14 -42.68,91.32 -42.68,92.52 -42.68,93.71 -42.68,94.80 -42.68,95.90 -42.68,96.96 -42.67,98.03 -41.61,98.42 -40.55,98.81 -39.09,98.99 -37.62,99.17 -36.18,99.40 -34.74,99.63 -33.42,99.63 -32.10,99.62 -29.86,99.70 -27.63,99.78 -27.01,99.88 -26.39,99.99 -25.84,100.28 -25.29,100.57 -24.86,101.03 -24.43,101.48 -24.17,102.05 -23.91,102.62 -23.85,103.24 -23.78,103.86 -23.92,104.47 -24.05,105.08 -24.38,105.62 -24.70,106.15 -25.18,106.56 -25.66,106.96 -26.24,107.19 -26.82,107.42 -27.44,107.45 -28.07,107.48 -28.67,107.31 -29.27,107.14 -29.79,106.79 -30.30,106.44 -30.68,105.94 -31.06,105.44 -31.26,104.85 -31.45,104.25 -31.45,103.63 -31.45,103.00 -31.25,102.41 -31.05,101.82 -30.67,101.32 -30.29,100.83 -29.77,100.48 -29.25,100.13 -28.65,99.97 -28.04,99.80 -27.42,99.84 -26.79,99.87 -26.21,100.11 -25.63,100.34 -25.16,100.75 -24.68,101.15 -24.36,101.69 -24.04,102.23 -23.91,102.84 -23.78,103.45 -23.85,104.07 -23.92,104.69 -24.18,105.26 -24.45,105.82 -24.88,106.27 -25.31,106.73 -25.86,107.02 -26.42,107.31 -27.03,107.41 -27.65,107.51 -27.65,107.51 -27.65,107.51 -29.88,107.43 -32.10,107.35 -33.44,107.34 -34.78,107.33 -36.02,107.21 -37.26,107.10 -38.40,106.91 -39.54,106.73 -40.67,106.54 -41.80,106.36 -42.87,106.07 -43.93,105.77 -45.15,105.34 -46.36,104.90 -47.25,104.31 -48.15,103.72 -49.16,102.38 -50.17,101.03 -50.31,99.53 -50.45,98.03 -50.45,96.96 -50.45,95.90 -50.45,94.80 -50.45,93.71 -50.45,92.52 -50.45,91.32 -50.45,90.14 -50.45,88.97 -50.45,87.68 -50.45,86.38 -50.45,85.27 -50.45,84.16 -50.35,83.04 -50.26,81.91 -50.26,80.80 -50.25,79.68 -50.16,78.44 -50.06,77.21 -49.96,76.04 -49.86,74.87 -49.86,73.78 -49.86,72.69 -49.77,71.46 -49.67,70.23 -49.57,69.04 -49.46,67.85 -49.35,66.70 -49.24,65.56 -49.07,64.22 -48.91,62.89 -48.72,61.62 -48.53,60.34 -47.69,61.44 -46.85,62.54 -47.81,61.89 -48.77,61.24 -49.80,60.53 -50.82,59.81 -51.84,59.07 -52.86,58.33 -54.19,57.52 -55.53,56.71 -56.70,56.24 -57.88,55.76 -58.87,55.09 -59.86,54.41 -59.04,51.15 -58.21,47.89 -57.03,47.42 -55.84,46.94 -54.66,46.41 -53.47,45.88 -52.38,45.33 -51.28,44.77 -50.39,44.18 -49.51,43.59 -48.86,42.72 -48.21,41.85 -47.98,40.55 -47.74,39.26 -47.66,37.93 -47.58,36.61 -47.57,35.40 -47.57,34.19 -47.56,33.02 -47.55,31.85 -47.44,30.43 -47.34,29.00 -47.24,27.94 -47.14,26.87 -47.02,25.68 -46.91,24.50 -46.76,23.02 -46.62,21.55 -46.51,20.33 -46.40,19.11 -46.19,17.77 -45.98,16.43 -45.80,15.26 -45.62,14.08 -45.45,12.66 -45.29,11.23 -45.02,9.83 -44.75,8.42 -44.40,7.41 -44.05,6.40 -43.79,5.18 -43.52,3.96 -43.25,2.91 -42.98,1.87 -42.63,0.73 -42.28,-0.40 -41.48,-1.30 -40.67,-2.21 -39.30,-2.63 -37.93,-3.04 -36.77,-3.09 -35.61,-3.15 -34.40,-3.08 -33.20,-3.01 -31.80,-2.92 -30.40,-2.84 -29.13,-2.77 -27.87,-2.70 -26.90,-2.66 -25.93,-2.63 -25.61,-2.59 -25.30,-2.55 -25.00,-2.44 -24.70,-2.33 -24.44,-2.15 -24.18,-1.97 -23.97,-1.73 -23.76,-1.49 -23.61,-1.21 -23.46,-0.93 -23.39,-0.62 -23.31,-0.31 -23.31,0.00 -23.31,0.31 -23.39,0.62 -23.46,0.93 -23.61,1.21 -23.76,1.49 -23.97,1.73 -24.18,1.97 -24.44,2.15 -24.70,2.33 -25.00,2.44 -25.30,2.55 -25.61,2.59 -25.93,2.63 -25.93,2.63 L -25.93,2.63 Z"></path></g><g transform="translate(265.62252405902984 303.6514337286808) rotate(175.41045389689123 -41.69128801573822 51.82393466380108)" stroke="none" fill="currentColor"><path d="M -25.93,2.63 Q -25.93,2.63 -26.90,2.66 -27.87,2.70 -29.13,2.77 -30.40,2.84 -31.80,2.92 -33.20,3.01 -34.40,3.08 -35.61,3.15 -36.24,4.53 -36.87,5.91 -37.08,7.21 -37.30,8.50 -37.66,10.30 -38.02,12.10 -38.13,13.16 -38.23,14.22 -38.41,15.65 -38.59,17.08 -38.82,18.25 -39.06,19.43 -39.07,20.56 -39.08,21.70 -39.26,23.19 -39.43,24.68 -39.53,25.80 -39.63,26.92 -39.71,28.06 -39.80,29.21 -39.90,30.31 -39.99,31.41 -39.99,32.48 -39.99,33.55 -39.98,34.69 -39.98,35.83 -39.97,37.05 -39.96,38.28 -40.15,39.90 -40.35,41.52 -40.61,42.82 -40.88,44.13 -41.33,45.09 -41.79,46.06 -42.51,47.06 -43.23,48.07 -43.96,48.94 -44.69,49.82 -45.58,50.45 -46.46,51.07 -47.94,51.87 -49.42,52.67 -50.41,53.05 -51.41,53.44 -52.69,53.96 -53.97,54.49 -54.45,51.90 -54.92,49.31 -55.85,48.68 -56.79,48.06 -55.22,48.59 -53.65,49.12 -52.55,49.62 -51.44,50.12 -50.48,50.70 -49.52,51.28 -48.59,51.87 -47.66,52.46 -46.44,53.41 -45.21,54.36 -44.16,55.10 -43.11,55.85 -42.13,56.98 -41.16,58.10 -40.99,59.27 -40.81,60.43 -41.02,61.56 -41.22,62.69 -41.28,63.79 -41.33,64.89 -41.52,66.30 -41.70,67.71 -41.80,68.78 -41.90,69.85 -42.00,71.06 -42.10,72.28 -42.10,73.38 -42.11,74.48 -42.20,75.66 -42.29,76.84 -42.41,78.17 -42.53,79.50 -42.50,80.73 -42.48,81.96 -42.58,83.08 -42.67,84.21 -42.67,85.30 -42.67,86.38 -42.68,87.68 -42.68,88.97 -42.68,90.14 -42.68,91.32 -42.68,92.52 -42.68,93.71 -42.68,94.80 -42.68,95.90 -42.68,96.96 -42.67,98.03 -41.61,98.42 -40.55,98.81 -39.09,98.99 -37.62,99.17 -36.18,99.40 -34.74,99.63 -33.42,99.63 -32.10,99.62 -29.86,99.70 -27.63,99.78 -27.01,99.88 -26.39,99.99 -25.84,100.28 -25.29,100.57 -24.86,101.03 -24.43,101.48 -24.17,102.05 -23.91,102.62 -23.85,103.24 -23.78,103.86 -23.92,104.47 -24.05,105.08 -24.38,105.62 -24.70,106.15 -25.18,106.56 -25.66,106.96 -26.24,107.19 -26.82,107.42 -27.44,107.45 -28.07,107.48 -28.67,107.31 -29.27,107.14 -29.79,106.79 -30.30,106.44 -30.68,105.94 -31.06,105.44 -31.26,104.85 -31.45,104.25 -31.45,103.63 -31.45,103.00 -31.25,102.41 -31.05,101.82 -30.67,101.32 -30.29,100.83 -29.77,100.48 -29.25,100.13 -28.65,99.97 -28.04,99.80 -27.42,99.84 -26.79,99.87 -26.21,100.11 -25.63,100.34 -25.16,100.75 -24.68,101.15 -24.36,101.69 -24.04,102.23 -23.91,102.84 -23.78,103.45 -23.85,104.07 -23.92,104.69 -24.18,105.26 -24.45,105.82 -24.88,106.27 -25.31,106.73 -25.86,107.02 -26.42,107.31 -27.03,107.41 -27.65,107.51 -27.65,107.51 -27.65,107.51 -29.88,107.43 -32.10,107.35 -33.44,107.34 -34.78,107.33 -36.02,107.21 -37.26,107.10 -38.40,106.91 -39.54,106.73 -40.67,106.54 -41.80,106.36 -42.87,106.07 -43.93,105.77 -45.15,105.34 -46.36,104.90 -47.25,104.31 -48.15,103.72 -49.16,102.38 -50.17,101.03 -50.31,99.53 -50.45,98.03 -50.45,96.96 -50.45,95.90 -50.45,94.80 -50.45,93.71 -50.45,92.52 -50.45,91.32 -50.45,90.14 -50.45,88.97 -50.45,87.68 -50.45,86.38 -50.45,85.27 -50.45,84.16 -50.35,83.04 -50.26,81.91 -50.26,80.80 -50.25,79.68 -50.16,78.44 -50.06,77.21 -49.96,76.04 -49.86,74.87 -49.86,73.78 -49.86,72.69 -49.77,71.46 -49.67,70.23 -49.57,69.04 -49.46,67.85 -49.35,66.70 -49.24,65.56 -49.07,64.22 -48.91,62.89 -48.72,61.62 -48.53,60.34 -47.69,61.44 -46.85,62.54 -47.81,61.89 -48.77,61.24 -49.80,60.53 -50.82,59.81 -51.84,59.07 -52.86,58.33 -54.19,57.52 -55.53,56.71 -56.70,56.24 -57.88,55.76 -58.87,55.09 -59.86,54.41 -59.04,51.15 -58.21,47.89 -57.03,47.42 -55.84,46.94 -54.66,46.41 -53.47,45.88 -52.38,45.33 -51.28,44.77 -50.39,44.18 -49.51,43.59 -48.86,42.72 -48.21,41.85 -47.98,40.55 -47.74,39.26 -47.66,37.93 -47.58,36.61 -47.57,35.40 -47.57,34.19 -47.56,33.02 -47.55,31.85 -47.44,30.43 -47.34,29.00 -47.24,27.94 -47.14,26.87 -47.02,25.68 -46.91,24.50 -46.76,23.02 -46.62,21.55 -46.51,20.33 -46.40,19.11 -46.19,17.77 -45.98,16.43 -45.80,15.26 -45.62,14.08 -45.45,12.66 -45.29,11.23 -45.02,9.83 -44.75,8.42 -44.40,7.41 -44.05,6.40 -43.79,5.18 -43.52,3.96 -43.25,2.91 -42.98,1.87 -42.63,0.73 -42.28,-0.40 -41.48,-1.30 -40.67,-2.21 -39.30,-2.63 -37.93,-3.04 -36.77,-3.09 -35.61,-3.15 -34.40,-3.08 -33.20,-3.01 -31.80,-2.92 -30.40,-2.84 -29.13,-2.77 -27.87,-2.70 -26.90,-2.66 -25.93,-2.63 -25.61,-2.59 -25.30,-2.55 -25.00,-2.44 -24.70,-2.33 -24.44,-2.15 -24.18,-1.97 -23.97,-1.73 -23.76,-1.49 -23.61,-1.21 -23.46,-0.93 -23.39,-0.62 -23.31,-0.31 -23.31,0.00 -23.31,0.31 -23.39,0.62 -23.46,0.93 -23.61,1.21 -23.76,1.49 -23.97,1.73 -24.18,1.97 -24.44,2.15 -24.70,2.33 -25.00,2.44 -25.30,2.55 -25.61,2.59 -25.93,2.63 -25.93,2.63 L -25.93,2.63 Z"></path></g><g transform="translate(18.680339697162708 251.47317108886818) rotate(0 126.50000000000006 22.5)"><text x="0" y="32" font-family="Bradley Hand" font-size="36px" fill="currentColor" text-anchor="start" style="white-space: pre;" direction="ltr">ChildPrototype</text></g><g transform="translate(390.14575276503194 293.87540039180567) rotate(357.1915199662063 -41.69128801573822 51.82393466380108)" stroke="none" fill="currentColor"><path d="M -25.93,2.63 Q -25.93,2.63 -26.90,2.66 -27.87,2.70 -29.13,2.77 -30.40,2.84 -31.80,2.92 -33.20,3.01 -34.40,3.08 -35.61,3.15 -36.24,4.53 -36.87,5.91 -37.08,7.21 -37.30,8.50 -37.66,10.30 -38.02,12.10 -38.13,13.16 -38.23,14.22 -38.41,15.65 -38.59,17.08 -38.82,18.25 -39.06,19.43 -39.07,20.56 -39.08,21.70 -39.26,23.19 -39.43,24.68 -39.53,25.80 -39.63,26.92 -39.71,28.06 -39.80,29.21 -39.90,30.31 -39.99,31.41 -39.99,32.48 -39.99,33.55 -39.98,34.69 -39.98,35.83 -39.97,37.05 -39.96,38.28 -40.15,39.90 -40.35,41.52 -40.61,42.82 -40.88,44.13 -41.33,45.09 -41.79,46.06 -42.51,47.06 -43.23,48.07 -43.96,48.94 -44.69,49.82 -45.58,50.45 -46.46,51.07 -47.94,51.87 -49.42,52.67 -50.41,53.05 -51.41,53.44 -52.69,53.96 -53.97,54.49 -54.45,51.90 -54.92,49.31 -55.85,48.68 -56.79,48.06 -55.22,48.59 -53.65,49.12 -52.55,49.62 -51.44,50.12 -50.48,50.70 -49.52,51.28 -48.59,51.87 -47.66,52.46 -46.44,53.41 -45.21,54.36 -44.16,55.10 -43.11,55.85 -42.13,56.98 -41.16,58.10 -40.99,59.27 -40.81,60.43 -41.02,61.56 -41.22,62.69 -41.28,63.79 -41.33,64.89 -41.52,66.30 -41.70,67.71 -41.80,68.78 -41.90,69.85 -42.00,71.06 -42.10,72.28 -42.10,73.38 -42.11,74.48 -42.20,75.66 -42.29,76.84 -42.41,78.17 -42.53,79.50 -42.50,80.73 -42.48,81.96 -42.58,83.08 -42.67,84.21 -42.67,85.30 -42.67,86.38 -42.68,87.68 -42.68,88.97 -42.68,90.14 -42.68,91.32 -42.68,92.52 -42.68,93.71 -42.68,94.80 -42.68,95.90 -42.68,96.96 -42.67,98.03 -41.61,98.42 -40.55,98.81 -39.09,98.99 -37.62,99.17 -36.18,99.40 -34.74,99.63 -33.42,99.63 -32.10,99.62 -29.86,99.70 -27.63,99.78 -27.01,99.88 -26.39,99.99 -25.84,100.28 -25.29,100.57 -24.86,101.03 -24.43,101.48 -24.17,102.05 -23.91,102.62 -23.85,103.24 -23.78,103.86 -23.92,104.47 -24.05,105.08 -24.38,105.62 -24.70,106.15 -25.18,106.56 -25.66,106.96 -26.24,107.19 -26.82,107.42 -27.44,107.45 -28.07,107.48 -28.67,107.31 -29.27,107.14 -29.79,106.79 -30.30,106.44 -30.68,105.94 -31.06,105.44 -31.26,104.85 -31.45,104.25 -31.45,103.63 -31.45,103.00 -31.25,102.41 -31.05,101.82 -30.67,101.32 -30.29,100.83 -29.77,100.48 -29.25,100.13 -28.65,99.97 -28.04,99.80 -27.42,99.84 -26.79,99.87 -26.21,100.11 -25.63,100.34 -25.16,100.75 -24.68,101.15 -24.36,101.69 -24.04,102.23 -23.91,102.84 -23.78,103.45 -23.85,104.07 -23.92,104.69 -24.18,105.26 -24.45,105.82 -24.88,106.27 -25.31,106.73 -25.86,107.02 -26.42,107.31 -27.03,107.41 -27.65,107.51 -27.65,107.51 -27.65,107.51 -29.88,107.43 -32.10,107.35 -33.44,107.34 -34.78,107.33 -36.02,107.21 -37.26,107.10 -38.40,106.91 -39.54,106.73 -40.67,106.54 -41.80,106.36 -42.87,106.07 -43.93,105.77 -45.15,105.34 -46.36,104.90 -47.25,104.31 -48.15,103.72 -49.16,102.38 -50.17,101.03 -50.31,99.53 -50.45,98.03 -50.45,96.96 -50.45,95.90 -50.45,94.80 -50.45,93.71 -50.45,92.52 -50.45,91.32 -50.45,90.14 -50.45,88.97 -50.45,87.68 -50.45,86.38 -50.45,85.27 -50.45,84.16 -50.35,83.04 -50.26,81.91 -50.26,80.80 -50.25,79.68 -50.16,78.44 -50.06,77.21 -49.96,76.04 -49.86,74.87 -49.86,73.78 -49.86,72.69 -49.77,71.46 -49.67,70.23 -49.57,69.04 -49.46,67.85 -49.35,66.70 -49.24,65.56 -49.07,64.22 -48.91,62.89 -48.72,61.62 -48.53,60.34 -47.69,61.44 -46.85,62.54 -47.81,61.89 -48.77,61.24 -49.80,60.53 -50.82,59.81 -51.84,59.07 -52.86,58.33 -54.19,57.52 -55.53,56.71 -56.70,56.24 -57.88,55.76 -58.87,55.09 -59.86,54.41 -59.04,51.15 -58.21,47.89 -57.03,47.42 -55.84,46.94 -54.66,46.41 -53.47,45.88 -52.38,45.33 -51.28,44.77 -50.39,44.18 -49.51,43.59 -48.86,42.72 -48.21,41.85 -47.98,40.55 -47.74,39.26 -47.66,37.93 -47.58,36.61 -47.57,35.40 -47.57,34.19 -47.56,33.02 -47.55,31.85 -47.44,30.43 -47.34,29.00 -47.24,27.94 -47.14,26.87 -47.02,25.68 -46.91,24.50 -46.76,23.02 -46.62,21.55 -46.51,20.33 -46.40,19.11 -46.19,17.77 -45.98,16.43 -45.80,15.26 -45.62,14.08 -45.45,12.66 -45.29,11.23 -45.02,9.83 -44.75,8.42 -44.40,7.41 -44.05,6.40 -43.79,5.18 -43.52,3.96 -43.25,2.91 -42.98,1.87 -42.63,0.73 -42.28,-0.40 -41.48,-1.30 -40.67,-2.21 -39.30,-2.63 -37.93,-3.04 -36.77,-3.09 -35.61,-3.15 -34.40,-3.08 -33.20,-3.01 -31.80,-2.92 -30.40,-2.84 -29.13,-2.77 -27.87,-2.70 -26.90,-2.66 -25.93,-2.63 -25.61,-2.59 -25.30,-2.55 -25.00,-2.44 -24.70,-2.33 -24.44,-2.15 -24.18,-1.97 -23.97,-1.73 -23.76,-1.49 -23.61,-1.21 -23.46,-0.93 -23.39,-0.62 -23.31,-0.31 -23.31,0.00 -23.31,0.31 -23.39,0.62 -23.46,0.93 -23.61,1.21 -23.76,1.49 -23.97,1.73 -24.18,1.97 -24.44,2.15 -24.70,2.33 -25.00,2.44 -25.30,2.55 -25.61,2.59 -25.93,2.63 -25.93,2.63 L -25.93,2.63 Z"></path></g><g transform="translate(600.8026188295872 294.20792192924455) rotate(175.41045389689123 -41.69128801573822 51.82393466380108)" stroke="none" fill="currentColor"><path d="M -25.93,2.63 Q -25.93,2.63 -26.90,2.66 -27.87,2.70 -29.13,2.77 -30.40,2.84 -31.80,2.92 -33.20,3.01 -34.40,3.08 -35.61,3.15 -36.24,4.53 -36.87,5.91 -37.08,7.21 -37.30,8.50 -37.66,10.30 -38.02,12.10 -38.13,13.16 -38.23,14.22 -38.41,15.65 -38.59,17.08 -38.82,18.25 -39.06,19.43 -39.07,20.56 -39.08,21.70 -39.26,23.19 -39.43,24.68 -39.53,25.80 -39.63,26.92 -39.71,28.06 -39.80,29.21 -39.90,30.31 -39.99,31.41 -39.99,32.48 -39.99,33.55 -39.98,34.69 -39.98,35.83 -39.97,37.05 -39.96,38.28 -40.15,39.90 -40.35,41.52 -40.61,42.82 -40.88,44.13 -41.33,45.09 -41.79,46.06 -42.51,47.06 -43.23,48.07 -43.96,48.94 -44.69,49.82 -45.58,50.45 -46.46,51.07 -47.94,51.87 -49.42,52.67 -50.41,53.05 -51.41,53.44 -52.69,53.96 -53.97,54.49 -54.45,51.90 -54.92,49.31 -55.85,48.68 -56.79,48.06 -55.22,48.59 -53.65,49.12 -52.55,49.62 -51.44,50.12 -50.48,50.70 -49.52,51.28 -48.59,51.87 -47.66,52.46 -46.44,53.41 -45.21,54.36 -44.16,55.10 -43.11,55.85 -42.13,56.98 -41.16,58.10 -40.99,59.27 -40.81,60.43 -41.02,61.56 -41.22,62.69 -41.28,63.79 -41.33,64.89 -41.52,66.30 -41.70,67.71 -41.80,68.78 -41.90,69.85 -42.00,71.06 -42.10,72.28 -42.10,73.38 -42.11,74.48 -42.20,75.66 -42.29,76.84 -42.41,78.17 -42.53,79.50 -42.50,80.73 -42.48,81.96 -42.58,83.08 -42.67,84.21 -42.67,85.30 -42.67,86.38 -42.68,87.68 -42.68,88.97 -42.68,90.14 -42.68,91.32 -42.68,92.52 -42.68,93.71 -42.68,94.80 -42.68,95.90 -42.68,96.96 -42.67,98.03 -41.61,98.42 -40.55,98.81 -39.09,98.99 -37.62,99.17 -36.18,99.40 -34.74,99.63 -33.42,99.63 -32.10,99.62 -29.86,99.70 -27.63,99.78 -27.01,99.88 -26.39,99.99 -25.84,100.28 -25.29,100.57 -24.86,101.03 -24.43,101.48 -24.17,102.05 -23.91,102.62 -23.85,103.24 -23.78,103.86 -23.92,104.47 -24.05,105.08 -24.38,105.62 -24.70,106.15 -25.18,106.56 -25.66,106.96 -26.24,107.19 -26.82,107.42 -27.44,107.45 -28.07,107.48 -28.67,107.31 -29.27,107.14 -29.79,106.79 -30.30,106.44 -30.68,105.94 -31.06,105.44 -31.26,104.85 -31.45,104.25 -31.45,103.63 -31.45,103.00 -31.25,102.41 -31.05,101.82 -30.67,101.32 -30.29,100.83 -29.77,100.48 -29.25,100.13 -28.65,99.97 -28.04,99.80 -27.42,99.84 -26.79,99.87 -26.21,100.11 -25.63,100.34 -25.16,100.75 -24.68,101.15 -24.36,101.69 -24.04,102.23 -23.91,102.84 -23.78,103.45 -23.85,104.07 -23.92,104.69 -24.18,105.26 -24.45,105.82 -24.88,106.27 -25.31,106.73 -25.86,107.02 -26.42,107.31 -27.03,107.41 -27.65,107.51 -27.65,107.51 -27.65,107.51 -29.88,107.43 -32.10,107.35 -33.44,107.34 -34.78,107.33 -36.02,107.21 -37.26,107.10 -38.40,106.91 -39.54,106.73 -40.67,106.54 -41.80,106.36 -42.87,106.07 -43.93,105.77 -45.15,105.34 -46.36,104.90 -47.25,104.31 -48.15,103.72 -49.16,102.38 -50.17,101.03 -50.31,99.53 -50.45,98.03 -50.45,96.96 -50.45,95.90 -50.45,94.80 -50.45,93.71 -50.45,92.52 -50.45,91.32 -50.45,90.14 -50.45,88.97 -50.45,87.68 -50.45,86.38 -50.45,85.27 -50.45,84.16 -50.35,83.04 -50.26,81.91 -50.26,80.80 -50.25,79.68 -50.16,78.44 -50.06,77.21 -49.96,76.04 -49.86,74.87 -49.86,73.78 -49.86,72.69 -49.77,71.46 -49.67,70.23 -49.57,69.04 -49.46,67.85 -49.35,66.70 -49.24,65.56 -49.07,64.22 -48.91,62.89 -48.72,61.62 -48.53,60.34 -47.69,61.44 -46.85,62.54 -47.81,61.89 -48.77,61.24 -49.80,60.53 -50.82,59.81 -51.84,59.07 -52.86,58.33 -54.19,57.52 -55.53,56.71 -56.70,56.24 -57.88,55.76 -58.87,55.09 -59.86,54.41 -59.04,51.15 -58.21,47.89 -57.03,47.42 -55.84,46.94 -54.66,46.41 -53.47,45.88 -52.38,45.33 -51.28,44.77 -50.39,44.18 -49.51,43.59 -48.86,42.72 -48.21,41.85 -47.98,40.55 -47.74,39.26 -47.66,37.93 -47.58,36.61 -47.57,35.40 -47.57,34.19 -47.56,33.02 -47.55,31.85 -47.44,30.43 -47.34,29.00 -47.24,27.94 -47.14,26.87 -47.02,25.68 -46.91,24.50 -46.76,23.02 -46.62,21.55 -46.51,20.33 -46.40,19.11 -46.19,17.77 -45.98,16.43 -45.80,15.26 -45.62,14.08 -45.45,12.66 -45.29,11.23 -45.02,9.83 -44.75,8.42 -44.40,7.41 -44.05,6.40 -43.79,5.18 -43.52,3.96 -43.25,2.91 -42.98,1.87 -42.63,0.73 -42.28,-0.40 -41.48,-1.30 -40.67,-2.21 -39.30,-2.63 -37.93,-3.04 -36.77,-3.09 -35.61,-3.15 -34.40,-3.08 -33.20,-3.01 -31.80,-2.92 -30.40,-2.84 -29.13,-2.77 -27.87,-2.70 -26.90,-2.66 -25.93,-2.63 -25.61,-2.59 -25.30,-2.55 -25.00,-2.44 -24.70,-2.33 -24.44,-2.15 -24.18,-1.97 -23.97,-1.73 -23.76,-1.49 -23.61,-1.21 -23.46,-0.93 -23.39,-0.62 -23.31,-0.31 -23.31,0.00 -23.31,0.31 -23.39,0.62 -23.46,0.93 -23.61,1.21 -23.76,1.49 -23.97,1.73 -24.18,1.97 -24.44,2.15 -24.70,2.33 -25.00,2.44 -25.30,2.55 -25.61,2.59 -25.93,2.63 -25.93,2.63 L -25.93,2.63 Z"></path></g><g transform="translate(346.26547952203657 244.57109488018796) rotate(0 114.5 22.5)"><text x="0" y="32" font-family="Bradley Hand" font-size="36px" fill="currentColor" text-anchor="start" style="white-space: pre;" direction="ltr">childInstance</text></g><g transform="translate(362.83416079492747 357.9097752017242) rotate(0 86 17.5)"><text x="0" y="25" font-family="Bradley Hand" font-size="28px" fill="currentColor" text-anchor="start" style="white-space: pre;" direction="ltr">:__proto__</text></g><g stroke-linecap="round"><g transform="translate(361.83029222027847 373.39439630054767) rotate(0 -57.756520940100074 -3.233364204150348)"><path d="M0.28 0.76 C-18.8 -0.56, -96.03 -5.88, -115.36 -7.22 M-1.04 0.11 C-20.11 -1.09, -96.62 -4.8, -115.79 -5.86" stroke="currentColor" stroke-width="1" fill="none"></path></g><g transform="translate(361.83029222027847 373.39439630054767) rotate(0 -57.756520940100074 -3.233364204150348)"><path d="M-116.7 -6.07 L-101.25 -12.83 L-103.69 1.44 L-117.01 -5.92" stroke="none" stroke-width="0" fill="currentColor" fill-rule="evenodd"></path><path d="M-114.85 -4.64 C-113.08 -6.33, -110.05 -8.58, -100.52 -12.4 M-115.48 -6.09 C-110.66 -7.68, -105.15 -10.1, -101.19 -11.95 M-102.03 -10.77 C-102.66 -7.68, -101.83 -2.71, -101.39 2.21 M-101.78 -10.95 C-101.96 -8.06, -102.08 -4.02, -102.57 0.79 M-101.45 0.35 C-106.77 -0.36, -113.27 -3.25, -116.52 -6 M-102.06 1.42 C-107.78 -1.73, -112.74 -4.4, -115.71 -6.15 M-115.79 -5.86 C-115.79 -5.86, -115.79 -5.86, -115.79 -5.86 M-115.79 -5.86 C-115.79 -5.86, -115.79 -5.86, -115.79 -5.86" stroke="currentColor" stroke-width="1" fill="none"></path></g></g><g transform="translate(394.4738841955933 298.60885799746575) rotate(0 28.5 17.5)"><text x="0" y="25" font-family="Bradley Hand" font-size="28px" fill="currentColor" text-anchor="start" style="white-space: pre;" direction="ltr">a: 5</text></g><g transform="translate(68.2261849350839 313.7163956528075) rotate(0 45 17.5)"><text x="0" y="25" font-family="Bradley Hand" font-size="28px" fill="currentColor" text-anchor="start" style="white-space: pre;" direction="ltr">init: ƒ </text></g><g transform="translate(35.16120114330806 347.8530991440184) rotate(0 86 17.5)"><text x="0" y="25" font-family="Bradley Hand" font-size="28px" fill="currentColor" text-anchor="start" style="white-space: pre;" direction="ltr">__proto__:</text></g><g stroke-linecap="round"><g transform="translate(208.8948772485279 369.9222436580103) rotate(0 2.9361697379499105 -88.70117848077462)"><path d="M0.74 1.88 C2.04 -38.67, 1.35 -78.95, 5.74 -177.96 M-0.65 -0.7 C1.46 -50.69, 4.67 -101.26, 6.53 -179.28" stroke="currentColor" stroke-width="1" fill="none"></path></g><g transform="translate(208.8948772485279 369.9222436580103) rotate(0 2.9361697379499105 -88.70117848077462)"><path d="M6.74 -180.73 L11.21 -163.83 L0.12 -166.12 L8.08 -179.21" stroke="none" stroke-width="0" fill="currentColor" fill-rule="evenodd"></path><path d="M7.08 -177.87 C8.33 -175.15, 7.9 -172.23, 11.27 -164.5 M6.04 -179.8 C7.62 -175.62, 10.15 -171.86, 11.85 -165.49 M12.46 -166.2 C7.92 -166.04, 2.88 -165.92, 0.15 -166.72 M12.65 -165.24 C9.75 -166.06, 5.48 -165.93, 0.03 -165.66 M-1.63 -166.49 C2.49 -170.1, 2.98 -171.1, 7.86 -179.9 M0.26 -165.78 C2.07 -169.51, 2.87 -172.69, 6.6 -180.01 M6.53 -179.28 C6.53 -179.28, 6.53 -179.28, 6.53 -179.28 M6.53 -179.28 C6.53 -179.28, 6.53 -179.28, 6.53 -179.28" stroke="currentColor" stroke-width="1" fill="none"></path></g></g><g transform="translate(397.90665703368416 330.10269370649985) rotate(0 25 17.5)"><text x="0" y="25" font-family="Bradley Hand" font-size="28px" fill="currentColor" text-anchor="start" style="white-space: pre;" direction="ltr">b: 7</text></g></svg>
